<?xml version="1.0" standalone="no"?>
<!DOCTYPE svg PUBLIC "-//W3C//DTD SVG 1.1//EN" "http://www.w3.org/Graphics/SVG/1.1/DTD/svg11.dtd" >
<svg xmlns="http://www.w3.org/2000/svg" xmlns:xlink="http://www.w3.org/1999/xlink" version="1.1">
<metadata>
Created by FontForge 20170731 at Tue Jun 15 05:19:48 2021
 By Aleksey,,,
Copr. 1994  /lineto  Cornel Windlin for FontFont release 12, FontShop International
</metadata>
<defs>
<font id="DotMatrix-TwoExtended" horiz-adv-x="1406" >
  <font-face 
    font-family="Dot Matrix 2 Extended"
    font-weight="500"
    font-stretch="normal"
    units-per-em="2048"
    panose-1="0 0 0 0 0 0 0 0 0 0"
    ascent="1638"
    descent="-410"
    x-height="999"
    cap-height="1405"
    bbox="102 -203 1913 1810"
    underline-thickness="0"
    underline-position="0"
    unicode-range="U+0020-FB02"
  />
<missing-glyph horiz-adv-x="1024" 
 />
    <glyph glyph-name=".notdef" horiz-adv-x="1024" 
 />
    <glyph glyph-name=".null" horiz-adv-x="0" 
 />
    <glyph glyph-name="nonmarkingreturn" horiz-adv-x="682" 
 />
    <glyph glyph-name="space" unicode=" " horiz-adv-x="798" 
 />
    <glyph glyph-name="exclam" unicode="!" horiz-adv-x="1001" 
d="M696 1311q0 -38 -28 -66t-66 -28t-66 28t-28 66t28 66t66 28t66 -28t28 -66zM494 1311q0 -38 -28.5 -66t-66.5 -28t-66 28t-28 66t28 66t66 28t66.5 -28t28.5 -66zM696 1108q0 -38 -28 -66t-66 -28t-66 28t-28 66t28 66t66 28t66 -28t28 -66zM494 1108q0 -38 -28.5 -66
t-66.5 -28t-66 28t-28 66t28 66t66 28t66.5 -28t28.5 -66zM696 905q0 -38 -28 -66t-66 -28t-66 28t-28 66t28 66t66 28t66 -28t28 -66zM494 905q0 -38 -28.5 -66t-66.5 -28t-66 28t-28 66t28 66t66 28t66.5 -28t28.5 -66zM696 702q0 -38 -28 -66t-66 -28t-66 28t-28 66
t28 66.5t66 28.5t66 -28.5t28 -66.5zM494 702q0 -38 -28.5 -66t-66.5 -28t-66 28t-28 66t28 66.5t66 28.5t66.5 -28.5t28.5 -66.5zM696 500q0 -38 -28 -66t-66 -28t-66 28t-28 66t28 66t66 28t66 -28t28 -66zM494 500q0 -38 -28.5 -66t-66.5 -28t-66 28t-28 66t28 66t66 28
t66.5 -28t28.5 -66zM696 94q0 -38 -28 -66t-66 -28t-66 28t-28 66t28 66t66 28t66 -28t28 -66zM494 94q0 -38 -28.5 -66t-66.5 -28t-66 28t-28 66t28 66t66 28t66.5 -28t28.5 -66z" />
    <glyph glyph-name="quotedbl" unicode="&#x22;" horiz-adv-x="1204" 
d="M1102 1311q0 -38 -28 -66t-66 -28q-40 0 -67.5 27.5t-27.5 66.5t27.5 66.5t67.5 27.5q38 0 66 -28t28 -66zM899 1311q0 -38 -28 -66t-66 -28q-39 0 -66.5 27.5t-27.5 66.5t27.5 66.5t66.5 27.5q38 0 66 -28t28 -66zM1102 1108q0 -38 -28 -66t-66 -28q-40 0 -67.5 28
t-27.5 66t27.5 66t67.5 28q38 0 66 -28t28 -66zM899 1108q0 -38 -28 -66t-66 -28q-39 0 -66.5 27.5t-27.5 66.5t27.5 66.5t66.5 27.5q38 0 66 -28t28 -66zM1102 905q0 -38 -28 -66t-66 -28q-40 0 -67.5 27.5t-27.5 66.5t27.5 66.5t67.5 27.5q38 0 66 -28t28 -66zM494 1311
q0 -38 -28.5 -66t-66.5 -28t-66 28t-28 66t28 66t66 28t66.5 -28t28.5 -66zM899 905q0 -38 -28 -66t-66 -28q-39 0 -66.5 27.5t-27.5 66.5t27.5 66.5t66.5 27.5q38 0 66 -28t28 -66zM291 1311q0 -38 -28 -66t-66 -28t-66.5 28t-28.5 66t28.5 66t66.5 28t66 -28t28 -66z
M494 1108q0 -38 -28.5 -66t-66.5 -28t-66 28t-28 66t28 66t66 28t66.5 -28t28.5 -66zM291 1108q0 -38 -28 -66t-66 -28t-66.5 28t-28.5 66t28.5 66t66.5 28t66 -28t28 -66zM494 905q0 -38 -28.5 -66t-66.5 -28t-66 28t-28 66t28 66t66 28t66.5 -28t28.5 -66zM291 905
q0 -38 -28 -66t-66 -28t-66.5 28t-28.5 66t28.5 66t66.5 28t66 -28t28 -66z" />
    <glyph glyph-name="numbersign" unicode="#" horiz-adv-x="1609" 
d="M1305 1311q0 -38 -28.5 -66t-66.5 -28q-39 0 -66.5 27.5t-27.5 66.5t27.5 66.5t66.5 27.5q38 0 66.5 -28t28.5 -66zM1102 1311q0 -38 -28 -66t-66 -28q-40 0 -67.5 27.5t-27.5 66.5t27.5 66.5t67.5 27.5q38 0 66 -28t28 -66zM1305 1108q0 -38 -28.5 -66t-66.5 -28
q-39 0 -66.5 27.5t-27.5 66.5t27.5 66.5t66.5 27.5q38 0 66.5 -28t28.5 -66zM1507 905q0 -38 -28 -66t-66 -28q-39 0 -66.5 27.5t-27.5 66.5t27.5 66.5t66.5 27.5q38 0 66 -28t28 -66zM1102 1108q0 -38 -28 -66t-66 -28q-40 0 -67.5 28t-27.5 66t27.5 66t67.5 28
q38 0 66 -28t28 -66zM1305 905q0 -38 -28.5 -66t-66.5 -28q-39 0 -66.5 27.5t-27.5 66.5t27.5 66.5t66.5 27.5q38 0 66.5 -28t28.5 -66zM696 1311q0 -38 -28 -66t-66 -28t-66 28t-28 66t28 66t66 28t66 -28t28 -66zM1102 905q0 -38 -28 -66t-66 -28q-40 0 -67.5 27.5
t-27.5 66.5t27.5 66.5t67.5 27.5q38 0 66 -28t28 -66zM1305 702q0 -38 -28.5 -66t-66.5 -28q-39 0 -66.5 27.5t-27.5 66.5t27.5 67t66.5 28q38 0 66.5 -28.5t28.5 -66.5zM1507 500q0 -38 -28 -66t-66 -28q-39 0 -66.5 27.5t-27.5 66.5t27.5 66.5t66.5 27.5q38 0 66 -28
t28 -66zM494 1311q0 -38 -28.5 -66t-66.5 -28t-66 28t-28 66t28 66t66 28t66.5 -28t28.5 -66zM696 1108q0 -38 -28 -66t-66 -28t-66 28t-28 66t28 66t66 28t66 -28t28 -66zM899 905q0 -38 -28 -66t-66 -28q-39 0 -66.5 27.5t-27.5 66.5t27.5 66.5t66.5 27.5q38 0 66 -28
t28 -66zM1102 702q0 -38 -28 -66t-66 -28q-40 0 -67.5 28t-27.5 66q0 39 28 67t67 28q38 0 66 -28.5t28 -66.5zM1305 500q0 -38 -28.5 -66t-66.5 -28q-39 0 -66.5 27.5t-27.5 66.5t27.5 66.5t66.5 27.5q38 0 66.5 -28t28.5 -66zM494 1108q0 -38 -28.5 -66t-66.5 -28t-66 28
t-28 66t28 66t66 28t66.5 -28t28.5 -66zM696 905q0 -38 -28 -66t-66 -28t-66 28t-28 66t28 66t66 28t66 -28t28 -66zM1102 500q0 -38 -28 -66t-66 -28q-40 0 -67.5 28t-27.5 66t27.5 66t67.5 28q38 0 66 -28t28 -66zM1305 297q0 -38 -28.5 -66t-66.5 -28q-39 0 -66.5 27.5
t-27.5 66.5t27.5 66.5t66.5 27.5q38 0 66.5 -28t28.5 -66zM494 905q0 -38 -28.5 -66t-66.5 -28t-66 28t-28 66t28 66t66 28t66.5 -28t28.5 -66zM696 702q0 -38 -28 -66t-66 -28t-66 28t-28 66t28 66.5t66 28.5t66 -28.5t28 -66.5zM899 500q0 -38 -28 -66t-66 -28
q-39 0 -66.5 27.5t-27.5 66.5t27.5 66.5t66.5 27.5q38 0 66 -28t28 -66zM1102 297q0 -38 -28 -66t-66 -28q-40 0 -67.5 27.5t-27.5 66.5t27.5 66.5t67.5 27.5q38 0 66 -28t28 -66zM1305 94q0 -38 -28.5 -66t-66.5 -28q-39 0 -66.5 27.5t-27.5 66.5t27.5 66.5t66.5 27.5
q38 0 66.5 -28t28.5 -66zM291 905q0 -38 -28 -66t-66 -28t-66.5 28t-28.5 66t28.5 66t66.5 28t66 -28t28 -66zM494 702q0 -38 -28.5 -66t-66.5 -28t-66 28t-28 66t28 66.5t66 28.5t66.5 -28.5t28.5 -66.5zM696 500q0 -38 -28 -66t-66 -28t-66 28t-28 66t28 66t66 28t66 -28
t28 -66zM1102 94q0 -38 -28 -66t-66 -28q-40 0 -67.5 28t-27.5 66t27.5 66t67.5 28q38 0 66 -28t28 -66zM494 500q0 -38 -28.5 -66t-66.5 -28t-66 28t-28 66t28 66t66 28t66.5 -28t28.5 -66zM696 297q0 -38 -28 -66t-66 -28t-66 28t-28 66t28 66t66 28t66 -28t28 -66z
M291 500q0 -38 -28 -66t-66 -28t-66.5 28t-28.5 66t28.5 66t66.5 28t66 -28t28 -66zM494 297q0 -38 -28.5 -66t-66.5 -28t-66 28t-28 66t28 66t66 28t66.5 -28t28.5 -66zM696 94q0 -38 -28 -66t-66 -28t-66 28t-28 66t28 66t66 28t66 -28t28 -66zM494 94q0 -38 -28.5 -66
t-66.5 -28t-66 28t-28 66t28 66t66 28t66.5 -28t28.5 -66z" />
    <glyph glyph-name="dollar" unicode="$" 
d="M1305 1108q0 -38 -28.5 -66t-66.5 -28q-39 0 -66.5 27.5t-27.5 66.5t27.5 66.5t66.5 27.5q38 0 66.5 -28t28.5 -66zM899 1311q0 -38 -28 -66t-66 -28t-66 28t-28 66t28 66t66 28t66 -28t28 -66zM1102 1108q0 -38 -28 -66t-66 -28q-40 0 -67.5 28t-27.5 66t27.5 66
t67.5 28q38 0 66 -28t28 -66zM696 1311q0 -38 -28 -66t-66 -28t-66 28t-28 66t28 66t66 28t66 -28t28 -66zM899 1108q0 -38 -28 -66t-66 -28q-39 0 -66.5 27.5t-27.5 66.5t27.5 66.5t66.5 27.5q38 0 66 -28t28 -66zM696 1108q0 -38 -28 -66t-66 -28t-66 28t-28 66t28 66
t66 28t66 -28t28 -66zM1102 702q0 -38 -28 -66t-66 -28q-40 0 -67.5 28t-27.5 66q0 39 28 67t67 28q38 0 66 -28.5t28 -66.5zM1305 500q0 -38 -28.5 -66t-66.5 -28q-39 0 -66.5 27.5t-27.5 66.5t27.5 66.5t66.5 27.5q38 0 66.5 -28t28.5 -66zM494 1108q0 -38 -28.5 -66
t-66.5 -28t-66 28t-28 66t28 66t66 28t66.5 -28t28.5 -66zM899 702q0 -38 -28 -66t-66 -28q-39 0 -66.5 27.5t-27.5 66.5t27.5 67t66.5 28q38 0 66 -28.5t28 -66.5zM1102 500q0 -38 -28 -66t-66 -28q-40 0 -67.5 28t-27.5 66t27.5 66t67.5 28q38 0 66 -28t28 -66zM494 905
q0 -38 -28.5 -66t-66.5 -28t-66 28t-28 66t28 66t66 28t66.5 -28t28.5 -66zM696 702q0 -38 -28 -66t-66 -28t-66 28t-28 66t28 66.5t66 28.5t66 -28.5t28 -66.5zM1102 297q0 -38 -28 -66t-66 -28q-40 0 -67.5 27.5t-27.5 66.5t27.5 66.5t67.5 27.5q38 0 66 -28t28 -66z
M291 905q0 -38 -28 -66t-66 -28t-66.5 28t-28.5 66t28.5 66t66.5 28t66 -28t28 -66zM494 702q0 -38 -28.5 -66t-66.5 -28t-66 28t-28 66t28 66.5t66 28.5t66.5 -28.5t28.5 -66.5zM899 297q0 -38 -28 -66t-66 -28q-39 0 -66.5 27.5t-27.5 66.5t27.5 66.5t66.5 27.5
q38 0 66 -28t28 -66zM696 297q0 -38 -28 -66t-66 -28t-66 28t-28 66t28 66t66 28t66 -28t28 -66zM899 94q0 -38 -28 -66t-66 -28t-66 28t-28 66t28 66t66 28t66 -28t28 -66zM494 297q0 -38 -28.5 -66t-66.5 -28t-66 28t-28 66t28 66t66 28t66.5 -28t28.5 -66zM696 94
q0 -38 -28 -66t-66 -28t-66 28t-28 66t28 66t66 28t66 -28t28 -66zM291 297q0 -38 -28 -66t-66 -28t-66.5 28t-28.5 66t28.5 66t66.5 28t66 -28t28 -66z" />
    <glyph glyph-name="percent" unicode="%" 
d="M1305 1311q0 -38 -28.5 -66t-66.5 -28q-39 0 -66.5 27.5t-27.5 66.5t27.5 66.5t66.5 27.5q38 0 66.5 -28t28.5 -66zM1102 1311q0 -38 -28 -66t-66 -28q-40 0 -67.5 27.5t-27.5 66.5t27.5 66.5t67.5 27.5q38 0 66 -28t28 -66zM1305 1108q0 -38 -28.5 -66t-66.5 -28
q-39 0 -66.5 27.5t-27.5 66.5t27.5 66.5t66.5 27.5q38 0 66.5 -28t28.5 -66zM1102 1108q0 -38 -28 -66t-66 -28q-40 0 -67.5 28t-27.5 66t27.5 66t67.5 28q38 0 66 -28t28 -66zM696 1311q0 -38 -28 -66t-66 -28t-66 28t-28 66t28 66t66 28t66 -28t28 -66zM1102 905
q0 -38 -28 -66t-66 -28q-40 0 -67.5 27.5t-27.5 66.5t27.5 66.5t67.5 27.5q38 0 66 -28t28 -66zM494 1311q0 -38 -28.5 -66t-66.5 -28t-66 28t-28 66t28 66t66 28t66.5 -28t28.5 -66zM696 1108q0 -38 -28 -66t-66 -28t-66 28t-28 66t28 66t66 28t66 -28t28 -66zM899 905
q0 -38 -28 -66t-66 -28q-39 0 -66.5 27.5t-27.5 66.5t27.5 66.5t66.5 27.5q38 0 66 -28t28 -66zM291 1311q0 -38 -28 -66t-66 -28t-66.5 28t-28.5 66t28.5 66t66.5 28t66 -28t28 -66zM494 1108q0 -38 -28.5 -66t-66.5 -28t-66 28t-28 66t28 66t66 28t66.5 -28t28.5 -66z
M899 702q0 -38 -28 -66t-66 -28t-66 28t-28 66t28 66.5t66 28.5t66 -28.5t28 -66.5zM1305 297q0 -38 -28.5 -66t-66.5 -28q-39 0 -66.5 27.5t-27.5 66.5t27.5 66.5t66.5 27.5q38 0 66.5 -28t28.5 -66zM291 1108q0 -38 -28 -66t-66 -28t-66.5 28t-28.5 66t28.5 66t66.5 28
t66 -28t28 -66zM696 702q0 -38 -28 -66t-66 -28t-66 28t-28 66t28 66.5t66 28.5t66 -28.5t28 -66.5zM1102 297q0 -38 -28 -66t-66 -28q-40 0 -67.5 27.5t-27.5 66.5t27.5 66.5t67.5 27.5q38 0 66 -28t28 -66zM1305 94q0 -38 -28.5 -66t-66.5 -28q-39 0 -66.5 27.5
t-27.5 66.5t27.5 66.5t66.5 27.5q38 0 66.5 -28t28.5 -66zM696 500q0 -38 -28 -66t-66 -28t-66 28t-28 66t28 66t66 28t66 -28t28 -66zM899 297q0 -38 -28 -66t-66 -28q-39 0 -66.5 27.5t-27.5 66.5t27.5 66.5t66.5 27.5q38 0 66 -28t28 -66zM1102 94q0 -38 -28 -66t-66 -28
q-40 0 -67.5 28t-27.5 66t27.5 66t67.5 28q38 0 66 -28t28 -66zM494 500q0 -38 -28.5 -66t-66.5 -28t-66 28t-28 66t28 66t66 28t66.5 -28t28.5 -66zM899 94q0 -38 -28 -66t-66 -28q-39 0 -66.5 27.5t-27.5 66.5t27.5 66.5t66.5 27.5q38 0 66 -28t28 -66zM494 297
q0 -38 -28.5 -66t-66.5 -28t-66 28t-28 66t28 66t66 28t66.5 -28t28.5 -66zM291 297q0 -38 -28 -66t-66 -28t-66.5 28t-28.5 66t28.5 66t66.5 28t66 -28t28 -66zM494 94q0 -38 -28.5 -66t-66.5 -28t-66 28t-28 66t28 66t66 28t66.5 -28t28.5 -66zM291 94q0 -38 -28 -66
t-66 -28t-66.5 28t-28.5 66t28.5 66t66.5 28t66 -28t28 -66z" />
    <glyph glyph-name="ampersand" unicode="&#x26;" 
d="M1102 1311q0 -38 -28 -66t-66 -28t-66.5 28t-28.5 66t28.5 66t66.5 28t66 -28t28 -66zM1305 1108q0 -38 -28.5 -66t-66.5 -28q-39 0 -66.5 27.5t-27.5 66.5t27.5 66.5t66.5 27.5q38 0 66.5 -28t28.5 -66zM899 1311q0 -38 -28 -66t-66 -28t-66 28t-28 66t28 66t66 28
t66 -28t28 -66zM1102 1108q0 -38 -28 -66t-66 -28q-40 0 -67.5 28t-27.5 66t27.5 66t67.5 28q38 0 66 -28t28 -66zM696 1311q0 -38 -28 -66t-66 -28t-66 28t-28 66t28 66t66 28t66 -28t28 -66zM1102 905q0 -38 -28 -66t-66 -28t-66.5 28t-28.5 66t28.5 66t66.5 28t66 -28
t28 -66zM696 1108q0 -38 -28 -66t-66 -28t-66 28t-28 66t28 66t66 28t66 -28t28 -66zM899 905q0 -38 -28 -66t-66 -28t-66 28t-28 66t28 66t66 28t66 -28t28 -66zM1102 702q0 -38 -28 -66t-66 -28t-66.5 28t-28.5 66t28.5 66.5t66.5 28.5t66 -28.5t28 -66.5zM1305 500
q0 -38 -28.5 -66t-66.5 -28q-39 0 -66.5 27.5t-27.5 66.5t27.5 66.5t66.5 27.5q38 0 66.5 -28t28.5 -66zM494 1108q0 -38 -28.5 -66t-66.5 -28t-66 28t-28 66t28 66t66 28t66.5 -28t28.5 -66zM696 905q0 -38 -28 -66t-66 -28t-66 28t-28 66t28 66t66 28t66 -28t28 -66z
M899 702q0 -38 -28 -66t-66 -28t-66 28t-28 66t28 66.5t66 28.5t66 -28.5t28 -66.5zM1102 500q0 -38 -28 -66t-66 -28q-40 0 -67.5 28t-27.5 66t27.5 66t67.5 28q38 0 66 -28t28 -66zM1305 297q0 -38 -28.5 -66t-66.5 -28q-39 0 -66.5 27.5t-27.5 66.5t27.5 66.5t66.5 27.5
q38 0 66.5 -28t28.5 -66zM1507 94q0 -38 -28 -66t-66 -28q-39 0 -66.5 27.5t-27.5 66.5t27.5 66.5t66.5 27.5q38 0 66 -28t28 -66zM696 702q0 -38 -28 -66t-66 -28t-66 28t-28 66t28 66.5t66 28.5t66 -28.5t28 -66.5zM899 500q0 -38 -28 -66t-66 -28t-66 28t-28 66t28 66
t66 28t66 -28t28 -66zM1102 297q0 -38 -28 -66t-66 -28q-40 0 -67.5 27.5t-27.5 66.5t27.5 66.5t67.5 27.5q38 0 66 -28t28 -66zM1305 94q0 -38 -28.5 -66t-66.5 -28q-39 0 -66.5 27.5t-27.5 66.5t27.5 66.5t66.5 27.5q38 0 66.5 -28t28.5 -66zM494 702q0 -38 -28.5 -66
t-66.5 -28t-66 28t-28 66t28 66.5t66 28.5t66.5 -28.5t28.5 -66.5zM899 297q0 -38 -28 -66t-66 -28q-39 0 -66.5 27.5t-27.5 66.5t27.5 66.5t66.5 27.5q38 0 66 -28t28 -66zM494 500q0 -38 -28.5 -66t-66.5 -28t-66 28t-28 66t28 66t66 28t66.5 -28t28.5 -66zM899 94
q0 -38 -28 -66t-66 -28q-39 0 -66.5 27.5t-27.5 66.5t27.5 66.5t66.5 27.5q38 0 66 -28t28 -66zM291 500q0 -38 -28 -66t-66 -28t-66.5 28t-28.5 66t28.5 66t66.5 28t66 -28t28 -66zM494 297q0 -38 -28.5 -66t-66.5 -28t-66 28t-28 66t28 66t66 28t66.5 -28t28.5 -66z
M696 94q0 -38 -28 -66t-66 -28t-66 28t-28 66t28 66t66 28t66 -28t28 -66zM291 297q0 -38 -28 -66t-66 -28t-66.5 28t-28.5 66t28.5 66t66.5 28t66 -28t28 -66zM494 94q0 -38 -28.5 -66t-66.5 -28t-66 28t-28 66t28 66t66 28t66.5 -28t28.5 -66z" />
    <glyph glyph-name="quotesingle" unicode="'" horiz-adv-x="591" 
d="M494 1311q0 -38 -28.5 -66t-66.5 -28t-66 28t-28 66t28 66t66 28t66.5 -28t28.5 -66zM291 1311q0 -38 -28 -66t-66 -28t-66.5 28t-28.5 66t28.5 66t66.5 28t66 -28t28 -66zM494 1108q0 -38 -28.5 -66t-66.5 -28t-66 28t-28 66t28 66t66 28t66.5 -28t28.5 -66zM291 1108
q0 -38 -28 -66t-66 -28t-66.5 28t-28.5 66t28.5 66t66.5 28t66 -28t28 -66zM494 905q0 -38 -28.5 -66t-66.5 -28t-66 28t-28 66t28 66t66 28t66.5 -28t28.5 -66zM291 905q0 -38 -28 -66t-66 -28t-66.5 28t-28.5 66t28.5 66t66.5 28t66 -28t28 -66z" />
    <glyph glyph-name="parenleft" unicode="(" horiz-adv-x="1001" 
d="M899 1311q0 -38 -28 -66t-66 -28q-39 0 -66.5 27.5t-27.5 66.5t27.5 66.5t66.5 27.5q38 0 66 -28t28 -66zM696 1311q0 -38 -28 -66t-66 -28q-39 0 -66.5 27.5t-27.5 66.5t27.5 66.5t66.5 27.5q38 0 66 -28t28 -66zM696 1108q0 -38 -28 -66t-66 -28t-66 28t-28 66t28 66
t66 28t66 -28t28 -66zM494 1108q0 -38 -28.5 -66t-66.5 -28t-66 28t-28 66t28 66t66 28t66.5 -28t28.5 -66zM494 905q0 -38 -28.5 -66t-66.5 -28t-66 28t-28 66t28 66t66 28t66.5 -28t28.5 -66zM291 905q0 -38 -28 -66t-66 -28t-66.5 28t-28.5 66t28.5 66t66.5 28t66 -28
t28 -66zM494 702q0 -38 -28.5 -66t-66.5 -28t-66 28t-28 66t28 66.5t66 28.5t66.5 -28.5t28.5 -66.5zM291 702q0 -38 -28 -66t-66 -28t-66.5 28t-28.5 66t28.5 66.5t66.5 28.5t66 -28.5t28 -66.5zM494 500q0 -38 -28.5 -66t-66.5 -28t-66 28t-28 66t28 66t66 28t66.5 -28
t28.5 -66zM696 297q0 -38 -28 -66t-66 -28t-66 28t-28 66t28 66t66 28t66 -28t28 -66zM899 94q0 -38 -28 -66t-66 -28q-39 0 -66.5 27.5t-27.5 66.5t27.5 66.5t66.5 27.5q38 0 66 -28t28 -66zM291 500q0 -38 -28 -66t-66 -28t-66.5 28t-28.5 66t28.5 66t66.5 28t66 -28
t28 -66zM494 297q0 -38 -28.5 -66t-66.5 -28t-66 28t-28 66t28 66t66 28t66.5 -28t28.5 -66zM696 94q0 -38 -28 -66t-66 -28q-39 0 -66.5 27.5t-27.5 66.5t27.5 66.5t66.5 27.5q38 0 66 -28t28 -66z" />
    <glyph glyph-name="parenright" unicode=")" horiz-adv-x="1001" 
d="M494 1311q0 -38 -28.5 -66t-66.5 -28t-66 28t-28 66t28 66t66 28t66.5 -28t28.5 -66zM696 1108q0 -38 -28 -66t-66 -28t-66 28t-28 66t28 66t66 28t66 -28t28 -66zM899 905q0 -38 -28 -66t-66 -28q-39 0 -66.5 27.5t-27.5 66.5t27.5 66.5t66.5 27.5q38 0 66 -28t28 -66z
M291 1311q0 -38 -28 -66t-66 -28t-66.5 28t-28.5 66t28.5 66t66.5 28t66 -28t28 -66zM494 1108q0 -38 -28.5 -66t-66.5 -28t-66 28t-28 66t28 66t66 28t66.5 -28t28.5 -66zM696 905q0 -38 -28 -66t-66 -28q-39 0 -66.5 27.5t-27.5 66.5t27.5 66.5t66.5 27.5q38 0 66 -28
t28 -66zM899 702q0 -38 -28 -66t-66 -28q-39 0 -66.5 27.5t-27.5 66.5t27.5 67t66.5 28q38 0 66 -28.5t28 -66.5zM696 702q0 -38 -28 -66t-66 -28q-39 0 -66.5 27.5t-27.5 66.5t27.5 67t66.5 28q38 0 66 -28.5t28 -66.5zM899 500q0 -38 -28 -66t-66 -28q-39 0 -66.5 27.5
t-27.5 66.5t27.5 66.5t66.5 27.5q38 0 66 -28t28 -66zM696 500q0 -38 -28 -66t-66 -28q-39 0 -66.5 27.5t-27.5 66.5t27.5 66.5t66.5 27.5q38 0 66 -28t28 -66zM696 297q0 -38 -28 -66t-66 -28t-66 28t-28 66t28 66t66 28t66 -28t28 -66zM494 297q0 -38 -28.5 -66t-66.5 -28
t-66 28t-28 66t28 66t66 28t66.5 -28t28.5 -66zM494 94q0 -38 -28.5 -66t-66.5 -28t-66 28t-28 66t28 66t66 28t66.5 -28t28.5 -66zM291 94q0 -38 -28 -66t-66 -28t-66.5 28t-28.5 66t28.5 66t66.5 28t66 -28t28 -66z" />
    <glyph glyph-name="asterisk" unicode="*" 
d="M1305 1311q0 -38 -28.5 -66t-66.5 -28q-39 0 -66.5 27.5t-27.5 66.5t27.5 66.5t66.5 27.5q38 0 66.5 -28t28.5 -66zM1102 1311q0 -38 -28 -66t-66 -28q-40 0 -67.5 27.5t-27.5 66.5t27.5 66.5t67.5 27.5q38 0 66 -28t28 -66zM1102 1108q0 -38 -28 -66t-66 -28
q-40 0 -67.5 28t-27.5 66t27.5 66t67.5 28q38 0 66 -28t28 -66zM899 1108q0 -38 -28 -66t-66 -28q-39 0 -66.5 27.5t-27.5 66.5t27.5 66.5t66.5 27.5q38 0 66 -28t28 -66zM494 1311q0 -38 -28.5 -66t-66.5 -28t-66 28t-28 66t28 66t66 28t66.5 -28t28.5 -66zM696 1108
q0 -38 -28 -66t-66 -28t-66 28t-28 66t28 66t66 28t66 -28t28 -66zM899 905q0 -38 -28 -66t-66 -28t-66 28t-28 66t28 66t66 28t66 -28t28 -66zM1102 702q0 -38 -28 -66t-66 -28q-40 0 -67.5 28t-27.5 66q0 39 28 67t67 28q38 0 66 -28.5t28 -66.5zM1305 500
q0 -38 -28.5 -66t-66.5 -28q-39 0 -66.5 27.5t-27.5 66.5t27.5 66.5t66.5 27.5q38 0 66.5 -28t28.5 -66zM291 1311q0 -38 -28 -66t-66 -28t-66.5 28t-28.5 66t28.5 66t66.5 28t66 -28t28 -66zM494 1108q0 -38 -28.5 -66t-66.5 -28t-66 28t-28 66t28 66t66 28t66.5 -28
t28.5 -66zM696 905q0 -38 -28 -66t-66 -28t-66 28t-28 66t28 66t66 28t66 -28t28 -66zM899 702q0 -38 -28 -66t-66 -28q-39 0 -66.5 27.5t-27.5 66.5t27.5 67t66.5 28q38 0 66 -28.5t28 -66.5zM1102 500q0 -38 -28 -66t-66 -28q-40 0 -67.5 28t-27.5 66t27.5 66t67.5 28
q38 0 66 -28t28 -66zM696 702q0 -38 -28 -66t-66 -28t-66 28t-28 66t28 66.5t66 28.5t66 -28.5t28 -66.5zM494 702q0 -38 -28.5 -66t-66.5 -28t-66 28t-28 66t28 66.5t66 28.5t66.5 -28.5t28.5 -66.5zM494 500q0 -38 -28.5 -66t-66.5 -28t-66 28t-28 66t28 66t66 28
t66.5 -28t28.5 -66zM291 500q0 -38 -28 -66t-66 -28t-66.5 28t-28.5 66t28.5 66t66.5 28t66 -28t28 -66z" />
    <glyph glyph-name="plus" unicode="+" 
d="M899 1108q0 -38 -28 -66t-66 -28t-66 28t-28 66t28 66t66 28t66 -28t28 -66zM1305 702q0 -38 -28.5 -66t-66.5 -28q-39 0 -66.5 27.5t-27.5 66.5t27.5 67t66.5 28q38 0 66.5 -28.5t28.5 -66.5zM696 1108q0 -38 -28 -66t-66 -28t-66 28t-28 66t28 66t66 28t66 -28t28 -66z
M899 905q0 -38 -28 -66t-66 -28t-66 28t-28 66t28 66t66 28t66 -28t28 -66zM1102 702q0 -38 -28 -66t-66 -28q-40 0 -67.5 28t-27.5 66q0 39 28 67t67 28q38 0 66 -28.5t28 -66.5zM696 905q0 -38 -28 -66t-66 -28t-66 28t-28 66t28 66t66 28t66 -28t28 -66zM899 702
q0 -38 -28 -66t-66 -28q-39 0 -66.5 27.5t-27.5 66.5t27.5 67t66.5 28q38 0 66 -28.5t28 -66.5zM696 702q0 -38 -28 -66t-66 -28t-66 28t-28 66t28 66.5t66 28.5t66 -28.5t28 -66.5zM899 500q0 -38 -28 -66t-66 -28t-66 28t-28 66t28 66t66 28t66 -28t28 -66zM494 702
q0 -38 -28.5 -66t-66.5 -28t-66 28t-28 66t28 66.5t66 28.5t66.5 -28.5t28.5 -66.5zM696 500q0 -38 -28 -66t-66 -28t-66 28t-28 66t28 66t66 28t66 -28t28 -66zM899 297q0 -38 -28 -66t-66 -28t-66 28t-28 66t28 66t66 28t66 -28t28 -66zM291 702q0 -38 -28 -66t-66 -28
t-66.5 28t-28.5 66t28.5 66.5t66.5 28.5t66 -28.5t28 -66.5zM696 297q0 -38 -28 -66t-66 -28t-66 28t-28 66t28 66t66 28t66 -28t28 -66z" />
    <glyph glyph-name="comma" unicode="," horiz-adv-x="1001" 
d="M696 297q0 -38 -28 -66t-66 -28t-66 28t-28 66t28 66t66 28t66 -28t28 -66zM494 297q0 -38 -28.5 -66t-66.5 -28t-66 28t-28 66t28 66t66 28t66.5 -28t28.5 -66zM696 94q0 -38 -28 -66t-66 -28t-66 28t-28 66t28 66t66 28t66 -28t28 -66zM494 94q0 -38 -28.5 -66
t-66.5 -28t-66 28t-28 66t28 66t66 28t66.5 -28t28.5 -66zM494 -109q0 -38 -28.5 -66t-66.5 -28t-66 28t-28 66q0 39 27.5 67t66.5 28t67 -28t28 -67zM291 -109q0 -38 -28 -66t-66 -28t-66.5 28t-28.5 66q0 39 28 67t67 28t66.5 -28t27.5 -67z" />
    <glyph glyph-name="hyphen" unicode="-" horiz-adv-x="1204" 
d="M1102 702q0 -38 -28 -66t-66 -28q-40 0 -67.5 28t-27.5 66q0 39 28 67t67 28q38 0 66 -28.5t28 -66.5zM899 702q0 -38 -28 -66t-66 -28q-39 0 -66.5 27.5t-27.5 66.5t27.5 67t66.5 28q38 0 66 -28.5t28 -66.5zM696 702q0 -38 -28 -66t-66 -28q-39 0 -66.5 27.5
t-27.5 66.5t27.5 67t66.5 28q38 0 66 -28.5t28 -66.5zM494 702q0 -38 -28.5 -66t-66.5 -28t-66 28t-28 66t28 66.5t66 28.5t66.5 -28.5t28.5 -66.5zM291 702q0 -38 -28 -66t-66 -28t-66.5 28t-28.5 66t28.5 66.5t66.5 28.5t66 -28.5t28 -66.5z" />
    <glyph glyph-name="period" unicode="." horiz-adv-x="1001" 
d="M696 297q0 -38 -28 -66t-66 -28t-66 28t-28 66t28 66t66 28t66 -28t28 -66zM494 297q0 -38 -28.5 -66t-66.5 -28t-66 28t-28 66t28 66t66 28t66.5 -28t28.5 -66zM696 94q0 -38 -28 -66t-66 -28t-66 28t-28 66t28 66t66 28t66 -28t28 -66zM291 297q0 -38 -28 -66t-66 -28
t-66.5 28t-28.5 66t28.5 66t66.5 28t66 -28t28 -66zM494 94q0 -38 -28.5 -66t-66.5 -28t-66 28t-28 66t28 66t66 28t66.5 -28t28.5 -66zM291 94q0 -38 -28 -66t-66 -28t-66.5 28t-28.5 66t28.5 66t66.5 28t66 -28t28 -66z" />
    <glyph glyph-name="slash" unicode="/" horiz-adv-x="1001" 
d="M899 1311q0 -38 -28 -66t-66 -28q-39 0 -66.5 27.5t-27.5 66.5t27.5 66.5t66.5 27.5q38 0 66 -28t28 -66zM696 1311q0 -38 -28 -66t-66 -28q-39 0 -66.5 27.5t-27.5 66.5t27.5 66.5t66.5 27.5q38 0 66 -28t28 -66zM899 1108q0 -38 -28 -66t-66 -28q-39 0 -66.5 27.5
t-27.5 66.5t27.5 66.5t66.5 27.5q38 0 66 -28t28 -66zM696 1108q0 -38 -28 -66t-66 -28q-39 0 -66.5 27.5t-27.5 66.5t27.5 66.5t66.5 27.5q38 0 66 -28t28 -66zM696 905q0 -38 -28 -66t-66 -28t-66 28t-28 66t28 66t66 28t66 -28t28 -66zM494 905q0 -38 -28.5 -66
t-66.5 -28t-66 28t-28 66t28 66t66 28t66.5 -28t28.5 -66zM696 702q0 -38 -28 -66t-66 -28t-66 28t-28 66t28 66.5t66 28.5t66 -28.5t28 -66.5zM494 702q0 -38 -28.5 -66t-66.5 -28t-66 28t-28 66t28 66.5t66 28.5t66.5 -28.5t28.5 -66.5zM696 500q0 -38 -28 -66t-66 -28
t-66 28t-28 66t28 66t66 28t66 -28t28 -66zM494 500q0 -38 -28.5 -66t-66.5 -28t-66 28t-28 66t28 66t66 28t66.5 -28t28.5 -66zM494 297q0 -38 -28.5 -66t-66.5 -28t-66 28t-28 66t28 66t66 28t66.5 -28t28.5 -66zM291 297q0 -38 -28 -66t-66 -28t-66.5 28t-28.5 66
t28.5 66t66.5 28t66 -28t28 -66zM494 94q0 -38 -28.5 -66t-66.5 -28t-66 28t-28 66t28 66t66 28t66.5 -28t28.5 -66zM291 94q0 -38 -28 -66t-66 -28t-66.5 28t-28.5 66t28.5 66t66.5 28t66 -28t28 -66z" />
    <glyph glyph-name="zero" unicode="0" 
d="M1102 1311q0 -38 -28 -66t-66 -28q-40 0 -67.5 27.5t-27.5 66.5t27.5 66.5t67.5 27.5q38 0 66 -28t28 -66zM1305 1108q0 -38 -28.5 -66t-66.5 -28q-39 0 -66.5 27.5t-27.5 66.5t27.5 66.5t66.5 27.5q38 0 66.5 -28t28.5 -66zM899 1311q0 -38 -28 -66t-66 -28
q-39 0 -66.5 27.5t-27.5 66.5t27.5 66.5t66.5 27.5q38 0 66 -28t28 -66zM1102 1108q0 -38 -28 -66t-66 -28q-40 0 -67.5 28t-27.5 66t27.5 66t67.5 28q38 0 66 -28t28 -66zM1305 905q0 -38 -28.5 -66t-66.5 -28q-39 0 -66.5 27.5t-27.5 66.5t27.5 66.5t66.5 27.5
q38 0 66.5 -28t28.5 -66zM696 1311q0 -38 -28 -66t-66 -28t-66 28t-28 66t28 66t66 28t66 -28t28 -66zM1102 905q0 -38 -28 -66t-66 -28q-40 0 -67.5 27.5t-27.5 66.5t27.5 66.5t67.5 27.5q38 0 66 -28t28 -66zM1305 702q0 -38 -28.5 -66t-66.5 -28q-39 0 -66.5 27.5
t-27.5 66.5t27.5 67t66.5 28q38 0 66.5 -28.5t28.5 -66.5zM494 1311q0 -38 -28.5 -66t-66.5 -28t-66 28t-28 66t28 66t66 28t66.5 -28t28.5 -66zM899 905q0 -38 -28 -66t-66 -28q-39 0 -66.5 27.5t-27.5 66.5t27.5 66.5t66.5 27.5q38 0 66 -28t28 -66zM1102 702
q0 -38 -28 -66t-66 -28q-40 0 -67.5 28t-27.5 66q0 39 28 67t67 28q38 0 66 -28.5t28 -66.5zM1305 500q0 -38 -28.5 -66t-66.5 -28q-39 0 -66.5 27.5t-27.5 66.5t27.5 66.5t66.5 27.5q38 0 66.5 -28t28.5 -66zM494 1108q0 -38 -28.5 -66t-66.5 -28t-66 28t-28 66t28 66
t66 28t66.5 -28t28.5 -66zM899 702q0 -38 -28 -66t-66 -28t-66 28t-28 66t28 66.5t66 28.5t66 -28.5t28 -66.5zM1102 500q0 -38 -28 -66t-66 -28q-40 0 -67.5 28t-27.5 66t27.5 66t67.5 28q38 0 66 -28t28 -66zM1305 297q0 -38 -28.5 -66t-66.5 -28q-39 0 -66.5 27.5
t-27.5 66.5t27.5 66.5t66.5 27.5q38 0 66.5 -28t28.5 -66zM291 1108q0 -38 -28 -66t-66 -28t-66.5 28t-28.5 66t28.5 66t66.5 28t66 -28t28 -66zM494 905q0 -38 -28.5 -66t-66.5 -28t-66 28t-28 66t28 66t66 28t66.5 -28t28.5 -66zM696 702q0 -38 -28 -66t-66 -28t-66 28
t-28 66t28 66.5t66 28.5t66 -28.5t28 -66.5zM1102 297q0 -38 -28 -66t-66 -28q-40 0 -67.5 27.5t-27.5 66.5t27.5 66.5t67.5 27.5q38 0 66 -28t28 -66zM291 905q0 -38 -28 -66t-66 -28t-66.5 28t-28.5 66t28.5 66t66.5 28t66 -28t28 -66zM494 702q0 -38 -28.5 -66t-66.5 -28
t-66 28t-28 66t28 66.5t66 28.5t66.5 -28.5t28.5 -66.5zM696 500q0 -38 -28 -66t-66 -28t-66 28t-28 66t28 66t66 28t66 -28t28 -66zM1102 94q0 -38 -28 -66t-66 -28q-40 0 -67.5 28t-27.5 66t27.5 66t67.5 28q38 0 66 -28t28 -66zM291 702q0 -38 -28 -66t-66 -28t-66.5 28
t-28.5 66t28.5 66.5t66.5 28.5t66 -28.5t28 -66.5zM494 500q0 -38 -28.5 -66t-66.5 -28t-66 28t-28 66t28 66t66 28t66.5 -28t28.5 -66zM899 94q0 -38 -28 -66t-66 -28q-39 0 -66.5 27.5t-27.5 66.5t27.5 66.5t66.5 27.5q38 0 66 -28t28 -66zM291 500q0 -38 -28 -66t-66 -28
t-66.5 28t-28.5 66t28.5 66t66.5 28t66 -28t28 -66zM494 297q0 -38 -28.5 -66t-66.5 -28t-66 28t-28 66t28 66t66 28t66.5 -28t28.5 -66zM696 94q0 -38 -28 -66t-66 -28t-66 28t-28 66t28 66t66 28t66 -28t28 -66zM291 297q0 -38 -28 -66t-66 -28t-66.5 28t-28.5 66t28.5 66
t66.5 28t66 -28t28 -66zM494 94q0 -38 -28.5 -66t-66.5 -28t-66 28t-28 66t28 66t66 28t66.5 -28t28.5 -66z" />
    <glyph glyph-name="one" unicode="1" 
d="M899 1311q0 -38 -28 -66t-66 -28t-66 28t-28 66t28 66t66 28t66 -28t28 -66zM696 1311q0 -38 -28 -66t-66 -28t-66 28t-28 66t28 66t66 28t66 -28t28 -66zM899 1108q0 -38 -28 -66t-66 -28t-66 28t-28 66t28 66t66 28t66 -28t28 -66zM696 1108q0 -38 -28 -66t-66 -28
t-66 28t-28 66t28 66t66 28t66 -28t28 -66zM899 905q0 -38 -28 -66t-66 -28t-66 28t-28 66t28 66t66 28t66 -28t28 -66zM494 1108q0 -38 -28.5 -66t-66.5 -28t-66 28t-28 66t28 66t66 28t66.5 -28t28.5 -66zM696 905q0 -38 -28 -66t-66 -28t-66 28t-28 66t28 66t66 28
t66 -28t28 -66zM899 702q0 -38 -28 -66t-66 -28t-66 28t-28 66t28 66.5t66 28.5t66 -28.5t28 -66.5zM494 905q0 -38 -28.5 -66t-66.5 -28t-66 28t-28 66t28 66t66 28t66.5 -28t28.5 -66zM696 702q0 -38 -28 -66t-66 -28t-66 28t-28 66t28 66.5t66 28.5t66 -28.5t28 -66.5z
M899 500q0 -38 -28 -66t-66 -28t-66 28t-28 66t28 66t66 28t66 -28t28 -66zM1305 94q0 -38 -28.5 -66t-66.5 -28q-39 0 -66.5 27.5t-27.5 66.5t27.5 66.5t66.5 27.5q38 0 66.5 -28t28.5 -66zM291 905q0 -38 -28 -66t-66 -28t-66.5 28t-28.5 66t28.5 66t66.5 28t66 -28
t28 -66zM696 500q0 -38 -28 -66t-66 -28t-66 28t-28 66t28 66t66 28t66 -28t28 -66zM899 297q0 -38 -28 -66t-66 -28t-66 28t-28 66t28 66t66 28t66 -28t28 -66zM1102 94q0 -38 -28 -66t-66 -28q-40 0 -67.5 28t-27.5 66t27.5 66t67.5 28q38 0 66 -28t28 -66zM696 297
q0 -38 -28 -66t-66 -28t-66 28t-28 66t28 66t66 28t66 -28t28 -66zM899 94q0 -38 -28 -66t-66 -28q-39 0 -66.5 27.5t-27.5 66.5t27.5 66.5t66.5 27.5q38 0 66 -28t28 -66zM696 94q0 -38 -28 -66t-66 -28t-66 28t-28 66t28 66t66 28t66 -28t28 -66zM494 94q0 -38 -28.5 -66
t-66.5 -28t-66 28t-28 66t28 66t66 28t66.5 -28t28.5 -66zM291 94q0 -38 -28 -66t-66 -28t-66.5 28t-28.5 66t28.5 66t66.5 28t66 -28t28 -66z" />
    <glyph glyph-name="two" unicode="2" 
d="M1102 1311q0 -38 -28 -66t-66 -28q-40 0 -67.5 27.5t-27.5 66.5t27.5 66.5t67.5 27.5q38 0 66 -28t28 -66zM1305 1108q0 -38 -28.5 -66t-66.5 -28q-39 0 -66.5 27.5t-27.5 66.5t27.5 66.5t66.5 27.5q38 0 66.5 -28t28.5 -66zM899 1311q0 -38 -28 -66t-66 -28
q-39 0 -66.5 27.5t-27.5 66.5t27.5 66.5t66.5 27.5q38 0 66 -28t28 -66zM1102 1108q0 -38 -28 -66t-66 -28q-40 0 -67.5 28t-27.5 66t27.5 66t67.5 28q38 0 66 -28t28 -66zM1305 905q0 -38 -28.5 -66t-66.5 -28q-39 0 -66.5 27.5t-27.5 66.5t27.5 66.5t66.5 27.5
q38 0 66.5 -28t28.5 -66zM696 1311q0 -38 -28 -66t-66 -28t-66 28t-28 66t28 66t66 28t66 -28t28 -66zM1102 905q0 -38 -28 -66t-66 -28q-40 0 -67.5 27.5t-27.5 66.5t27.5 66.5t67.5 27.5q38 0 66 -28t28 -66zM494 1311q0 -38 -28.5 -66t-66.5 -28t-66 28t-28 66t28 66
t66 28t66.5 -28t28.5 -66zM1102 702q0 -38 -28 -66t-66 -28q-40 0 -67.5 28t-27.5 66q0 39 28 67t67 28q38 0 66 -28.5t28 -66.5zM494 1108q0 -38 -28.5 -66t-66.5 -28t-66 28t-28 66t28 66t66 28t66.5 -28t28.5 -66zM899 702q0 -38 -28 -66t-66 -28q-39 0 -66.5 27.5
t-27.5 66.5t27.5 67t66.5 28q38 0 66 -28.5t28 -66.5zM291 1108q0 -38 -28 -66t-66 -28t-66.5 28t-28.5 66t28.5 66t66.5 28t66 -28t28 -66zM696 702q0 -38 -28 -66t-66 -28t-66 28t-28 66t28 66.5t66 28.5t66 -28.5t28 -66.5zM1305 94q0 -38 -28.5 -66t-66.5 -28
q-39 0 -66.5 27.5t-27.5 66.5t27.5 66.5t66.5 27.5q38 0 66.5 -28t28.5 -66zM696 500q0 -38 -28 -66t-66 -28t-66 28t-28 66t28 66t66 28t66 -28t28 -66zM1102 94q0 -38 -28 -66t-66 -28q-40 0 -67.5 28t-27.5 66t27.5 66t67.5 28q38 0 66 -28t28 -66zM494 500
q0 -38 -28.5 -66t-66.5 -28t-66 28t-28 66t28 66t66 28t66.5 -28t28.5 -66zM899 94q0 -38 -28 -66t-66 -28q-39 0 -66.5 27.5t-27.5 66.5t27.5 66.5t66.5 27.5q38 0 66 -28t28 -66zM494 297q0 -38 -28.5 -66t-66.5 -28t-66 28t-28 66t28 66t66 28t66.5 -28t28.5 -66zM696 94
q0 -38 -28 -66t-66 -28t-66 28t-28 66t28 66t66 28t66 -28t28 -66zM291 297q0 -38 -28 -66t-66 -28t-66.5 28t-28.5 66t28.5 66t66.5 28t66 -28t28 -66zM494 94q0 -38 -28.5 -66t-66.5 -28t-66 28t-28 66t28 66t66 28t66.5 -28t28.5 -66zM291 94q0 -38 -28 -66t-66 -28
t-66.5 28t-28.5 66t28.5 66t66.5 28t66 -28t28 -66z" />
    <glyph glyph-name="three" unicode="3" 
d="M1102 1311q0 -38 -28 -66t-66 -28q-40 0 -67.5 27.5t-27.5 66.5t27.5 66.5t67.5 27.5q38 0 66 -28t28 -66zM1305 1108q0 -38 -28.5 -66t-66.5 -28q-39 0 -66.5 27.5t-27.5 66.5t27.5 66.5t66.5 27.5q38 0 66.5 -28t28.5 -66zM899 1311q0 -38 -28 -66t-66 -28
q-39 0 -66.5 27.5t-27.5 66.5t27.5 66.5t66.5 27.5q38 0 66 -28t28 -66zM1102 1108q0 -38 -28 -66t-66 -28q-40 0 -67.5 28t-27.5 66t27.5 66t67.5 28q38 0 66 -28t28 -66zM1305 905q0 -38 -28.5 -66t-66.5 -28q-39 0 -66.5 27.5t-27.5 66.5t27.5 66.5t66.5 27.5
q38 0 66.5 -28t28.5 -66zM696 1311q0 -38 -28 -66t-66 -28t-66 28t-28 66t28 66t66 28t66 -28t28 -66zM1102 905q0 -38 -28 -66t-66 -28q-40 0 -67.5 27.5t-27.5 66.5t27.5 66.5t67.5 27.5q38 0 66 -28t28 -66zM494 1311q0 -38 -28.5 -66t-66.5 -28t-66 28t-28 66t28 66
t66 28t66.5 -28t28.5 -66zM1102 702q0 -38 -28 -66t-66 -28q-40 0 -67.5 28t-27.5 66q0 39 28 67t67 28q38 0 66 -28.5t28 -66.5zM1305 500q0 -38 -28.5 -66t-66.5 -28q-39 0 -66.5 27.5t-27.5 66.5t27.5 66.5t66.5 27.5q38 0 66.5 -28t28.5 -66zM494 1108q0 -38 -28.5 -66
t-66.5 -28t-66 28t-28 66t28 66t66 28t66.5 -28t28.5 -66zM899 702q0 -38 -28 -66t-66 -28q-39 0 -66.5 27.5t-27.5 66.5t27.5 67t66.5 28q38 0 66 -28.5t28 -66.5zM1102 500q0 -38 -28 -66t-66 -28q-40 0 -67.5 28t-27.5 66t27.5 66t67.5 28q38 0 66 -28t28 -66zM1305 297
q0 -38 -28.5 -66t-66.5 -28q-39 0 -66.5 27.5t-27.5 66.5t27.5 66.5t66.5 27.5q38 0 66.5 -28t28.5 -66zM291 1108q0 -38 -28 -66t-66 -28t-66.5 28t-28.5 66t28.5 66t66.5 28t66 -28t28 -66zM696 702q0 -38 -28 -66t-66 -28t-66 28t-28 66t28 66.5t66 28.5t66 -28.5
t28 -66.5zM1102 297q0 -38 -28 -66t-66 -28q-40 0 -67.5 27.5t-27.5 66.5t27.5 66.5t67.5 27.5q38 0 66 -28t28 -66zM1102 94q0 -38 -28 -66t-66 -28q-40 0 -67.5 28t-27.5 66t27.5 66t67.5 28q38 0 66 -28t28 -66zM899 94q0 -38 -28 -66t-66 -28q-39 0 -66.5 27.5
t-27.5 66.5t27.5 66.5t66.5 27.5q38 0 66 -28t28 -66zM494 297q0 -38 -28.5 -66t-66.5 -28t-66 28t-28 66t28 66t66 28t66.5 -28t28.5 -66zM696 94q0 -38 -28 -66t-66 -28t-66 28t-28 66t28 66t66 28t66 -28t28 -66zM291 297q0 -38 -28 -66t-66 -28t-66.5 28t-28.5 66
t28.5 66t66.5 28t66 -28t28 -66zM494 94q0 -38 -28.5 -66t-66.5 -28t-66 28t-28 66t28 66t66 28t66.5 -28t28.5 -66z" />
    <glyph glyph-name="four" unicode="4" 
d="M1102 1311q0 -38 -28 -66t-66 -28q-40 0 -67.5 27.5t-27.5 66.5t27.5 66.5t67.5 27.5q38 0 66 -28t28 -66zM899 1311q0 -38 -28 -66t-66 -28q-39 0 -66.5 27.5t-27.5 66.5t27.5 66.5t66.5 27.5q38 0 66 -28t28 -66zM1102 1108q0 -38 -28 -66t-66 -28q-40 0 -67.5 28
t-27.5 66t27.5 66t67.5 28q38 0 66 -28t28 -66zM899 1108q0 -38 -28 -66t-66 -28q-39 0 -66.5 27.5t-27.5 66.5t27.5 66.5t66.5 27.5q38 0 66 -28t28 -66zM1102 905q0 -38 -28 -66t-66 -28q-40 0 -67.5 27.5t-27.5 66.5t27.5 66.5t67.5 27.5q38 0 66 -28t28 -66zM696 1108
q0 -38 -28 -66t-66 -28t-66 28t-28 66t28 66t66 28t66 -28t28 -66zM899 905q0 -38 -28 -66t-66 -28q-39 0 -66.5 27.5t-27.5 66.5t27.5 66.5t66.5 27.5q38 0 66 -28t28 -66zM1102 702q0 -38 -28 -66t-66 -28q-40 0 -67.5 28t-27.5 66q0 39 28 67t67 28q38 0 66 -28.5
t28 -66.5zM1305 500q0 -38 -28.5 -66t-66.5 -28q-39 0 -66.5 27.5t-27.5 66.5t27.5 66.5t66.5 27.5q38 0 66.5 -28t28.5 -66zM696 905q0 -38 -28 -66t-66 -28t-66 28t-28 66t28 66t66 28t66 -28t28 -66zM899 702q0 -38 -28 -66t-66 -28q-39 0 -66.5 27.5t-27.5 66.5t27.5 67
t66.5 28q38 0 66 -28.5t28 -66.5zM1102 500q0 -38 -28 -66t-66 -28q-40 0 -67.5 28t-27.5 66t27.5 66t67.5 28q38 0 66 -28t28 -66zM494 905q0 -38 -28.5 -66t-66.5 -28t-66 28t-28 66t28 66t66 28t66.5 -28t28.5 -66zM899 500q0 -38 -28 -66t-66 -28q-39 0 -66.5 27.5
t-27.5 66.5t27.5 66.5t66.5 27.5q38 0 66 -28t28 -66zM1102 297q0 -38 -28 -66t-66 -28q-40 0 -67.5 27.5t-27.5 66.5t27.5 66.5t67.5 27.5q38 0 66 -28t28 -66zM494 702q0 -38 -28.5 -66t-66.5 -28t-66 28t-28 66t28 66.5t66 28.5t66.5 -28.5t28.5 -66.5zM696 500
q0 -38 -28 -66t-66 -28t-66 28t-28 66t28 66t66 28t66 -28t28 -66zM899 297q0 -38 -28 -66t-66 -28q-39 0 -66.5 27.5t-27.5 66.5t27.5 66.5t66.5 27.5q38 0 66 -28t28 -66zM1102 94q0 -38 -28 -66t-66 -28q-40 0 -67.5 28t-27.5 66t27.5 66t67.5 28q38 0 66 -28t28 -66z
M291 702q0 -38 -28 -66t-66 -28t-66.5 28t-28.5 66t28.5 66.5t66.5 28.5t66 -28.5t28 -66.5zM494 500q0 -38 -28.5 -66t-66.5 -28t-66 28t-28 66t28 66t66 28t66.5 -28t28.5 -66zM899 94q0 -38 -28 -66t-66 -28q-39 0 -66.5 27.5t-27.5 66.5t27.5 66.5t66.5 27.5
q38 0 66 -28t28 -66zM291 500q0 -38 -28 -66t-66 -28t-66.5 28t-28.5 66t28.5 66t66.5 28t66 -28t28 -66z" />
    <glyph glyph-name="five" unicode="5" 
d="M1305 1311q0 -38 -28.5 -66t-66.5 -28q-39 0 -66.5 27.5t-27.5 66.5t27.5 66.5t66.5 27.5q38 0 66.5 -28t28.5 -66zM1102 1311q0 -38 -28 -66t-66 -28q-40 0 -67.5 27.5t-27.5 66.5t27.5 66.5t67.5 27.5q38 0 66 -28t28 -66zM899 1311q0 -38 -28 -66t-66 -28
q-39 0 -66.5 27.5t-27.5 66.5t27.5 66.5t66.5 27.5q38 0 66 -28t28 -66zM696 1311q0 -38 -28 -66t-66 -28t-66 28t-28 66t28 66t66 28t66 -28t28 -66zM1102 905q0 -38 -28 -66t-66 -28q-40 0 -67.5 27.5t-27.5 66.5t27.5 66.5t67.5 27.5q38 0 66 -28t28 -66zM1305 702
q0 -38 -28.5 -66t-66.5 -28q-39 0 -66.5 27.5t-27.5 66.5t27.5 67t66.5 28q38 0 66.5 -28.5t28.5 -66.5zM494 1311q0 -38 -28.5 -66t-66.5 -28t-66 28t-28 66t28 66t66 28t66.5 -28t28.5 -66zM899 905q0 -38 -28 -66t-66 -28q-39 0 -66.5 27.5t-27.5 66.5t27.5 66.5
t66.5 27.5q38 0 66 -28t28 -66zM1102 702q0 -38 -28 -66t-66 -28q-40 0 -67.5 28t-27.5 66q0 39 28 67t67 28q38 0 66 -28.5t28 -66.5zM1305 500q0 -38 -28.5 -66t-66.5 -28q-39 0 -66.5 27.5t-27.5 66.5t27.5 66.5t66.5 27.5q38 0 66.5 -28t28.5 -66zM291 1311
q0 -38 -28 -66t-66 -28t-66.5 28t-28.5 66t28.5 66t66.5 28t66 -28t28 -66zM494 1108q0 -38 -28.5 -66t-66.5 -28t-66 28t-28 66t28 66t66 28t66.5 -28t28.5 -66zM696 905q0 -38 -28 -66t-66 -28t-66 28t-28 66t28 66t66 28t66 -28t28 -66zM1102 500q0 -38 -28 -66t-66 -28
q-40 0 -67.5 28t-27.5 66t27.5 66t67.5 28q38 0 66 -28t28 -66zM1305 297q0 -38 -28.5 -66t-66.5 -28q-39 0 -66.5 27.5t-27.5 66.5t27.5 66.5t66.5 27.5q38 0 66.5 -28t28.5 -66zM291 1108q0 -38 -28 -66t-66 -28t-66.5 28t-28.5 66t28.5 66t66.5 28t66 -28t28 -66z
M494 905q0 -38 -28.5 -66t-66.5 -28t-66 28t-28 66t28 66t66 28t66.5 -28t28.5 -66zM1102 297q0 -38 -28 -66t-66 -28q-40 0 -67.5 27.5t-27.5 66.5t27.5 66.5t67.5 27.5q38 0 66 -28t28 -66zM291 905q0 -38 -28 -66t-66 -28t-66.5 28t-28.5 66t28.5 66t66.5 28t66 -28
t28 -66zM1102 94q0 -38 -28 -66t-66 -28q-40 0 -67.5 28t-27.5 66t27.5 66t67.5 28q38 0 66 -28t28 -66zM899 94q0 -38 -28 -66t-66 -28q-39 0 -66.5 27.5t-27.5 66.5t27.5 66.5t66.5 27.5q38 0 66 -28t28 -66zM494 297q0 -38 -28.5 -66t-66.5 -28t-66 28t-28 66t28 66
t66 28t66.5 -28t28.5 -66zM696 94q0 -38 -28 -66t-66 -28t-66 28t-28 66t28 66t66 28t66 -28t28 -66zM291 297q0 -38 -28 -66t-66 -28t-66.5 28t-28.5 66t28.5 66t66.5 28t66 -28t28 -66zM494 94q0 -38 -28.5 -66t-66.5 -28t-66 28t-28 66t28 66t66 28t66.5 -28t28.5 -66z
" />
    <glyph glyph-name="six" unicode="6" 
d="M1102 1311q0 -38 -28 -66t-66 -28q-40 0 -67.5 27.5t-27.5 66.5t27.5 66.5t67.5 27.5q38 0 66 -28t28 -66zM899 1311q0 -38 -28 -66t-66 -28q-39 0 -66.5 27.5t-27.5 66.5t27.5 66.5t66.5 27.5q38 0 66 -28t28 -66zM696 1311q0 -38 -28 -66t-66 -28t-66 28t-28 66t28 66
t66 28t66 -28t28 -66zM696 1108q0 -38 -28 -66t-66 -28t-66 28t-28 66t28 66t66 28t66 -28t28 -66zM1102 702q0 -38 -28 -66t-66 -28q-40 0 -67.5 28t-27.5 66q0 39 28 67t67 28q38 0 66 -28.5t28 -66.5zM1305 500q0 -38 -28.5 -66t-66.5 -28q-39 0 -66.5 27.5t-27.5 66.5
t27.5 66.5t66.5 27.5q38 0 66.5 -28t28.5 -66zM494 1108q0 -38 -28.5 -66t-66.5 -28t-66 28t-28 66t28 66t66 28t66.5 -28t28.5 -66zM899 702q0 -38 -28 -66t-66 -28q-39 0 -66.5 27.5t-27.5 66.5t27.5 67t66.5 28q38 0 66 -28.5t28 -66.5zM1102 500q0 -38 -28 -66t-66 -28
q-40 0 -67.5 28t-27.5 66t27.5 66t67.5 28q38 0 66 -28t28 -66zM1305 297q0 -38 -28.5 -66t-66.5 -28q-39 0 -66.5 27.5t-27.5 66.5t27.5 66.5t66.5 27.5q38 0 66.5 -28t28.5 -66zM494 905q0 -38 -28.5 -66t-66.5 -28t-66 28t-28 66t28 66t66 28t66.5 -28t28.5 -66zM696 702
q0 -38 -28 -66t-66 -28t-66 28t-28 66t28 66.5t66 28.5t66 -28.5t28 -66.5zM1102 297q0 -38 -28 -66t-66 -28q-40 0 -67.5 27.5t-27.5 66.5t27.5 66.5t67.5 27.5q38 0 66 -28t28 -66zM291 905q0 -38 -28 -66t-66 -28t-66.5 28t-28.5 66t28.5 66t66.5 28t66 -28t28 -66z
M494 702q0 -38 -28.5 -66t-66.5 -28t-66 28t-28 66t28 66.5t66 28.5t66.5 -28.5t28.5 -66.5zM1102 94q0 -38 -28 -66t-66 -28q-40 0 -67.5 28t-27.5 66t27.5 66t67.5 28q38 0 66 -28t28 -66zM291 702q0 -38 -28 -66t-66 -28t-66.5 28t-28.5 66t28.5 66.5t66.5 28.5t66 -28.5
t28 -66.5zM494 500q0 -38 -28.5 -66t-66.5 -28t-66 28t-28 66t28 66t66 28t66.5 -28t28.5 -66zM899 94q0 -38 -28 -66t-66 -28q-39 0 -66.5 27.5t-27.5 66.5t27.5 66.5t66.5 27.5q38 0 66 -28t28 -66zM291 500q0 -38 -28 -66t-66 -28t-66.5 28t-28.5 66t28.5 66t66.5 28
t66 -28t28 -66zM494 297q0 -38 -28.5 -66t-66.5 -28t-66 28t-28 66t28 66t66 28t66.5 -28t28.5 -66zM696 94q0 -38 -28 -66t-66 -28t-66 28t-28 66t28 66t66 28t66 -28t28 -66zM291 297q0 -38 -28 -66t-66 -28t-66.5 28t-28.5 66t28.5 66t66.5 28t66 -28t28 -66zM494 94
q0 -38 -28.5 -66t-66.5 -28t-66 28t-28 66t28 66t66 28t66.5 -28t28.5 -66z" />
    <glyph glyph-name="seven" unicode="7" 
d="M1305 1311q0 -38 -28.5 -66t-66.5 -28q-39 0 -66.5 27.5t-27.5 66.5t27.5 66.5t66.5 27.5q38 0 66.5 -28t28.5 -66zM1102 1311q0 -38 -28 -66t-66 -28q-40 0 -67.5 27.5t-27.5 66.5t27.5 66.5t67.5 27.5q38 0 66 -28t28 -66zM1305 1108q0 -38 -28.5 -66t-66.5 -28
q-39 0 -66.5 27.5t-27.5 66.5t27.5 66.5t66.5 27.5q38 0 66.5 -28t28.5 -66zM899 1311q0 -38 -28 -66t-66 -28q-39 0 -66.5 27.5t-27.5 66.5t27.5 66.5t66.5 27.5q38 0 66 -28t28 -66zM1102 1108q0 -38 -28 -66t-66 -28q-40 0 -67.5 28t-27.5 66t27.5 66t67.5 28
q38 0 66 -28t28 -66zM696 1311q0 -38 -28 -66t-66 -28t-66 28t-28 66t28 66t66 28t66 -28t28 -66zM1102 905q0 -38 -28 -66t-66 -28q-40 0 -67.5 27.5t-27.5 66.5t27.5 66.5t67.5 27.5q38 0 66 -28t28 -66zM494 1311q0 -38 -28.5 -66t-66.5 -28t-66 28t-28 66t28 66t66 28
t66.5 -28t28.5 -66zM899 905q0 -38 -28 -66t-66 -28q-39 0 -66.5 27.5t-27.5 66.5t27.5 66.5t66.5 27.5q38 0 66 -28t28 -66zM291 1311q0 -38 -28 -66t-66 -28t-66.5 28t-28.5 66t28.5 66t66.5 28t66 -28t28 -66zM899 702q0 -38 -28 -66t-66 -28t-66 28t-28 66t28 66.5
t66 28.5t66 -28.5t28 -66.5zM696 702q0 -38 -28 -66t-66 -28t-66 28t-28 66t28 66.5t66 28.5t66 -28.5t28 -66.5zM696 500q0 -38 -28 -66t-66 -28t-66 28t-28 66t28 66t66 28t66 -28t28 -66zM494 500q0 -38 -28.5 -66t-66.5 -28t-66 28t-28 66t28 66t66 28t66.5 -28
t28.5 -66zM696 297q0 -38 -28 -66t-66 -28t-66 28t-28 66t28 66t66 28t66 -28t28 -66zM494 297q0 -38 -28.5 -66t-66.5 -28t-66 28t-28 66t28 66t66 28t66.5 -28t28.5 -66zM696 94q0 -38 -28 -66t-66 -28t-66 28t-28 66t28 66t66 28t66 -28t28 -66zM494 94q0 -38 -28.5 -66
t-66.5 -28t-66 28t-28 66t28 66t66 28t66.5 -28t28.5 -66z" />
    <glyph glyph-name="eight" unicode="8" 
d="M1102 1311q0 -38 -28 -66t-66 -28q-40 0 -67.5 27.5t-27.5 66.5t27.5 66.5t67.5 27.5q38 0 66 -28t28 -66zM1305 1108q0 -38 -28.5 -66t-66.5 -28q-39 0 -66.5 27.5t-27.5 66.5t27.5 66.5t66.5 27.5q38 0 66.5 -28t28.5 -66zM899 1311q0 -38 -28 -66t-66 -28
q-39 0 -66.5 27.5t-27.5 66.5t27.5 66.5t66.5 27.5q38 0 66 -28t28 -66zM1102 1108q0 -38 -28 -66t-66 -28q-40 0 -67.5 28t-27.5 66t27.5 66t67.5 28q38 0 66 -28t28 -66zM1305 905q0 -38 -28.5 -66t-66.5 -28q-39 0 -66.5 27.5t-27.5 66.5t27.5 66.5t66.5 27.5
q38 0 66.5 -28t28.5 -66zM696 1311q0 -38 -28 -66t-66 -28t-66 28t-28 66t28 66t66 28t66 -28t28 -66zM1102 905q0 -38 -28 -66t-66 -28q-40 0 -67.5 27.5t-27.5 66.5t27.5 66.5t67.5 27.5q38 0 66 -28t28 -66zM494 1311q0 -38 -28.5 -66t-66.5 -28t-66 28t-28 66t28 66
t66 28t66.5 -28t28.5 -66zM1102 702q0 -38 -28 -66t-66 -28q-40 0 -67.5 28t-27.5 66q0 39 28 67t67 28q38 0 66 -28.5t28 -66.5zM1305 500q0 -38 -28.5 -66t-66.5 -28q-39 0 -66.5 27.5t-27.5 66.5t27.5 66.5t66.5 27.5q38 0 66.5 -28t28.5 -66zM494 1108q0 -38 -28.5 -66
t-66.5 -28t-66 28t-28 66t28 66t66 28t66.5 -28t28.5 -66zM899 702q0 -38 -28 -66t-66 -28q-39 0 -66.5 27.5t-27.5 66.5t27.5 67t66.5 28q38 0 66 -28.5t28 -66.5zM1102 500q0 -38 -28 -66t-66 -28q-40 0 -67.5 28t-27.5 66t27.5 66t67.5 28q38 0 66 -28t28 -66zM1305 297
q0 -38 -28.5 -66t-66.5 -28q-39 0 -66.5 27.5t-27.5 66.5t27.5 66.5t66.5 27.5q38 0 66.5 -28t28.5 -66zM291 1108q0 -38 -28 -66t-66 -28t-66.5 28t-28.5 66t28.5 66t66.5 28t66 -28t28 -66zM494 905q0 -38 -28.5 -66t-66.5 -28t-66 28t-28 66t28 66t66 28t66.5 -28
t28.5 -66zM696 702q0 -38 -28 -66t-66 -28t-66 28t-28 66t28 66.5t66 28.5t66 -28.5t28 -66.5zM1102 297q0 -38 -28 -66t-66 -28q-40 0 -67.5 27.5t-27.5 66.5t27.5 66.5t67.5 27.5q38 0 66 -28t28 -66zM291 905q0 -38 -28 -66t-66 -28t-66.5 28t-28.5 66t28.5 66t66.5 28
t66 -28t28 -66zM494 702q0 -38 -28.5 -66t-66.5 -28t-66 28t-28 66t28 66.5t66 28.5t66.5 -28.5t28.5 -66.5zM1102 94q0 -38 -28 -66t-66 -28q-40 0 -67.5 28t-27.5 66t27.5 66t67.5 28q38 0 66 -28t28 -66zM494 500q0 -38 -28.5 -66t-66.5 -28t-66 28t-28 66t28 66t66 28
t66.5 -28t28.5 -66zM899 94q0 -38 -28 -66t-66 -28q-39 0 -66.5 27.5t-27.5 66.5t27.5 66.5t66.5 27.5q38 0 66 -28t28 -66zM291 500q0 -38 -28 -66t-66 -28t-66.5 28t-28.5 66t28.5 66t66.5 28t66 -28t28 -66zM494 297q0 -38 -28.5 -66t-66.5 -28t-66 28t-28 66t28 66
t66 28t66.5 -28t28.5 -66zM696 94q0 -38 -28 -66t-66 -28t-66 28t-28 66t28 66t66 28t66 -28t28 -66zM291 297q0 -38 -28 -66t-66 -28t-66.5 28t-28.5 66t28.5 66t66.5 28t66 -28t28 -66zM494 94q0 -38 -28.5 -66t-66.5 -28t-66 28t-28 66t28 66t66 28t66.5 -28t28.5 -66z
" />
    <glyph glyph-name="nine" unicode="9" 
d="M1102 1311q0 -38 -28 -66t-66 -28q-40 0 -67.5 27.5t-27.5 66.5t27.5 66.5t67.5 27.5q38 0 66 -28t28 -66zM1305 1108q0 -38 -28.5 -66t-66.5 -28q-39 0 -66.5 27.5t-27.5 66.5t27.5 66.5t66.5 27.5q38 0 66.5 -28t28.5 -66zM899 1311q0 -38 -28 -66t-66 -28
q-39 0 -66.5 27.5t-27.5 66.5t27.5 66.5t66.5 27.5q38 0 66 -28t28 -66zM1102 1108q0 -38 -28 -66t-66 -28q-40 0 -67.5 28t-27.5 66t27.5 66t67.5 28q38 0 66 -28t28 -66zM1305 905q0 -38 -28.5 -66t-66.5 -28q-39 0 -66.5 27.5t-27.5 66.5t27.5 66.5t66.5 27.5
q38 0 66.5 -28t28.5 -66zM696 1311q0 -38 -28 -66t-66 -28t-66 28t-28 66t28 66t66 28t66 -28t28 -66zM1102 905q0 -38 -28 -66t-66 -28q-40 0 -67.5 27.5t-27.5 66.5t27.5 66.5t67.5 27.5q38 0 66 -28t28 -66zM1305 702q0 -38 -28.5 -66t-66.5 -28q-39 0 -66.5 27.5
t-27.5 66.5t27.5 67t66.5 28q38 0 66.5 -28.5t28.5 -66.5zM494 1311q0 -38 -28.5 -66t-66.5 -28t-66 28t-28 66t28 66t66 28t66.5 -28t28.5 -66zM1102 702q0 -38 -28 -66t-66 -28q-40 0 -67.5 28t-27.5 66q0 39 28 67t67 28q38 0 66 -28.5t28 -66.5zM1305 500
q0 -38 -28.5 -66t-66.5 -28q-39 0 -66.5 27.5t-27.5 66.5t27.5 66.5t66.5 27.5q38 0 66.5 -28t28.5 -66zM494 1108q0 -38 -28.5 -66t-66.5 -28t-66 28t-28 66t28 66t66 28t66.5 -28t28.5 -66zM899 702q0 -38 -28 -66t-66 -28q-39 0 -66.5 27.5t-27.5 66.5t27.5 67t66.5 28
q38 0 66 -28.5t28 -66.5zM1102 500q0 -38 -28 -66t-66 -28q-40 0 -67.5 28t-27.5 66t27.5 66t67.5 28q38 0 66 -28t28 -66zM291 1108q0 -38 -28 -66t-66 -28t-66.5 28t-28.5 66t28.5 66t66.5 28t66 -28t28 -66zM494 905q0 -38 -28.5 -66t-66.5 -28t-66 28t-28 66t28 66
t66 28t66.5 -28t28.5 -66zM696 702q0 -38 -28 -66t-66 -28t-66 28t-28 66t28 66.5t66 28.5t66 -28.5t28 -66.5zM1102 297q0 -38 -28 -66t-66 -28q-40 0 -67.5 27.5t-27.5 66.5t27.5 66.5t67.5 27.5q38 0 66 -28t28 -66zM291 905q0 -38 -28 -66t-66 -28t-66.5 28t-28.5 66
t28.5 66t66.5 28t66 -28t28 -66zM494 702q0 -38 -28.5 -66t-66.5 -28t-66 28t-28 66t28 66.5t66 28.5t66.5 -28.5t28.5 -66.5zM899 297q0 -38 -28 -66t-66 -28q-39 0 -66.5 27.5t-27.5 66.5t27.5 66.5t66.5 27.5q38 0 66 -28t28 -66zM899 94q0 -38 -28 -66t-66 -28t-66 28
t-28 66t28 66t66 28t66 -28t28 -66zM696 94q0 -38 -28 -66t-66 -28t-66 28t-28 66t28 66t66 28t66 -28t28 -66zM494 94q0 -38 -28.5 -66t-66.5 -28t-66 28t-28 66t28 66t66 28t66.5 -28t28.5 -66z" />
    <glyph glyph-name="colon" unicode=":" horiz-adv-x="1001" 
d="M696 905q0 -38 -28 -66t-66 -28t-66 28t-28 66t28 66t66 28t66 -28t28 -66zM494 905q0 -38 -28.5 -66t-66.5 -28t-66 28t-28 66t28 66t66 28t66.5 -28t28.5 -66zM696 702q0 -38 -28 -66t-66 -28t-66 28t-28 66t28 66.5t66 28.5t66 -28.5t28 -66.5zM291 905q0 -38 -28 -66
t-66 -28t-66.5 28t-28.5 66t28.5 66t66.5 28t66 -28t28 -66zM494 702q0 -38 -28.5 -66t-66.5 -28t-66 28t-28 66t28 66.5t66 28.5t66.5 -28.5t28.5 -66.5zM291 702q0 -38 -28 -66t-66 -28t-66.5 28t-28.5 66t28.5 66.5t66.5 28.5t66 -28.5t28 -66.5zM696 297q0 -38 -28 -66
t-66 -28t-66 28t-28 66t28 66t66 28t66 -28t28 -66zM494 297q0 -38 -28.5 -66t-66.5 -28t-66 28t-28 66t28 66t66 28t66.5 -28t28.5 -66zM696 94q0 -38 -28 -66t-66 -28t-66 28t-28 66t28 66t66 28t66 -28t28 -66zM291 297q0 -38 -28 -66t-66 -28t-66.5 28t-28.5 66t28.5 66
t66.5 28t66 -28t28 -66zM494 94q0 -38 -28.5 -66t-66.5 -28t-66 28t-28 66t28 66t66 28t66.5 -28t28.5 -66zM291 94q0 -38 -28 -66t-66 -28t-66.5 28t-28.5 66t28.5 66t66.5 28t66 -28t28 -66z" />
    <glyph glyph-name="semicolon" unicode=";" horiz-adv-x="1001" 
d="M696 905q0 -38 -28 -66t-66 -28t-66 28t-28 66t28 66t66 28t66 -28t28 -66zM494 905q0 -38 -28.5 -66t-66.5 -28t-66 28t-28 66t28 66t66 28t66.5 -28t28.5 -66zM696 702q0 -38 -28 -66t-66 -28t-66 28t-28 66t28 66.5t66 28.5t66 -28.5t28 -66.5zM291 905q0 -38 -28 -66
t-66 -28t-66.5 28t-28.5 66t28.5 66t66.5 28t66 -28t28 -66zM494 702q0 -38 -28.5 -66t-66.5 -28t-66 28t-28 66t28 66.5t66 28.5t66.5 -28.5t28.5 -66.5zM291 702q0 -38 -28 -66t-66 -28t-66.5 28t-28.5 66t28.5 66.5t66.5 28.5t66 -28.5t28 -66.5zM696 297q0 -38 -28 -66
t-66 -28t-66 28t-28 66t28 66t66 28t66 -28t28 -66zM494 297q0 -38 -28.5 -66t-66.5 -28t-66 28t-28 66t28 66t66 28t66.5 -28t28.5 -66zM696 94q0 -38 -28 -66t-66 -28t-66 28t-28 66t28 66t66 28t66 -28t28 -66zM494 94q0 -38 -28.5 -66t-66.5 -28t-66 28t-28 66t28 66
t66 28t66.5 -28t28.5 -66zM494 -109q0 -38 -28.5 -66t-66.5 -28t-66 28t-28 66q0 39 27.5 67t66.5 28t67 -28t28 -67zM291 -109q0 -38 -28 -66t-66 -28t-66.5 28t-28.5 66q0 39 28 67t67 28t66.5 -28t27.5 -67z" />
    <glyph glyph-name="less" unicode="&#x3c;" horiz-adv-x="1001" 
d="M899 1108q0 -38 -28 -66t-66 -28q-39 0 -66.5 27.5t-27.5 66.5t27.5 66.5t66.5 27.5q38 0 66 -28t28 -66zM696 1108q0 -38 -28 -66t-66 -28q-39 0 -66.5 27.5t-27.5 66.5t27.5 66.5t66.5 27.5q38 0 66 -28t28 -66zM696 905q0 -38 -28 -66t-66 -28t-66 28t-28 66t28 66
t66 28t66 -28t28 -66zM494 905q0 -38 -28.5 -66t-66.5 -28t-66 28t-28 66t28 66t66 28t66.5 -28t28.5 -66zM494 702q0 -38 -28.5 -66t-66.5 -28t-66 28t-28 66t28 66.5t66 28.5t66.5 -28.5t28.5 -66.5zM696 500q0 -38 -28 -66t-66 -28t-66 28t-28 66t28 66t66 28t66 -28
t28 -66zM899 297q0 -38 -28 -66t-66 -28q-39 0 -66.5 27.5t-27.5 66.5t27.5 66.5t66.5 27.5q38 0 66 -28t28 -66zM291 702q0 -38 -28 -66t-66 -28t-66.5 28t-28.5 66t28.5 66.5t66.5 28.5t66 -28.5t28 -66.5zM494 500q0 -38 -28.5 -66t-66.5 -28t-66 28t-28 66t28 66t66 28
t66.5 -28t28.5 -66zM696 297q0 -38 -28 -66t-66 -28q-39 0 -66.5 27.5t-27.5 66.5t27.5 66.5t66.5 27.5q38 0 66 -28t28 -66z" />
    <glyph glyph-name="equal" unicode="=" horiz-adv-x="1204" 
d="M1102 905q0 -38 -28 -66t-66 -28q-40 0 -67.5 27.5t-27.5 66.5t27.5 66.5t67.5 27.5q38 0 66 -28t28 -66zM899 905q0 -38 -28 -66t-66 -28q-39 0 -66.5 27.5t-27.5 66.5t27.5 66.5t66.5 27.5q38 0 66 -28t28 -66zM696 905q0 -38 -28 -66t-66 -28t-66 28t-28 66t28 66
t66 28t66 -28t28 -66zM1102 500q0 -38 -28 -66t-66 -28q-40 0 -67.5 28t-27.5 66t27.5 66t67.5 28q38 0 66 -28t28 -66zM494 905q0 -38 -28.5 -66t-66.5 -28t-66 28t-28 66t28 66t66 28t66.5 -28t28.5 -66zM899 500q0 -38 -28 -66t-66 -28q-39 0 -66.5 27.5t-27.5 66.5
t27.5 66.5t66.5 27.5q38 0 66 -28t28 -66zM291 905q0 -38 -28 -66t-66 -28t-66.5 28t-28.5 66t28.5 66t66.5 28t66 -28t28 -66zM696 500q0 -38 -28 -66t-66 -28t-66 28t-28 66t28 66t66 28t66 -28t28 -66zM494 500q0 -38 -28.5 -66t-66.5 -28t-66 28t-28 66t28 66t66 28
t66.5 -28t28.5 -66zM291 500q0 -38 -28 -66t-66 -28t-66.5 28t-28.5 66t28.5 66t66.5 28t66 -28t28 -66z" />
    <glyph glyph-name="greater" unicode="&#x3e;" horiz-adv-x="1001" 
d="M494 1108q0 -38 -28.5 -66t-66.5 -28t-66 28t-28 66t28 66t66 28t66.5 -28t28.5 -66zM696 905q0 -38 -28 -66t-66 -28t-66 28t-28 66t28 66t66 28t66 -28t28 -66zM899 702q0 -38 -28 -66t-66 -28q-39 0 -66.5 27.5t-27.5 66.5t27.5 67t66.5 28q38 0 66 -28.5t28 -66.5z
M291 1108q0 -38 -28 -66t-66 -28t-66.5 28t-28.5 66t28.5 66t66.5 28t66 -28t28 -66zM494 905q0 -38 -28.5 -66t-66.5 -28t-66 28t-28 66t28 66t66 28t66.5 -28t28.5 -66zM696 702q0 -38 -28 -66t-66 -28q-39 0 -66.5 27.5t-27.5 66.5t27.5 67t66.5 28q38 0 66 -28.5
t28 -66.5zM696 500q0 -38 -28 -66t-66 -28t-66 28t-28 66t28 66t66 28t66 -28t28 -66zM494 500q0 -38 -28.5 -66t-66.5 -28t-66 28t-28 66t28 66t66 28t66.5 -28t28.5 -66zM494 297q0 -38 -28.5 -66t-66.5 -28t-66 28t-28 66t28 66t66 28t66.5 -28t28.5 -66zM291 297
q0 -38 -28 -66t-66 -28t-66.5 28t-28.5 66t28.5 66t66.5 28t66 -28t28 -66z" />
    <glyph glyph-name="question" unicode="?" 
d="M1102 1311q0 -38 -28 -66t-66 -28q-40 0 -67.5 27.5t-27.5 66.5t27.5 66.5t67.5 27.5q38 0 66 -28t28 -66zM1305 1108q0 -38 -28.5 -66t-66.5 -28q-39 0 -66.5 27.5t-27.5 66.5t27.5 66.5t66.5 27.5q38 0 66.5 -28t28.5 -66zM899 1311q0 -38 -28 -66t-66 -28
q-39 0 -66.5 27.5t-27.5 66.5t27.5 66.5t66.5 27.5q38 0 66 -28t28 -66zM1102 1108q0 -38 -28 -66t-66 -28q-40 0 -67.5 28t-27.5 66t27.5 66t67.5 28q38 0 66 -28t28 -66zM1305 905q0 -38 -28.5 -66t-66.5 -28q-39 0 -66.5 27.5t-27.5 66.5t27.5 66.5t66.5 27.5
q38 0 66.5 -28t28.5 -66zM696 1311q0 -38 -28 -66t-66 -28t-66 28t-28 66t28 66t66 28t66 -28t28 -66zM1102 905q0 -38 -28 -66t-66 -28q-40 0 -67.5 27.5t-27.5 66.5t27.5 66.5t67.5 27.5q38 0 66 -28t28 -66zM494 1311q0 -38 -28.5 -66t-66.5 -28t-66 28t-28 66t28 66
t66 28t66.5 -28t28.5 -66zM1102 702q0 -38 -28 -66t-66 -28q-40 0 -67.5 28t-27.5 66q0 39 28 67t67 28q38 0 66 -28.5t28 -66.5zM494 1108q0 -38 -28.5 -66t-66.5 -28t-66 28t-28 66t28 66t66 28t66.5 -28t28.5 -66zM899 702q0 -38 -28 -66t-66 -28q-39 0 -66.5 27.5
t-27.5 66.5t27.5 67t66.5 28q38 0 66 -28.5t28 -66.5zM291 1108q0 -38 -28 -66t-66 -28t-66.5 28t-28.5 66t28.5 66t66.5 28t66 -28t28 -66zM899 500q0 -38 -28 -66t-66 -28t-66 28t-28 66t28 66t66 28t66 -28t28 -66zM696 500q0 -38 -28 -66t-66 -28t-66 28t-28 66t28 66
t66 28t66 -28t28 -66zM899 94q0 -38 -28 -66t-66 -28t-66 28t-28 66t28 66t66 28t66 -28t28 -66zM696 94q0 -38 -28 -66t-66 -28t-66 28t-28 66t28 66t66 28t66 -28t28 -66z" />
    <glyph glyph-name="at" unicode="@" 
d="M1102 1311q0 -38 -28 -66t-66 -28q-40 0 -67.5 27.5t-27.5 66.5t27.5 66.5t67.5 27.5q38 0 66 -28t28 -66zM1305 1108q0 -38 -28.5 -66t-66.5 -28q-39 0 -66.5 27.5t-27.5 66.5t27.5 66.5t66.5 27.5q38 0 66.5 -28t28.5 -66zM899 1311q0 -38 -28 -66t-66 -28
q-39 0 -66.5 27.5t-27.5 66.5t27.5 66.5t66.5 27.5q38 0 66 -28t28 -66zM1102 1108q0 -38 -28 -66t-66 -28q-40 0 -67.5 28t-27.5 66t27.5 66t67.5 28q38 0 66 -28t28 -66zM1305 905q0 -38 -28.5 -66t-66.5 -28q-39 0 -66.5 27.5t-27.5 66.5t27.5 66.5t66.5 27.5
q38 0 66.5 -28t28.5 -66zM696 1311q0 -38 -28 -66t-66 -28t-66 28t-28 66t28 66t66 28t66 -28t28 -66zM1102 905q0 -38 -28 -66t-66 -28q-40 0 -67.5 27.5t-27.5 66.5t27.5 66.5t67.5 27.5q38 0 66 -28t28 -66zM1305 702q0 -38 -28.5 -66t-66.5 -28q-39 0 -66.5 27.5
t-27.5 66.5t27.5 67t66.5 28q38 0 66.5 -28.5t28.5 -66.5zM494 1311q0 -38 -28.5 -66t-66.5 -28t-66 28t-28 66t28 66t66 28t66.5 -28t28.5 -66zM1102 702q0 -38 -28 -66t-66 -28q-40 0 -67.5 28t-27.5 66q0 39 28 67t67 28q38 0 66 -28.5t28 -66.5zM696 905q0 -38 -28 -66
t-66 -28t-66 28t-28 66t28 66t66 28t66 -28t28 -66zM1102 500q0 -38 -28 -66t-66 -28q-40 0 -67.5 28t-27.5 66t27.5 66t67.5 28q38 0 66 -28t28 -66zM291 1108q0 -38 -28 -66t-66 -28t-66.5 28t-28.5 66t28.5 66t66.5 28t66 -28t28 -66zM494 905q0 -38 -28.5 -66t-66.5 -28
t-66 28t-28 66t28 66t66 28t66.5 -28t28.5 -66zM696 702q0 -38 -28 -66t-66 -28t-66 28t-28 66t28 66.5t66 28.5t66 -28.5t28 -66.5zM899 500q0 -38 -28 -66t-66 -28q-39 0 -66.5 27.5t-27.5 66.5t27.5 66.5t66.5 27.5q38 0 66 -28t28 -66zM1305 94q0 -38 -28.5 -66
t-66.5 -28q-39 0 -66.5 27.5t-27.5 66.5t27.5 66.5t66.5 27.5q38 0 66.5 -28t28.5 -66zM696 500q0 -38 -28 -66t-66 -28t-66 28t-28 66t28 66t66 28t66 -28t28 -66zM1102 94q0 -38 -28 -66t-66 -28q-40 0 -67.5 28t-27.5 66t27.5 66t67.5 28q38 0 66 -28t28 -66zM291 702
q0 -38 -28 -66t-66 -28t-66.5 28t-28.5 66t28.5 66.5t66.5 28.5t66 -28.5t28 -66.5zM494 500q0 -38 -28.5 -66t-66.5 -28t-66 28t-28 66t28 66t66 28t66.5 -28t28.5 -66zM899 94q0 -38 -28 -66t-66 -28q-39 0 -66.5 27.5t-27.5 66.5t27.5 66.5t66.5 27.5q38 0 66 -28t28 -66
zM696 94q0 -38 -28 -66t-66 -28t-66 28t-28 66t28 66t66 28t66 -28t28 -66zM291 297q0 -38 -28 -66t-66 -28t-66.5 28t-28.5 66t28.5 66t66.5 28t66 -28t28 -66zM494 94q0 -38 -28.5 -66t-66.5 -28t-66 28t-28 66t28 66t66 28t66.5 -28t28.5 -66z" />
    <glyph glyph-name="A" unicode="A" 
d="M1102 1311q0 -38 -28 -66t-66 -28q-40 0 -67.5 27.5t-27.5 66.5t27.5 66.5t67.5 27.5q38 0 66 -28t28 -66zM1305 1108q0 -38 -28.5 -66t-66.5 -28q-39 0 -66.5 27.5t-27.5 66.5t27.5 66.5t66.5 27.5q38 0 66.5 -28t28.5 -66zM899 1311q0 -38 -28 -66t-66 -28
q-39 0 -66.5 27.5t-27.5 66.5t27.5 66.5t66.5 27.5q38 0 66 -28t28 -66zM1102 1108q0 -38 -28 -66t-66 -28q-40 0 -67.5 28t-27.5 66t27.5 66t67.5 28q38 0 66 -28t28 -66zM1305 905q0 -38 -28.5 -66t-66.5 -28q-39 0 -66.5 27.5t-27.5 66.5t27.5 66.5t66.5 27.5
q38 0 66.5 -28t28.5 -66zM696 1311q0 -38 -28 -66t-66 -28t-66 28t-28 66t28 66t66 28t66 -28t28 -66zM1102 905q0 -38 -28 -66t-66 -28q-40 0 -67.5 27.5t-27.5 66.5t27.5 66.5t67.5 27.5q38 0 66 -28t28 -66zM1305 702q0 -38 -28.5 -66t-66.5 -28q-39 0 -66.5 27.5
t-27.5 66.5t27.5 67t66.5 28q38 0 66.5 -28.5t28.5 -66.5zM494 1311q0 -38 -28.5 -66t-66.5 -28t-66 28t-28 66t28 66t66 28t66.5 -28t28.5 -66zM1102 702q0 -38 -28 -66t-66 -28q-40 0 -67.5 28t-27.5 66q0 39 28 67t67 28q38 0 66 -28.5t28 -66.5zM1305 500
q0 -38 -28.5 -66t-66.5 -28q-39 0 -66.5 27.5t-27.5 66.5t27.5 66.5t66.5 27.5q38 0 66.5 -28t28.5 -66zM494 1108q0 -38 -28.5 -66t-66.5 -28t-66 28t-28 66t28 66t66 28t66.5 -28t28.5 -66zM1102 500q0 -38 -28 -66t-66 -28q-40 0 -67.5 28t-27.5 66t27.5 66t67.5 28
q38 0 66 -28t28 -66zM1305 297q0 -38 -28.5 -66t-66.5 -28q-39 0 -66.5 27.5t-27.5 66.5t27.5 66.5t66.5 27.5q38 0 66.5 -28t28.5 -66zM291 1108q0 -38 -28 -66t-66 -28t-66.5 28t-28.5 66t28.5 66t66.5 28t66 -28t28 -66zM494 905q0 -38 -28.5 -66t-66.5 -28t-66 28
t-28 66t28 66t66 28t66.5 -28t28.5 -66zM899 500q0 -38 -28 -66t-66 -28q-39 0 -66.5 27.5t-27.5 66.5t27.5 66.5t66.5 27.5q38 0 66 -28t28 -66zM1102 297q0 -38 -28 -66t-66 -28q-40 0 -67.5 27.5t-27.5 66.5t27.5 66.5t67.5 27.5q38 0 66 -28t28 -66zM1305 94
q0 -38 -28.5 -66t-66.5 -28q-39 0 -66.5 27.5t-27.5 66.5t27.5 66.5t66.5 27.5q38 0 66.5 -28t28.5 -66zM291 905q0 -38 -28 -66t-66 -28t-66.5 28t-28.5 66t28.5 66t66.5 28t66 -28t28 -66zM494 702q0 -38 -28.5 -66t-66.5 -28t-66 28t-28 66t28 66.5t66 28.5t66.5 -28.5
t28.5 -66.5zM696 500q0 -38 -28 -66t-66 -28t-66 28t-28 66t28 66t66 28t66 -28t28 -66zM1102 94q0 -38 -28 -66t-66 -28q-40 0 -67.5 28t-27.5 66t27.5 66t67.5 28q38 0 66 -28t28 -66zM291 702q0 -38 -28 -66t-66 -28t-66.5 28t-28.5 66t28.5 66.5t66.5 28.5t66 -28.5
t28 -66.5zM494 500q0 -38 -28.5 -66t-66.5 -28t-66 28t-28 66t28 66t66 28t66.5 -28t28.5 -66zM291 500q0 -38 -28 -66t-66 -28t-66.5 28t-28.5 66t28.5 66t66.5 28t66 -28t28 -66zM494 297q0 -38 -28.5 -66t-66.5 -28t-66 28t-28 66t28 66t66 28t66.5 -28t28.5 -66z
M291 297q0 -38 -28 -66t-66 -28t-66.5 28t-28.5 66t28.5 66t66.5 28t66 -28t28 -66zM494 94q0 -38 -28.5 -66t-66.5 -28t-66 28t-28 66t28 66t66 28t66.5 -28t28.5 -66zM291 94q0 -38 -28 -66t-66 -28t-66.5 28t-28.5 66t28.5 66t66.5 28t66 -28t28 -66z" />
    <glyph glyph-name="B" unicode="B" 
d="M1102 1311q0 -38 -28 -66t-66 -28q-40 0 -67.5 27.5t-27.5 66.5t27.5 66.5t67.5 27.5q38 0 66 -28t28 -66zM1305 1108q0 -38 -28.5 -66t-66.5 -28q-39 0 -66.5 27.5t-27.5 66.5t27.5 66.5t66.5 27.5q38 0 66.5 -28t28.5 -66zM899 1311q0 -38 -28 -66t-66 -28
q-39 0 -66.5 27.5t-27.5 66.5t27.5 66.5t66.5 27.5q38 0 66 -28t28 -66zM1102 1108q0 -38 -28 -66t-66 -28q-40 0 -67.5 28t-27.5 66t27.5 66t67.5 28q38 0 66 -28t28 -66zM1305 905q0 -38 -28.5 -66t-66.5 -28q-39 0 -66.5 27.5t-27.5 66.5t27.5 66.5t66.5 27.5
q38 0 66.5 -28t28.5 -66zM696 1311q0 -38 -28 -66t-66 -28t-66 28t-28 66t28 66t66 28t66 -28t28 -66zM1102 905q0 -38 -28 -66t-66 -28q-40 0 -67.5 27.5t-27.5 66.5t27.5 66.5t67.5 27.5q38 0 66 -28t28 -66zM494 1311q0 -38 -28.5 -66t-66.5 -28t-66 28t-28 66t28 66
t66 28t66.5 -28t28.5 -66zM1102 702q0 -38 -28 -66t-66 -28q-40 0 -67.5 28t-27.5 66q0 39 28 67t67 28q38 0 66 -28.5t28 -66.5zM1305 500q0 -38 -28.5 -66t-66.5 -28q-39 0 -66.5 27.5t-27.5 66.5t27.5 66.5t66.5 27.5q38 0 66.5 -28t28.5 -66zM291 1311q0 -38 -28 -66
t-66 -28t-66.5 28t-28.5 66t28.5 66t66.5 28t66 -28t28 -66zM494 1108q0 -38 -28.5 -66t-66.5 -28t-66 28t-28 66t28 66t66 28t66.5 -28t28.5 -66zM899 702q0 -38 -28 -66t-66 -28q-39 0 -66.5 27.5t-27.5 66.5t27.5 67t66.5 28q38 0 66 -28.5t28 -66.5zM1102 500
q0 -38 -28 -66t-66 -28q-40 0 -67.5 28t-27.5 66t27.5 66t67.5 28q38 0 66 -28t28 -66zM1305 297q0 -38 -28.5 -66t-66.5 -28q-39 0 -66.5 27.5t-27.5 66.5t27.5 66.5t66.5 27.5q38 0 66.5 -28t28.5 -66zM291 1108q0 -38 -28 -66t-66 -28t-66.5 28t-28.5 66t28.5 66t66.5 28
t66 -28t28 -66zM494 905q0 -38 -28.5 -66t-66.5 -28t-66 28t-28 66t28 66t66 28t66.5 -28t28.5 -66zM696 702q0 -38 -28 -66t-66 -28t-66 28t-28 66t28 66.5t66 28.5t66 -28.5t28 -66.5zM1102 297q0 -38 -28 -66t-66 -28q-40 0 -67.5 27.5t-27.5 66.5t27.5 66.5t67.5 27.5
q38 0 66 -28t28 -66zM291 905q0 -38 -28 -66t-66 -28t-66.5 28t-28.5 66t28.5 66t66.5 28t66 -28t28 -66zM494 702q0 -38 -28.5 -66t-66.5 -28t-66 28t-28 66t28 66.5t66 28.5t66.5 -28.5t28.5 -66.5zM1102 94q0 -38 -28 -66t-66 -28q-40 0 -67.5 28t-27.5 66t27.5 66
t67.5 28q38 0 66 -28t28 -66zM291 702q0 -38 -28 -66t-66 -28t-66.5 28t-28.5 66t28.5 66.5t66.5 28.5t66 -28.5t28 -66.5zM494 500q0 -38 -28.5 -66t-66.5 -28t-66 28t-28 66t28 66t66 28t66.5 -28t28.5 -66zM899 94q0 -38 -28 -66t-66 -28q-39 0 -66.5 27.5t-27.5 66.5
t27.5 66.5t66.5 27.5q38 0 66 -28t28 -66zM291 500q0 -38 -28 -66t-66 -28t-66.5 28t-28.5 66t28.5 66t66.5 28t66 -28t28 -66zM494 297q0 -38 -28.5 -66t-66.5 -28t-66 28t-28 66t28 66t66 28t66.5 -28t28.5 -66zM696 94q0 -38 -28 -66t-66 -28t-66 28t-28 66t28 66t66 28
t66 -28t28 -66zM291 297q0 -38 -28 -66t-66 -28t-66.5 28t-28.5 66t28.5 66t66.5 28t66 -28t28 -66zM494 94q0 -38 -28.5 -66t-66.5 -28t-66 28t-28 66t28 66t66 28t66.5 -28t28.5 -66zM291 94q0 -38 -28 -66t-66 -28t-66.5 28t-28.5 66t28.5 66t66.5 28t66 -28t28 -66z" />
    <glyph glyph-name="C" unicode="C" 
d="M1102 1311q0 -38 -28 -66t-66 -28q-40 0 -67.5 27.5t-27.5 66.5t27.5 66.5t67.5 27.5q38 0 66 -28t28 -66zM1305 1108q0 -38 -28.5 -66t-66.5 -28q-39 0 -66.5 27.5t-27.5 66.5t27.5 66.5t66.5 27.5q38 0 66.5 -28t28.5 -66zM899 1311q0 -38 -28 -66t-66 -28
q-39 0 -66.5 27.5t-27.5 66.5t27.5 66.5t66.5 27.5q38 0 66 -28t28 -66zM1102 1108q0 -38 -28 -66t-66 -28q-40 0 -67.5 28t-27.5 66t27.5 66t67.5 28q38 0 66 -28t28 -66zM696 1311q0 -38 -28 -66t-66 -28t-66 28t-28 66t28 66t66 28t66 -28t28 -66zM494 1311
q0 -38 -28.5 -66t-66.5 -28t-66 28t-28 66t28 66t66 28t66.5 -28t28.5 -66zM494 1108q0 -38 -28.5 -66t-66.5 -28t-66 28t-28 66t28 66t66 28t66.5 -28t28.5 -66zM1305 297q0 -38 -28.5 -66t-66.5 -28q-39 0 -66.5 27.5t-27.5 66.5t27.5 66.5t66.5 27.5q38 0 66.5 -28
t28.5 -66zM291 1108q0 -38 -28 -66t-66 -28t-66.5 28t-28.5 66t28.5 66t66.5 28t66 -28t28 -66zM494 905q0 -38 -28.5 -66t-66.5 -28t-66 28t-28 66t28 66t66 28t66.5 -28t28.5 -66zM1102 297q0 -38 -28 -66t-66 -28q-40 0 -67.5 27.5t-27.5 66.5t27.5 66.5t67.5 27.5
q38 0 66 -28t28 -66zM291 905q0 -38 -28 -66t-66 -28t-66.5 28t-28.5 66t28.5 66t66.5 28t66 -28t28 -66zM494 702q0 -38 -28.5 -66t-66.5 -28t-66 28t-28 66t28 66.5t66 28.5t66.5 -28.5t28.5 -66.5zM1102 94q0 -38 -28 -66t-66 -28q-40 0 -67.5 28t-27.5 66t27.5 66
t67.5 28q38 0 66 -28t28 -66zM291 702q0 -38 -28 -66t-66 -28t-66.5 28t-28.5 66t28.5 66.5t66.5 28.5t66 -28.5t28 -66.5zM494 500q0 -38 -28.5 -66t-66.5 -28t-66 28t-28 66t28 66t66 28t66.5 -28t28.5 -66zM899 94q0 -38 -28 -66t-66 -28q-39 0 -66.5 27.5t-27.5 66.5
t27.5 66.5t66.5 27.5q38 0 66 -28t28 -66zM291 500q0 -38 -28 -66t-66 -28t-66.5 28t-28.5 66t28.5 66t66.5 28t66 -28t28 -66zM494 297q0 -38 -28.5 -66t-66.5 -28t-66 28t-28 66t28 66t66 28t66.5 -28t28.5 -66zM696 94q0 -38 -28 -66t-66 -28t-66 28t-28 66t28 66t66 28
t66 -28t28 -66zM291 297q0 -38 -28 -66t-66 -28t-66.5 28t-28.5 66t28.5 66t66.5 28t66 -28t28 -66zM494 94q0 -38 -28.5 -66t-66.5 -28t-66 28t-28 66t28 66t66 28t66.5 -28t28.5 -66z" />
    <glyph glyph-name="D" unicode="D" 
d="M899 1311q0 -38 -28 -66t-66 -28t-66 28t-28 66t28 66t66 28t66 -28t28 -66zM1102 1108q0 -38 -28 -66t-66 -28q-40 0 -67.5 28t-27.5 66t27.5 66t67.5 28q38 0 66 -28t28 -66zM1305 905q0 -38 -28.5 -66t-66.5 -28q-39 0 -66.5 27.5t-27.5 66.5t27.5 66.5t66.5 27.5
q38 0 66.5 -28t28.5 -66zM696 1311q0 -38 -28 -66t-66 -28t-66 28t-28 66t28 66t66 28t66 -28t28 -66zM899 1108q0 -38 -28 -66t-66 -28q-39 0 -66.5 27.5t-27.5 66.5t27.5 66.5t66.5 27.5q38 0 66 -28t28 -66zM1102 905q0 -38 -28 -66t-66 -28q-40 0 -67.5 27.5t-27.5 66.5
t27.5 66.5t67.5 27.5q38 0 66 -28t28 -66zM1305 702q0 -38 -28.5 -66t-66.5 -28q-39 0 -66.5 27.5t-27.5 66.5t27.5 67t66.5 28q38 0 66.5 -28.5t28.5 -66.5zM494 1311q0 -38 -28.5 -66t-66.5 -28t-66 28t-28 66t28 66t66 28t66.5 -28t28.5 -66zM1102 702q0 -38 -28 -66
t-66 -28q-40 0 -67.5 28t-27.5 66q0 39 28 67t67 28q38 0 66 -28.5t28 -66.5zM1305 500q0 -38 -28.5 -66t-66.5 -28q-39 0 -66.5 27.5t-27.5 66.5t27.5 66.5t66.5 27.5q38 0 66.5 -28t28.5 -66zM291 1311q0 -38 -28 -66t-66 -28t-66.5 28t-28.5 66t28.5 66t66.5 28t66 -28
t28 -66zM494 1108q0 -38 -28.5 -66t-66.5 -28t-66 28t-28 66t28 66t66 28t66.5 -28t28.5 -66zM1102 500q0 -38 -28 -66t-66 -28q-40 0 -67.5 28t-27.5 66t27.5 66t67.5 28q38 0 66 -28t28 -66zM291 1108q0 -38 -28 -66t-66 -28t-66.5 28t-28.5 66t28.5 66t66.5 28t66 -28
t28 -66zM494 905q0 -38 -28.5 -66t-66.5 -28t-66 28t-28 66t28 66t66 28t66.5 -28t28.5 -66zM1102 297q0 -38 -28 -66t-66 -28q-40 0 -67.5 27.5t-27.5 66.5t27.5 66.5t67.5 27.5q38 0 66 -28t28 -66zM291 905q0 -38 -28 -66t-66 -28t-66.5 28t-28.5 66t28.5 66t66.5 28
t66 -28t28 -66zM494 702q0 -38 -28.5 -66t-66.5 -28t-66 28t-28 66t28 66.5t66 28.5t66.5 -28.5t28.5 -66.5zM899 297q0 -38 -28 -66t-66 -28q-39 0 -66.5 27.5t-27.5 66.5t27.5 66.5t66.5 27.5q38 0 66 -28t28 -66zM291 702q0 -38 -28 -66t-66 -28t-66.5 28t-28.5 66
t28.5 66.5t66.5 28.5t66 -28.5t28 -66.5zM494 500q0 -38 -28.5 -66t-66.5 -28t-66 28t-28 66t28 66t66 28t66.5 -28t28.5 -66zM899 94q0 -38 -28 -66t-66 -28t-66 28t-28 66t28 66t66 28t66 -28t28 -66zM291 500q0 -38 -28 -66t-66 -28t-66.5 28t-28.5 66t28.5 66t66.5 28
t66 -28t28 -66zM494 297q0 -38 -28.5 -66t-66.5 -28t-66 28t-28 66t28 66t66 28t66.5 -28t28.5 -66zM696 94q0 -38 -28 -66t-66 -28t-66 28t-28 66t28 66t66 28t66 -28t28 -66zM291 297q0 -38 -28 -66t-66 -28t-66.5 28t-28.5 66t28.5 66t66.5 28t66 -28t28 -66zM494 94
q0 -38 -28.5 -66t-66.5 -28t-66 28t-28 66t28 66t66 28t66.5 -28t28.5 -66zM291 94q0 -38 -28 -66t-66 -28t-66.5 28t-28.5 66t28.5 66t66.5 28t66 -28t28 -66z" />
    <glyph glyph-name="E" unicode="E" 
d="M1305 1311q0 -38 -28.5 -66t-66.5 -28q-39 0 -66.5 27.5t-27.5 66.5t27.5 66.5t66.5 27.5q38 0 66.5 -28t28.5 -66zM1102 1311q0 -38 -28 -66t-66 -28q-40 0 -67.5 27.5t-27.5 66.5t27.5 66.5t67.5 27.5q38 0 66 -28t28 -66zM899 1311q0 -38 -28 -66t-66 -28
q-39 0 -66.5 27.5t-27.5 66.5t27.5 66.5t66.5 27.5q38 0 66 -28t28 -66zM696 1311q0 -38 -28 -66t-66 -28t-66 28t-28 66t28 66t66 28t66 -28t28 -66zM494 1311q0 -38 -28.5 -66t-66.5 -28t-66 28t-28 66t28 66t66 28t66.5 -28t28.5 -66zM1102 702q0 -38 -28 -66t-66 -28
q-40 0 -67.5 28t-27.5 66q0 39 28 67t67 28q38 0 66 -28.5t28 -66.5zM291 1311q0 -38 -28 -66t-66 -28t-66.5 28t-28.5 66t28.5 66t66.5 28t66 -28t28 -66zM494 1108q0 -38 -28.5 -66t-66.5 -28t-66 28t-28 66t28 66t66 28t66.5 -28t28.5 -66zM899 702q0 -38 -28 -66
t-66 -28q-39 0 -66.5 27.5t-27.5 66.5t27.5 67t66.5 28q38 0 66 -28.5t28 -66.5zM291 1108q0 -38 -28 -66t-66 -28t-66.5 28t-28.5 66t28.5 66t66.5 28t66 -28t28 -66zM494 905q0 -38 -28.5 -66t-66.5 -28t-66 28t-28 66t28 66t66 28t66.5 -28t28.5 -66zM696 702
q0 -38 -28 -66t-66 -28t-66 28t-28 66t28 66.5t66 28.5t66 -28.5t28 -66.5zM1305 94q0 -38 -28.5 -66t-66.5 -28q-39 0 -66.5 27.5t-27.5 66.5t27.5 66.5t66.5 27.5q38 0 66.5 -28t28.5 -66zM291 905q0 -38 -28 -66t-66 -28t-66.5 28t-28.5 66t28.5 66t66.5 28t66 -28
t28 -66zM494 702q0 -38 -28.5 -66t-66.5 -28t-66 28t-28 66t28 66.5t66 28.5t66.5 -28.5t28.5 -66.5zM1102 94q0 -38 -28 -66t-66 -28q-40 0 -67.5 28t-27.5 66t27.5 66t67.5 28q38 0 66 -28t28 -66zM291 702q0 -38 -28 -66t-66 -28t-66.5 28t-28.5 66t28.5 66.5t66.5 28.5
t66 -28.5t28 -66.5zM494 500q0 -38 -28.5 -66t-66.5 -28t-66 28t-28 66t28 66t66 28t66.5 -28t28.5 -66zM899 94q0 -38 -28 -66t-66 -28q-39 0 -66.5 27.5t-27.5 66.5t27.5 66.5t66.5 27.5q38 0 66 -28t28 -66zM291 500q0 -38 -28 -66t-66 -28t-66.5 28t-28.5 66t28.5 66
t66.5 28t66 -28t28 -66zM494 297q0 -38 -28.5 -66t-66.5 -28t-66 28t-28 66t28 66t66 28t66.5 -28t28.5 -66zM696 94q0 -38 -28 -66t-66 -28t-66 28t-28 66t28 66t66 28t66 -28t28 -66zM291 297q0 -38 -28 -66t-66 -28t-66.5 28t-28.5 66t28.5 66t66.5 28t66 -28t28 -66z
M494 94q0 -38 -28.5 -66t-66.5 -28t-66 28t-28 66t28 66t66 28t66.5 -28t28.5 -66zM291 94q0 -38 -28 -66t-66 -28t-66.5 28t-28.5 66t28.5 66t66.5 28t66 -28t28 -66z" />
    <glyph glyph-name="F" unicode="F" 
d="M1305 1311q0 -38 -28.5 -66t-66.5 -28q-39 0 -66.5 27.5t-27.5 66.5t27.5 66.5t66.5 27.5q38 0 66.5 -28t28.5 -66zM1102 1311q0 -38 -28 -66t-66 -28q-40 0 -67.5 27.5t-27.5 66.5t27.5 66.5t67.5 27.5q38 0 66 -28t28 -66zM899 1311q0 -38 -28 -66t-66 -28
q-39 0 -66.5 27.5t-27.5 66.5t27.5 66.5t66.5 27.5q38 0 66 -28t28 -66zM696 1311q0 -38 -28 -66t-66 -28t-66 28t-28 66t28 66t66 28t66 -28t28 -66zM494 1311q0 -38 -28.5 -66t-66.5 -28t-66 28t-28 66t28 66t66 28t66.5 -28t28.5 -66zM1102 702q0 -38 -28 -66t-66 -28
q-40 0 -67.5 28t-27.5 66q0 39 28 67t67 28q38 0 66 -28.5t28 -66.5zM291 1311q0 -38 -28 -66t-66 -28t-66.5 28t-28.5 66t28.5 66t66.5 28t66 -28t28 -66zM494 1108q0 -38 -28.5 -66t-66.5 -28t-66 28t-28 66t28 66t66 28t66.5 -28t28.5 -66zM899 702q0 -38 -28 -66
t-66 -28q-39 0 -66.5 27.5t-27.5 66.5t27.5 67t66.5 28q38 0 66 -28.5t28 -66.5zM291 1108q0 -38 -28 -66t-66 -28t-66.5 28t-28.5 66t28.5 66t66.5 28t66 -28t28 -66zM494 905q0 -38 -28.5 -66t-66.5 -28t-66 28t-28 66t28 66t66 28t66.5 -28t28.5 -66zM696 702
q0 -38 -28 -66t-66 -28t-66 28t-28 66t28 66.5t66 28.5t66 -28.5t28 -66.5zM291 905q0 -38 -28 -66t-66 -28t-66.5 28t-28.5 66t28.5 66t66.5 28t66 -28t28 -66zM494 702q0 -38 -28.5 -66t-66.5 -28t-66 28t-28 66t28 66.5t66 28.5t66.5 -28.5t28.5 -66.5zM291 702
q0 -38 -28 -66t-66 -28t-66.5 28t-28.5 66t28.5 66.5t66.5 28.5t66 -28.5t28 -66.5zM494 500q0 -38 -28.5 -66t-66.5 -28t-66 28t-28 66t28 66t66 28t66.5 -28t28.5 -66zM291 500q0 -38 -28 -66t-66 -28t-66.5 28t-28.5 66t28.5 66t66.5 28t66 -28t28 -66zM494 297
q0 -38 -28.5 -66t-66.5 -28t-66 28t-28 66t28 66t66 28t66.5 -28t28.5 -66zM291 297q0 -38 -28 -66t-66 -28t-66.5 28t-28.5 66t28.5 66t66.5 28t66 -28t28 -66zM494 94q0 -38 -28.5 -66t-66.5 -28t-66 28t-28 66t28 66t66 28t66.5 -28t28.5 -66zM291 94q0 -38 -28 -66
t-66 -28t-66.5 28t-28.5 66t28.5 66t66.5 28t66 -28t28 -66z" />
    <glyph glyph-name="G" unicode="G" 
d="M1102 1311q0 -38 -28 -66t-66 -28q-40 0 -67.5 27.5t-27.5 66.5t27.5 66.5t67.5 27.5q38 0 66 -28t28 -66zM1305 1108q0 -38 -28.5 -66t-66.5 -28q-39 0 -66.5 27.5t-27.5 66.5t27.5 66.5t66.5 27.5q38 0 66.5 -28t28.5 -66zM899 1311q0 -38 -28 -66t-66 -28
q-39 0 -66.5 27.5t-27.5 66.5t27.5 66.5t66.5 27.5q38 0 66 -28t28 -66zM1102 1108q0 -38 -28 -66t-66 -28q-40 0 -67.5 28t-27.5 66t27.5 66t67.5 28q38 0 66 -28t28 -66zM696 1311q0 -38 -28 -66t-66 -28t-66 28t-28 66t28 66t66 28t66 -28t28 -66zM1305 702
q0 -38 -28.5 -66t-66.5 -28q-39 0 -66.5 27.5t-27.5 66.5t27.5 67t66.5 28q38 0 66.5 -28.5t28.5 -66.5zM494 1311q0 -38 -28.5 -66t-66.5 -28t-66 28t-28 66t28 66t66 28t66.5 -28t28.5 -66zM1102 702q0 -38 -28 -66t-66 -28q-40 0 -67.5 28t-27.5 66q0 39 28 67t67 28
q38 0 66 -28.5t28 -66.5zM1305 500q0 -38 -28.5 -66t-66.5 -28q-39 0 -66.5 27.5t-27.5 66.5t27.5 66.5t66.5 27.5q38 0 66.5 -28t28.5 -66zM494 1108q0 -38 -28.5 -66t-66.5 -28t-66 28t-28 66t28 66t66 28t66.5 -28t28.5 -66zM899 702q0 -38 -28 -66t-66 -28
q-39 0 -66.5 27.5t-27.5 66.5t27.5 67t66.5 28q38 0 66 -28.5t28 -66.5zM1102 500q0 -38 -28 -66t-66 -28q-40 0 -67.5 28t-27.5 66t27.5 66t67.5 28q38 0 66 -28t28 -66zM1305 297q0 -38 -28.5 -66t-66.5 -28q-39 0 -66.5 27.5t-27.5 66.5t27.5 66.5t66.5 27.5
q38 0 66.5 -28t28.5 -66zM291 1108q0 -38 -28 -66t-66 -28t-66.5 28t-28.5 66t28.5 66t66.5 28t66 -28t28 -66zM494 905q0 -38 -28.5 -66t-66.5 -28t-66 28t-28 66t28 66t66 28t66.5 -28t28.5 -66zM696 702q0 -38 -28 -66t-66 -28t-66 28t-28 66t28 66.5t66 28.5t66 -28.5
t28 -66.5zM1102 297q0 -38 -28 -66t-66 -28q-40 0 -67.5 27.5t-27.5 66.5t27.5 66.5t67.5 27.5q38 0 66 -28t28 -66zM1305 94q0 -38 -28.5 -66t-66.5 -28q-39 0 -66.5 27.5t-27.5 66.5t27.5 66.5t66.5 27.5q38 0 66.5 -28t28.5 -66zM291 905q0 -38 -28 -66t-66 -28t-66.5 28
t-28.5 66t28.5 66t66.5 28t66 -28t28 -66zM494 702q0 -38 -28.5 -66t-66.5 -28t-66 28t-28 66t28 66.5t66 28.5t66.5 -28.5t28.5 -66.5zM1102 94q0 -38 -28 -66t-66 -28q-40 0 -67.5 28t-27.5 66t27.5 66t67.5 28q38 0 66 -28t28 -66zM291 702q0 -38 -28 -66t-66 -28
t-66.5 28t-28.5 66t28.5 66.5t66.5 28.5t66 -28.5t28 -66.5zM494 500q0 -38 -28.5 -66t-66.5 -28t-66 28t-28 66t28 66t66 28t66.5 -28t28.5 -66zM899 94q0 -38 -28 -66t-66 -28q-39 0 -66.5 27.5t-27.5 66.5t27.5 66.5t66.5 27.5q38 0 66 -28t28 -66zM291 500
q0 -38 -28 -66t-66 -28t-66.5 28t-28.5 66t28.5 66t66.5 28t66 -28t28 -66zM494 297q0 -38 -28.5 -66t-66.5 -28t-66 28t-28 66t28 66t66 28t66.5 -28t28.5 -66zM696 94q0 -38 -28 -66t-66 -28t-66 28t-28 66t28 66t66 28t66 -28t28 -66zM291 297q0 -38 -28 -66t-66 -28
t-66.5 28t-28.5 66t28.5 66t66.5 28t66 -28t28 -66zM494 94q0 -38 -28.5 -66t-66.5 -28t-66 28t-28 66t28 66t66 28t66.5 -28t28.5 -66z" />
    <glyph glyph-name="H" unicode="H" 
d="M1305 1311q0 -38 -28.5 -66t-66.5 -28q-39 0 -66.5 27.5t-27.5 66.5t27.5 66.5t66.5 27.5q38 0 66.5 -28t28.5 -66zM1102 1311q0 -38 -28 -66t-66 -28q-40 0 -67.5 27.5t-27.5 66.5t27.5 66.5t67.5 27.5q38 0 66 -28t28 -66zM1305 1108q0 -38 -28.5 -66t-66.5 -28
q-39 0 -66.5 27.5t-27.5 66.5t27.5 66.5t66.5 27.5q38 0 66.5 -28t28.5 -66zM1102 1108q0 -38 -28 -66t-66 -28q-40 0 -67.5 28t-27.5 66t27.5 66t67.5 28q38 0 66 -28t28 -66zM1305 905q0 -38 -28.5 -66t-66.5 -28q-39 0 -66.5 27.5t-27.5 66.5t27.5 66.5t66.5 27.5
q38 0 66.5 -28t28.5 -66zM1102 905q0 -38 -28 -66t-66 -28q-40 0 -67.5 27.5t-27.5 66.5t27.5 66.5t67.5 27.5q38 0 66 -28t28 -66zM1305 702q0 -38 -28.5 -66t-66.5 -28q-39 0 -66.5 27.5t-27.5 66.5t27.5 67t66.5 28q38 0 66.5 -28.5t28.5 -66.5zM494 1311
q0 -38 -28.5 -66t-66.5 -28t-66 28t-28 66t28 66t66 28t66.5 -28t28.5 -66zM1102 702q0 -38 -28 -66t-66 -28q-40 0 -67.5 28t-27.5 66q0 39 28 67t67 28q38 0 66 -28.5t28 -66.5zM1305 500q0 -38 -28.5 -66t-66.5 -28q-39 0 -66.5 27.5t-27.5 66.5t27.5 66.5t66.5 27.5
q38 0 66.5 -28t28.5 -66zM291 1311q0 -38 -28 -66t-66 -28t-66.5 28t-28.5 66t28.5 66t66.5 28t66 -28t28 -66zM494 1108q0 -38 -28.5 -66t-66.5 -28t-66 28t-28 66t28 66t66 28t66.5 -28t28.5 -66zM899 702q0 -38 -28 -66t-66 -28q-39 0 -66.5 27.5t-27.5 66.5t27.5 67
t66.5 28q38 0 66 -28.5t28 -66.5zM1102 500q0 -38 -28 -66t-66 -28q-40 0 -67.5 28t-27.5 66t27.5 66t67.5 28q38 0 66 -28t28 -66zM1305 297q0 -38 -28.5 -66t-66.5 -28q-39 0 -66.5 27.5t-27.5 66.5t27.5 66.5t66.5 27.5q38 0 66.5 -28t28.5 -66zM291 1108q0 -38 -28 -66
t-66 -28t-66.5 28t-28.5 66t28.5 66t66.5 28t66 -28t28 -66zM494 905q0 -38 -28.5 -66t-66.5 -28t-66 28t-28 66t28 66t66 28t66.5 -28t28.5 -66zM696 702q0 -38 -28 -66t-66 -28t-66 28t-28 66t28 66.5t66 28.5t66 -28.5t28 -66.5zM1102 297q0 -38 -28 -66t-66 -28
q-40 0 -67.5 27.5t-27.5 66.5t27.5 66.5t67.5 27.5q38 0 66 -28t28 -66zM1305 94q0 -38 -28.5 -66t-66.5 -28q-39 0 -66.5 27.5t-27.5 66.5t27.5 66.5t66.5 27.5q38 0 66.5 -28t28.5 -66zM291 905q0 -38 -28 -66t-66 -28t-66.5 28t-28.5 66t28.5 66t66.5 28t66 -28t28 -66z
M494 702q0 -38 -28.5 -66t-66.5 -28t-66 28t-28 66t28 66.5t66 28.5t66.5 -28.5t28.5 -66.5zM1102 94q0 -38 -28 -66t-66 -28q-40 0 -67.5 28t-27.5 66t27.5 66t67.5 28q38 0 66 -28t28 -66zM291 702q0 -38 -28 -66t-66 -28t-66.5 28t-28.5 66t28.5 66.5t66.5 28.5t66 -28.5
t28 -66.5zM494 500q0 -38 -28.5 -66t-66.5 -28t-66 28t-28 66t28 66t66 28t66.5 -28t28.5 -66zM291 500q0 -38 -28 -66t-66 -28t-66.5 28t-28.5 66t28.5 66t66.5 28t66 -28t28 -66zM494 297q0 -38 -28.5 -66t-66.5 -28t-66 28t-28 66t28 66t66 28t66.5 -28t28.5 -66z
M291 297q0 -38 -28 -66t-66 -28t-66.5 28t-28.5 66t28.5 66t66.5 28t66 -28t28 -66zM494 94q0 -38 -28.5 -66t-66.5 -28t-66 28t-28 66t28 66t66 28t66.5 -28t28.5 -66zM291 94q0 -38 -28 -66t-66 -28t-66.5 28t-28.5 66t28.5 66t66.5 28t66 -28t28 -66z" />
    <glyph glyph-name="I" unicode="I" horiz-adv-x="1019" 
d="M899 1311q0 -38 -28 -66t-66 -28q-39 0 -66.5 27.5t-27.5 66.5t27.5 66.5t66.5 27.5q38 0 66 -28t28 -66zM696 1311q0 -38 -28 -66t-66 -28q-39 0 -66.5 27.5t-27.5 66.5t27.5 66.5t66.5 27.5q38 0 66 -28t28 -66zM494 1311q0 -38 -28.5 -66t-66.5 -28t-66 28t-28 66
t28 66t66 28t66.5 -28t28.5 -66zM696 1108q0 -38 -28 -66t-66 -28t-66 28t-28 66t28 66t66 28t66 -28t28 -66zM291 1311q0 -38 -28 -66t-66 -28t-66.5 28t-28.5 66t28.5 66t66.5 28t66 -28t28 -66zM494 1108q0 -38 -28.5 -66t-66.5 -28t-66 28t-28 66t28 66t66 28t66.5 -28
t28.5 -66zM696 905q0 -38 -28 -66t-66 -28t-66 28t-28 66t28 66t66 28t66 -28t28 -66zM494 905q0 -38 -28.5 -66t-66.5 -28t-66 28t-28 66t28 66t66 28t66.5 -28t28.5 -66zM696 702q0 -38 -28 -66t-66 -28t-66 28t-28 66t28 66.5t66 28.5t66 -28.5t28 -66.5zM494 702
q0 -38 -28.5 -66t-66.5 -28t-66 28t-28 66t28 66.5t66 28.5t66.5 -28.5t28.5 -66.5zM696 500q0 -38 -28 -66t-66 -28t-66 28t-28 66t28 66t66 28t66 -28t28 -66zM494 500q0 -38 -28.5 -66t-66.5 -28t-66 28t-28 66t28 66t66 28t66.5 -28t28.5 -66zM696 297q0 -38 -28 -66
t-66 -28t-66 28t-28 66t28 66t66 28t66 -28t28 -66zM899 94q0 -38 -28 -66t-66 -28q-39 0 -66.5 27.5t-27.5 66.5t27.5 66.5t66.5 27.5q38 0 66 -28t28 -66zM494 297q0 -38 -28.5 -66t-66.5 -28t-66 28t-28 66t28 66t66 28t66.5 -28t28.5 -66zM696 94q0 -38 -28 -66t-66 -28
q-39 0 -66.5 27.5t-27.5 66.5t27.5 66.5t66.5 27.5q38 0 66 -28t28 -66zM494 94q0 -38 -28.5 -66t-66.5 -28t-66 28t-28 66t28 66t66 28t66.5 -28t28.5 -66zM291 94q0 -38 -28 -66t-66 -28t-66.5 28t-28.5 66t28.5 66t66.5 28t66 -28t28 -66z" />
    <glyph glyph-name="J" unicode="J" 
d="M1305 1311q0 -38 -28.5 -66t-66.5 -28q-39 0 -66.5 27.5t-27.5 66.5t27.5 66.5t66.5 27.5q38 0 66.5 -28t28.5 -66zM1102 1311q0 -38 -28 -66t-66 -28q-40 0 -67.5 27.5t-27.5 66.5t27.5 66.5t67.5 27.5q38 0 66 -28t28 -66zM899 1311q0 -38 -28 -66t-66 -28
q-39 0 -66.5 27.5t-27.5 66.5t27.5 66.5t66.5 27.5q38 0 66 -28t28 -66zM1102 1108q0 -38 -28 -66t-66 -28q-40 0 -67.5 28t-27.5 66t27.5 66t67.5 28q38 0 66 -28t28 -66zM696 1311q0 -38 -28 -66t-66 -28t-66 28t-28 66t28 66t66 28t66 -28t28 -66zM899 1108
q0 -38 -28 -66t-66 -28q-39 0 -66.5 27.5t-27.5 66.5t27.5 66.5t66.5 27.5q38 0 66 -28t28 -66zM1102 905q0 -38 -28 -66t-66 -28q-40 0 -67.5 27.5t-27.5 66.5t27.5 66.5t67.5 27.5q38 0 66 -28t28 -66zM899 905q0 -38 -28 -66t-66 -28q-39 0 -66.5 27.5t-27.5 66.5
t27.5 66.5t66.5 27.5q38 0 66 -28t28 -66zM1102 702q0 -38 -28 -66t-66 -28q-40 0 -67.5 28t-27.5 66q0 39 28 67t67 28q38 0 66 -28.5t28 -66.5zM899 702q0 -38 -28 -66t-66 -28q-39 0 -66.5 27.5t-27.5 66.5t27.5 67t66.5 28q38 0 66 -28.5t28 -66.5zM1102 500
q0 -38 -28 -66t-66 -28q-40 0 -67.5 28t-27.5 66t27.5 66t67.5 28q38 0 66 -28t28 -66zM899 500q0 -38 -28 -66t-66 -28q-39 0 -66.5 27.5t-27.5 66.5t27.5 66.5t66.5 27.5q38 0 66 -28t28 -66zM1102 297q0 -38 -28 -66t-66 -28q-40 0 -67.5 27.5t-27.5 66.5t27.5 66.5
t67.5 27.5q38 0 66 -28t28 -66zM899 297q0 -38 -28 -66t-66 -28q-39 0 -66.5 27.5t-27.5 66.5t27.5 66.5t66.5 27.5q38 0 66 -28t28 -66zM494 500q0 -38 -28.5 -66t-66.5 -28t-66 28t-28 66t28 66t66 28t66.5 -28t28.5 -66zM899 94q0 -38 -28 -66t-66 -28t-66 28t-28 66
t28 66t66 28t66 -28t28 -66zM291 500q0 -38 -28 -66t-66 -28t-66.5 28t-28.5 66t28.5 66t66.5 28t66 -28t28 -66zM494 297q0 -38 -28.5 -66t-66.5 -28t-66 28t-28 66t28 66t66 28t66.5 -28t28.5 -66zM696 94q0 -38 -28 -66t-66 -28t-66 28t-28 66t28 66t66 28t66 -28t28 -66
zM291 297q0 -38 -28 -66t-66 -28t-66.5 28t-28.5 66t28.5 66t66.5 28t66 -28t28 -66zM494 94q0 -38 -28.5 -66t-66.5 -28t-66 28t-28 66t28 66t66 28t66.5 -28t28.5 -66z" />
    <glyph glyph-name="K" unicode="K" 
d="M1305 1311q0 -38 -28.5 -66t-66.5 -28q-39 0 -66.5 27.5t-27.5 66.5t27.5 66.5t66.5 27.5q38 0 66.5 -28t28.5 -66zM1102 1311q0 -38 -28 -66t-66 -28q-40 0 -67.5 27.5t-27.5 66.5t27.5 66.5t67.5 27.5q38 0 66 -28t28 -66zM1102 1108q0 -38 -28 -66t-66 -28
q-40 0 -67.5 28t-27.5 66t27.5 66t67.5 28q38 0 66 -28t28 -66zM899 1108q0 -38 -28 -66t-66 -28q-39 0 -66.5 27.5t-27.5 66.5t27.5 66.5t66.5 27.5q38 0 66 -28t28 -66zM494 1311q0 -38 -28.5 -66t-66.5 -28t-66 28t-28 66t28 66t66 28t66.5 -28t28.5 -66zM899 905
q0 -38 -28 -66t-66 -28t-66 28t-28 66t28 66t66 28t66 -28t28 -66zM291 1311q0 -38 -28 -66t-66 -28t-66.5 28t-28.5 66t28.5 66t66.5 28t66 -28t28 -66zM494 1108q0 -38 -28.5 -66t-66.5 -28t-66 28t-28 66t28 66t66 28t66.5 -28t28.5 -66zM696 905q0 -38 -28 -66t-66 -28
t-66 28t-28 66t28 66t66 28t66 -28t28 -66zM291 1108q0 -38 -28 -66t-66 -28t-66.5 28t-28.5 66t28.5 66t66.5 28t66 -28t28 -66zM494 905q0 -38 -28.5 -66t-66.5 -28t-66 28t-28 66t28 66t66 28t66.5 -28t28.5 -66zM696 702q0 -38 -28 -66t-66 -28t-66 28t-28 66t28 66.5
t66 28.5t66 -28.5t28 -66.5zM899 500q0 -38 -28 -66t-66 -28t-66 28t-28 66t28 66t66 28t66 -28t28 -66zM1102 297q0 -38 -28 -66t-66 -28q-40 0 -67.5 27.5t-27.5 66.5t27.5 66.5t67.5 27.5q38 0 66 -28t28 -66zM1305 94q0 -38 -28.5 -66t-66.5 -28q-39 0 -66.5 27.5
t-27.5 66.5t27.5 66.5t66.5 27.5q38 0 66.5 -28t28.5 -66zM291 905q0 -38 -28 -66t-66 -28t-66.5 28t-28.5 66t28.5 66t66.5 28t66 -28t28 -66zM494 702q0 -38 -28.5 -66t-66.5 -28t-66 28t-28 66t28 66.5t66 28.5t66.5 -28.5t28.5 -66.5zM696 500q0 -38 -28 -66t-66 -28
t-66 28t-28 66t28 66t66 28t66 -28t28 -66zM899 297q0 -38 -28 -66t-66 -28q-39 0 -66.5 27.5t-27.5 66.5t27.5 66.5t66.5 27.5q38 0 66 -28t28 -66zM1102 94q0 -38 -28 -66t-66 -28q-40 0 -67.5 28t-27.5 66t27.5 66t67.5 28q38 0 66 -28t28 -66zM291 702q0 -38 -28 -66
t-66 -28t-66.5 28t-28.5 66t28.5 66.5t66.5 28.5t66 -28.5t28 -66.5zM494 500q0 -38 -28.5 -66t-66.5 -28t-66 28t-28 66t28 66t66 28t66.5 -28t28.5 -66zM291 500q0 -38 -28 -66t-66 -28t-66.5 28t-28.5 66t28.5 66t66.5 28t66 -28t28 -66zM494 297q0 -38 -28.5 -66
t-66.5 -28t-66 28t-28 66t28 66t66 28t66.5 -28t28.5 -66zM291 297q0 -38 -28 -66t-66 -28t-66.5 28t-28.5 66t28.5 66t66.5 28t66 -28t28 -66zM494 94q0 -38 -28.5 -66t-66.5 -28t-66 28t-28 66t28 66t66 28t66.5 -28t28.5 -66zM291 94q0 -38 -28 -66t-66 -28t-66.5 28
t-28.5 66t28.5 66t66.5 28t66 -28t28 -66z" />
    <glyph glyph-name="L" unicode="L" 
d="M494 1311q0 -38 -28.5 -66t-66.5 -28t-66 28t-28 66t28 66t66 28t66.5 -28t28.5 -66zM291 1311q0 -38 -28 -66t-66 -28t-66.5 28t-28.5 66t28.5 66t66.5 28t66 -28t28 -66zM494 1108q0 -38 -28.5 -66t-66.5 -28t-66 28t-28 66t28 66t66 28t66.5 -28t28.5 -66zM291 1108
q0 -38 -28 -66t-66 -28t-66.5 28t-28.5 66t28.5 66t66.5 28t66 -28t28 -66zM494 905q0 -38 -28.5 -66t-66.5 -28t-66 28t-28 66t28 66t66 28t66.5 -28t28.5 -66zM1305 94q0 -38 -28.5 -66t-66.5 -28q-39 0 -66.5 27.5t-27.5 66.5t27.5 66.5t66.5 27.5q38 0 66.5 -28
t28.5 -66zM291 905q0 -38 -28 -66t-66 -28t-66.5 28t-28.5 66t28.5 66t66.5 28t66 -28t28 -66zM494 702q0 -38 -28.5 -66t-66.5 -28t-66 28t-28 66t28 66.5t66 28.5t66.5 -28.5t28.5 -66.5zM1102 94q0 -38 -28 -66t-66 -28q-40 0 -67.5 28t-27.5 66t27.5 66t67.5 28
q38 0 66 -28t28 -66zM291 702q0 -38 -28 -66t-66 -28t-66.5 28t-28.5 66t28.5 66.5t66.5 28.5t66 -28.5t28 -66.5zM494 500q0 -38 -28.5 -66t-66.5 -28t-66 28t-28 66t28 66t66 28t66.5 -28t28.5 -66zM899 94q0 -38 -28 -66t-66 -28q-39 0 -66.5 27.5t-27.5 66.5t27.5 66.5
t66.5 27.5q38 0 66 -28t28 -66zM291 500q0 -38 -28 -66t-66 -28t-66.5 28t-28.5 66t28.5 66t66.5 28t66 -28t28 -66zM494 297q0 -38 -28.5 -66t-66.5 -28t-66 28t-28 66t28 66t66 28t66.5 -28t28.5 -66zM696 94q0 -38 -28 -66t-66 -28t-66 28t-28 66t28 66t66 28t66 -28
t28 -66zM291 297q0 -38 -28 -66t-66 -28t-66.5 28t-28.5 66t28.5 66t66.5 28t66 -28t28 -66zM494 94q0 -38 -28.5 -66t-66.5 -28t-66 28t-28 66t28 66t66 28t66.5 -28t28.5 -66zM291 94q0 -38 -28 -66t-66 -28t-66.5 28t-28.5 66t28.5 66t66.5 28t66 -28t28 -66z" />
    <glyph glyph-name="M" unicode="M" horiz-adv-x="1812" 
d="M1507 1311q0 -38 -28 -66t-66 -28t-66 28t-28 66t28 66t66 28t66 -28t28 -66zM1710 1108q0 -38 -28 -66t-66 -28t-66 28t-28 66t28 66t66 28t66 -28t28 -66zM1305 1311q0 -38 -28.5 -66t-66.5 -28t-66 28t-28 66t28 66t66 28t66.5 -28t28.5 -66zM1507 1108q0 -38 -28 -66
t-66 -28t-66 28t-28 66t28 66t66 28t66 -28t28 -66zM1710 905q0 -38 -28 -66t-66 -28t-66 28t-28 66t28 66t66 28t66 -28t28 -66zM1305 1108q0 -38 -28.5 -66t-66.5 -28t-66 28t-28 66t28 66t66 28t66.5 -28t28.5 -66zM1507 905q0 -38 -28 -66t-66 -28t-66 28t-28 66t28 66
t66 28t66 -28t28 -66zM1710 702q0 -38 -28 -66t-66 -28t-66 28t-28 66t28 66.5t66 28.5t66 -28.5t28 -66.5zM1102 1108q0 -38 -28 -66t-66 -28t-66.5 28t-28.5 66t28.5 66t66.5 28t66 -28t28 -66zM1305 905q0 -38 -28.5 -66t-66.5 -28t-66 28t-28 66t28 66t66 28t66.5 -28
t28.5 -66zM1507 702q0 -38 -28 -66t-66 -28t-66 28t-28 66t28 66.5t66 28.5t66 -28.5t28 -66.5zM1710 500q0 -38 -28 -66t-66 -28t-66 28t-28 66t28 66t66 28t66 -28t28 -66zM696 1311q0 -39 -27.5 -66.5t-66.5 -27.5q-38 0 -66 28t-28 66t28 66t66 28q39 0 66.5 -27.5
t27.5 -66.5zM899 1108q0 -38 -28 -66t-66 -28t-66 28t-28 66t28 66t66 28t66 -28t28 -66zM1102 905q0 -38 -28 -66t-66 -28t-66.5 28t-28.5 66t28.5 66t66.5 28t66 -28t28 -66zM1507 500q0 -38 -28 -66t-66 -28t-66 28t-28 66t28 66t66 28t66 -28t28 -66zM1710 297
q0 -38 -28 -66t-66 -28t-66 28t-28 66t28 66t66 28t66 -28t28 -66zM494 1311q0 -39 -28 -66.5t-67 -27.5q-38 0 -66 28t-28 66t28 66t66 28q39 0 67 -27.5t28 -66.5zM696 1108q0 -38 -28 -66t-66 -28t-66 28t-28 66t28 66t66 28t66 -28t28 -66zM899 905q0 -38 -28 -66
t-66 -28t-66 28t-28 66t28 66t66 28t66 -28t28 -66zM1102 702q0 -38 -28 -66t-66 -28t-66.5 28t-28.5 66t28.5 66.5t66.5 28.5t66 -28.5t28 -66.5zM1507 297q0 -38 -28 -66t-66 -28t-66 28t-28 66t28 66t66 28t66 -28t28 -66zM1710 94q0 -38 -28 -66t-66 -28t-66 28t-28 66
t28 66t66 28t66 -28t28 -66zM494 1108q0 -38 -28 -66t-67 -28q-38 0 -66 28t-28 66t28 66t66 28q39 0 67 -28t28 -66zM696 905q0 -39 -27.5 -66.5t-66.5 -27.5q-38 0 -66 28t-28 66t28 66t66 28q39 0 66.5 -27.5t27.5 -66.5zM899 702q0 -38 -28 -66t-66 -28t-66 28t-28 66
t28 66.5t66 28.5t66 -28.5t28 -66.5zM1102 500q0 -38 -28 -66t-66 -28t-66.5 28t-28.5 66t28.5 66t66.5 28t66 -28t28 -66zM1507 94q0 -38 -28 -66t-66 -28t-66 28t-28 66t28 66t66 28t66 -28t28 -66zM291 1108q0 -39 -27.5 -66.5t-66.5 -27.5q-38 0 -66.5 28t-28.5 66
t28.5 66t66.5 28q39 0 66.5 -27.5t27.5 -66.5zM494 905q0 -39 -28 -66.5t-67 -27.5q-38 0 -66 28t-28 66t28 66t66 28q39 0 67 -27.5t28 -66.5zM899 500q0 -38 -28 -66t-66 -28t-66 28t-28 66t28 66t66 28t66 -28t28 -66zM291 905q0 -39 -27.5 -66.5t-66.5 -27.5
q-38 0 -66.5 28t-28.5 66t28.5 66t66.5 28q39 0 66.5 -27.5t27.5 -66.5zM494 702q0 -38 -28 -66t-67 -28q-38 0 -66 28t-28 66t28 66.5t66 28.5q39 0 67 -28t28 -67zM291 702q0 -39 -27.5 -66.5t-66.5 -27.5q-38 0 -66.5 28t-28.5 66t28.5 66.5t66.5 28.5q39 0 66.5 -28
t27.5 -67zM494 500q0 -38 -28 -66t-67 -28q-38 0 -66 28t-28 66t28 66t66 28q39 0 67 -28t28 -66zM291 500q0 -39 -27.5 -66.5t-66.5 -27.5q-38 0 -66.5 28t-28.5 66t28.5 66t66.5 28q39 0 66.5 -27.5t27.5 -66.5zM494 297q0 -39 -28 -66.5t-67 -27.5q-38 0 -66 28t-28 66
t28 66t66 28q39 0 67 -27.5t28 -66.5zM291 297q0 -39 -27.5 -66.5t-66.5 -27.5q-38 0 -66.5 28t-28.5 66t28.5 66t66.5 28q39 0 66.5 -27.5t27.5 -66.5zM494 94q0 -38 -28 -66t-67 -28q-38 0 -66 28t-28 66t28 66t66 28q39 0 67 -28t28 -66zM291 94q0 -39 -27.5 -66.5
t-66.5 -27.5q-38 0 -66.5 28t-28.5 66t28.5 66t66.5 28q39 0 66.5 -27.5t27.5 -66.5z" />
    <glyph glyph-name="N" unicode="N" 
d="M1305 1311q0 -38 -28.5 -66t-66.5 -28q-39 0 -66.5 27.5t-27.5 66.5t27.5 66.5t66.5 27.5q38 0 66.5 -28t28.5 -66zM1102 1311q0 -38 -28 -66t-66 -28q-40 0 -67.5 27.5t-27.5 66.5t27.5 66.5t67.5 27.5q38 0 66 -28t28 -66zM1305 1108q0 -38 -28.5 -66t-66.5 -28
q-39 0 -66.5 27.5t-27.5 66.5t27.5 66.5t66.5 27.5q38 0 66.5 -28t28.5 -66zM1102 1108q0 -38 -28 -66t-66 -28q-40 0 -67.5 28t-27.5 66t27.5 66t67.5 28q38 0 66 -28t28 -66zM1305 905q0 -38 -28.5 -66t-66.5 -28q-39 0 -66.5 27.5t-27.5 66.5t27.5 66.5t66.5 27.5
q38 0 66.5 -28t28.5 -66zM1102 905q0 -38 -28 -66t-66 -28q-40 0 -67.5 27.5t-27.5 66.5t27.5 66.5t67.5 27.5q38 0 66 -28t28 -66zM1305 702q0 -38 -28.5 -66t-66.5 -28q-39 0 -66.5 27.5t-27.5 66.5t27.5 67t66.5 28q38 0 66.5 -28.5t28.5 -66.5zM494 1311
q0 -38 -28.5 -66t-66.5 -28t-66 28t-28 66t28 66t66 28t66.5 -28t28.5 -66zM1102 702q0 -38 -28 -66t-66 -28q-40 0 -67.5 28t-27.5 66q0 39 28 67t67 28q38 0 66 -28.5t28 -66.5zM1305 500q0 -38 -28.5 -66t-66.5 -28q-39 0 -66.5 27.5t-27.5 66.5t27.5 66.5t66.5 27.5
q38 0 66.5 -28t28.5 -66zM291 1311q0 -38 -28 -66t-66 -28t-66.5 28t-28.5 66t28.5 66t66.5 28t66 -28t28 -66zM494 1108q0 -38 -28.5 -66t-66.5 -28t-66 28t-28 66t28 66t66 28t66.5 -28t28.5 -66zM696 905q0 -38 -28 -66t-66 -28t-66 28t-28 66t28 66t66 28t66 -28t28 -66
zM899 702q0 -38 -28 -66t-66 -28t-66 28t-28 66t28 66.5t66 28.5t66 -28.5t28 -66.5zM1102 500q0 -38 -28 -66t-66 -28q-40 0 -67.5 28t-27.5 66t27.5 66t67.5 28q38 0 66 -28t28 -66zM1305 297q0 -38 -28.5 -66t-66.5 -28q-39 0 -66.5 27.5t-27.5 66.5t27.5 66.5t66.5 27.5
q38 0 66.5 -28t28.5 -66zM291 1108q0 -38 -28 -66t-66 -28t-66.5 28t-28.5 66t28.5 66t66.5 28t66 -28t28 -66zM494 905q0 -38 -28.5 -66t-66.5 -28t-66 28t-28 66t28 66t66 28t66.5 -28t28.5 -66zM696 702q0 -38 -28 -66t-66 -28t-66 28t-28 66t28 66.5t66 28.5t66 -28.5
t28 -66.5zM899 500q0 -38 -28 -66t-66 -28q-39 0 -66.5 27.5t-27.5 66.5t27.5 66.5t66.5 27.5q38 0 66 -28t28 -66zM1102 297q0 -38 -28 -66t-66 -28q-40 0 -67.5 27.5t-27.5 66.5t27.5 66.5t67.5 27.5q38 0 66 -28t28 -66zM1305 94q0 -38 -28.5 -66t-66.5 -28
q-39 0 -66.5 27.5t-27.5 66.5t27.5 66.5t66.5 27.5q38 0 66.5 -28t28.5 -66zM291 905q0 -38 -28 -66t-66 -28t-66.5 28t-28.5 66t28.5 66t66.5 28t66 -28t28 -66zM494 702q0 -38 -28.5 -66t-66.5 -28t-66 28t-28 66t28 66.5t66 28.5t66.5 -28.5t28.5 -66.5zM1102 94
q0 -38 -28 -66t-66 -28q-40 0 -67.5 28t-27.5 66t27.5 66t67.5 28q38 0 66 -28t28 -66zM291 702q0 -38 -28 -66t-66 -28t-66.5 28t-28.5 66t28.5 66.5t66.5 28.5t66 -28.5t28 -66.5zM494 500q0 -38 -28.5 -66t-66.5 -28t-66 28t-28 66t28 66t66 28t66.5 -28t28.5 -66z
M291 500q0 -38 -28 -66t-66 -28t-66.5 28t-28.5 66t28.5 66t66.5 28t66 -28t28 -66zM494 297q0 -38 -28.5 -66t-66.5 -28t-66 28t-28 66t28 66t66 28t66.5 -28t28.5 -66zM291 297q0 -38 -28 -66t-66 -28t-66.5 28t-28.5 66t28.5 66t66.5 28t66 -28t28 -66zM494 94
q0 -38 -28.5 -66t-66.5 -28t-66 28t-28 66t28 66t66 28t66.5 -28t28.5 -66zM291 94q0 -38 -28 -66t-66 -28t-66.5 28t-28.5 66t28.5 66t66.5 28t66 -28t28 -66z" />
    <glyph glyph-name="O" unicode="O" 
d="M1102 1311q0 -38 -28 -66t-66 -28q-40 0 -67.5 27.5t-27.5 66.5t27.5 66.5t67.5 27.5q38 0 66 -28t28 -66zM1305 1108q0 -38 -28.5 -66t-66.5 -28q-39 0 -66.5 27.5t-27.5 66.5t27.5 66.5t66.5 27.5q38 0 66.5 -28t28.5 -66zM899 1311q0 -38 -28 -66t-66 -28
q-39 0 -66.5 27.5t-27.5 66.5t27.5 66.5t66.5 27.5q38 0 66 -28t28 -66zM1102 1108q0 -38 -28 -66t-66 -28q-40 0 -67.5 28t-27.5 66t27.5 66t67.5 28q38 0 66 -28t28 -66zM1305 905q0 -38 -28.5 -66t-66.5 -28q-39 0 -66.5 27.5t-27.5 66.5t27.5 66.5t66.5 27.5
q38 0 66.5 -28t28.5 -66zM696 1311q0 -38 -28 -66t-66 -28t-66 28t-28 66t28 66t66 28t66 -28t28 -66zM1102 905q0 -38 -28 -66t-66 -28q-40 0 -67.5 27.5t-27.5 66.5t27.5 66.5t67.5 27.5q38 0 66 -28t28 -66zM1305 702q0 -38 -28.5 -66t-66.5 -28q-39 0 -66.5 27.5
t-27.5 66.5t27.5 67t66.5 28q38 0 66.5 -28.5t28.5 -66.5zM494 1311q0 -38 -28.5 -66t-66.5 -28t-66 28t-28 66t28 66t66 28t66.5 -28t28.5 -66zM1102 702q0 -38 -28 -66t-66 -28q-40 0 -67.5 28t-27.5 66q0 39 28 67t67 28q38 0 66 -28.5t28 -66.5zM1305 500
q0 -38 -28.5 -66t-66.5 -28q-39 0 -66.5 27.5t-27.5 66.5t27.5 66.5t66.5 27.5q38 0 66.5 -28t28.5 -66zM494 1108q0 -38 -28.5 -66t-66.5 -28t-66 28t-28 66t28 66t66 28t66.5 -28t28.5 -66zM1102 500q0 -38 -28 -66t-66 -28q-40 0 -67.5 28t-27.5 66t27.5 66t67.5 28
q38 0 66 -28t28 -66zM1305 297q0 -38 -28.5 -66t-66.5 -28q-39 0 -66.5 27.5t-27.5 66.5t27.5 66.5t66.5 27.5q38 0 66.5 -28t28.5 -66zM291 1108q0 -38 -28 -66t-66 -28t-66.5 28t-28.5 66t28.5 66t66.5 28t66 -28t28 -66zM494 905q0 -38 -28.5 -66t-66.5 -28t-66 28
t-28 66t28 66t66 28t66.5 -28t28.5 -66zM1102 297q0 -38 -28 -66t-66 -28q-40 0 -67.5 27.5t-27.5 66.5t27.5 66.5t67.5 27.5q38 0 66 -28t28 -66zM291 905q0 -38 -28 -66t-66 -28t-66.5 28t-28.5 66t28.5 66t66.5 28t66 -28t28 -66zM494 702q0 -38 -28.5 -66t-66.5 -28
t-66 28t-28 66t28 66.5t66 28.5t66.5 -28.5t28.5 -66.5zM1102 94q0 -38 -28 -66t-66 -28q-40 0 -67.5 28t-27.5 66t27.5 66t67.5 28q38 0 66 -28t28 -66zM291 702q0 -38 -28 -66t-66 -28t-66.5 28t-28.5 66t28.5 66.5t66.5 28.5t66 -28.5t28 -66.5zM494 500q0 -38 -28.5 -66
t-66.5 -28t-66 28t-28 66t28 66t66 28t66.5 -28t28.5 -66zM899 94q0 -38 -28 -66t-66 -28q-39 0 -66.5 27.5t-27.5 66.5t27.5 66.5t66.5 27.5q38 0 66 -28t28 -66zM291 500q0 -38 -28 -66t-66 -28t-66.5 28t-28.5 66t28.5 66t66.5 28t66 -28t28 -66zM494 297
q0 -38 -28.5 -66t-66.5 -28t-66 28t-28 66t28 66t66 28t66.5 -28t28.5 -66zM696 94q0 -38 -28 -66t-66 -28t-66 28t-28 66t28 66t66 28t66 -28t28 -66zM291 297q0 -38 -28 -66t-66 -28t-66.5 28t-28.5 66t28.5 66t66.5 28t66 -28t28 -66zM494 94q0 -38 -28.5 -66t-66.5 -28
t-66 28t-28 66t28 66t66 28t66.5 -28t28.5 -66z" />
    <glyph glyph-name="P" unicode="P" 
d="M1102 1311q0 -38 -28 -66t-66 -28q-40 0 -67.5 27.5t-27.5 66.5t27.5 66.5t67.5 27.5q38 0 66 -28t28 -66zM1305 1108q0 -38 -28.5 -66t-66.5 -28q-39 0 -66.5 27.5t-27.5 66.5t27.5 66.5t66.5 27.5q38 0 66.5 -28t28.5 -66zM899 1311q0 -38 -28 -66t-66 -28
q-39 0 -66.5 27.5t-27.5 66.5t27.5 66.5t66.5 27.5q38 0 66 -28t28 -66zM1102 1108q0 -38 -28 -66t-66 -28q-40 0 -67.5 28t-27.5 66t27.5 66t67.5 28q38 0 66 -28t28 -66zM1305 905q0 -38 -28.5 -66t-66.5 -28q-39 0 -66.5 27.5t-27.5 66.5t27.5 66.5t66.5 27.5
q38 0 66.5 -28t28.5 -66zM696 1311q0 -38 -28 -66t-66 -28t-66 28t-28 66t28 66t66 28t66 -28t28 -66zM1102 905q0 -38 -28 -66t-66 -28q-40 0 -67.5 27.5t-27.5 66.5t27.5 66.5t67.5 27.5q38 0 66 -28t28 -66zM494 1311q0 -38 -28.5 -66t-66.5 -28t-66 28t-28 66t28 66
t66 28t66.5 -28t28.5 -66zM1102 702q0 -38 -28 -66t-66 -28q-40 0 -67.5 28t-27.5 66q0 39 28 67t67 28q38 0 66 -28.5t28 -66.5zM291 1311q0 -38 -28 -66t-66 -28t-66.5 28t-28.5 66t28.5 66t66.5 28t66 -28t28 -66zM494 1108q0 -38 -28.5 -66t-66.5 -28t-66 28t-28 66
t28 66t66 28t66.5 -28t28.5 -66zM899 702q0 -38 -28 -66t-66 -28q-39 0 -66.5 27.5t-27.5 66.5t27.5 67t66.5 28q38 0 66 -28.5t28 -66.5zM291 1108q0 -38 -28 -66t-66 -28t-66.5 28t-28.5 66t28.5 66t66.5 28t66 -28t28 -66zM494 905q0 -38 -28.5 -66t-66.5 -28t-66 28
t-28 66t28 66t66 28t66.5 -28t28.5 -66zM696 702q0 -38 -28 -66t-66 -28t-66 28t-28 66t28 66.5t66 28.5t66 -28.5t28 -66.5zM291 905q0 -38 -28 -66t-66 -28t-66.5 28t-28.5 66t28.5 66t66.5 28t66 -28t28 -66zM494 702q0 -38 -28.5 -66t-66.5 -28t-66 28t-28 66t28 66.5
t66 28.5t66.5 -28.5t28.5 -66.5zM291 702q0 -38 -28 -66t-66 -28t-66.5 28t-28.5 66t28.5 66.5t66.5 28.5t66 -28.5t28 -66.5zM494 500q0 -38 -28.5 -66t-66.5 -28t-66 28t-28 66t28 66t66 28t66.5 -28t28.5 -66zM291 500q0 -38 -28 -66t-66 -28t-66.5 28t-28.5 66t28.5 66
t66.5 28t66 -28t28 -66zM494 297q0 -38 -28.5 -66t-66.5 -28t-66 28t-28 66t28 66t66 28t66.5 -28t28.5 -66zM291 297q0 -38 -28 -66t-66 -28t-66.5 28t-28.5 66t28.5 66t66.5 28t66 -28t28 -66zM494 94q0 -38 -28.5 -66t-66.5 -28t-66 28t-28 66t28 66t66 28t66.5 -28
t28.5 -66zM291 94q0 -38 -28 -66t-66 -28t-66.5 28t-28.5 66t28.5 66t66.5 28t66 -28t28 -66z" />
    <glyph glyph-name="Q" unicode="Q" 
d="M1102 1311q0 -38 -28 -66t-66 -28q-40 0 -67.5 27.5t-27.5 66.5t27.5 66.5t67.5 27.5q38 0 66 -28t28 -66zM1305 1108q0 -38 -28.5 -66t-66.5 -28q-39 0 -66.5 27.5t-27.5 66.5t27.5 66.5t66.5 27.5q38 0 66.5 -28t28.5 -66zM899 1311q0 -38 -28 -66t-66 -28
q-39 0 -66.5 27.5t-27.5 66.5t27.5 66.5t66.5 27.5q38 0 66 -28t28 -66zM1102 1108q0 -38 -28 -66t-66 -28q-40 0 -67.5 28t-27.5 66t27.5 66t67.5 28q38 0 66 -28t28 -66zM1305 905q0 -38 -28.5 -66t-66.5 -28q-39 0 -66.5 27.5t-27.5 66.5t27.5 66.5t66.5 27.5
q38 0 66.5 -28t28.5 -66zM696 1311q0 -38 -28 -66t-66 -28t-66 28t-28 66t28 66t66 28t66 -28t28 -66zM1102 905q0 -38 -28 -66t-66 -28q-40 0 -67.5 27.5t-27.5 66.5t27.5 66.5t67.5 27.5q38 0 66 -28t28 -66zM1305 702q0 -38 -28.5 -66t-66.5 -28q-39 0 -66.5 27.5
t-27.5 66.5t27.5 67t66.5 28q38 0 66.5 -28.5t28.5 -66.5zM494 1311q0 -38 -28.5 -66t-66.5 -28t-66 28t-28 66t28 66t66 28t66.5 -28t28.5 -66zM1102 702q0 -38 -28 -66t-66 -28q-40 0 -67.5 28t-27.5 66q0 39 28 67t67 28q38 0 66 -28.5t28 -66.5zM1305 500
q0 -38 -28.5 -66t-66.5 -28q-39 0 -66.5 27.5t-27.5 66.5t27.5 66.5t66.5 27.5q38 0 66.5 -28t28.5 -66zM494 1108q0 -38 -28.5 -66t-66.5 -28t-66 28t-28 66t28 66t66 28t66.5 -28t28.5 -66zM1102 500q0 -38 -28 -66t-66 -28q-40 0 -67.5 28t-27.5 66t27.5 66t67.5 28
q38 0 66 -28t28 -66zM1305 297q0 -38 -28.5 -66t-66.5 -28q-39 0 -66.5 27.5t-27.5 66.5t27.5 66.5t66.5 27.5q38 0 66.5 -28t28.5 -66zM291 1108q0 -38 -28 -66t-66 -28t-66.5 28t-28.5 66t28.5 66t66.5 28t66 -28t28 -66zM494 905q0 -38 -28.5 -66t-66.5 -28t-66 28
t-28 66t28 66t66 28t66.5 -28t28.5 -66zM1102 297q0 -38 -28 -66t-66 -28q-40 0 -67.5 27.5t-27.5 66.5t27.5 66.5t67.5 27.5q38 0 66 -28t28 -66zM291 905q0 -38 -28 -66t-66 -28t-66.5 28t-28.5 66t28.5 66t66.5 28t66 -28t28 -66zM494 702q0 -38 -28.5 -66t-66.5 -28
t-66 28t-28 66t28 66.5t66 28.5t66.5 -28.5t28.5 -66.5zM899 297q0 -38 -28 -66t-66 -28t-66 28t-28 66t28 66t66 28t66 -28t28 -66zM1102 94q0 -38 -28 -66t-66 -28q-40 0 -67.5 28t-27.5 66t27.5 66t67.5 28q38 0 66 -28t28 -66zM1305 -109q0 -38 -28.5 -66t-66.5 -28
q-39 0 -66.5 27.5t-27.5 66.5q0 40 27 67.5t67 27.5q39 0 67 -28t28 -67zM291 702q0 -38 -28 -66t-66 -28t-66.5 28t-28.5 66t28.5 66.5t66.5 28.5t66 -28.5t28 -66.5zM494 500q0 -38 -28.5 -66t-66.5 -28t-66 28t-28 66t28 66t66 28t66.5 -28t28.5 -66zM696 297
q0 -38 -28 -66t-66 -28t-66 28t-28 66t28 66t66 28t66 -28t28 -66zM899 94q0 -38 -28 -66t-66 -28q-39 0 -66.5 27.5t-27.5 66.5t27.5 66.5t66.5 27.5q38 0 66 -28t28 -66zM1102 -109q0 -38 -28 -66t-66 -28q-40 0 -67.5 27.5t-27.5 66.5q0 40 27.5 67.5t67.5 27.5
q38 0 66 -28t28 -67zM291 500q0 -38 -28 -66t-66 -28t-66.5 28t-28.5 66t28.5 66t66.5 28t66 -28t28 -66zM494 297q0 -38 -28.5 -66t-66.5 -28t-66 28t-28 66t28 66t66 28t66.5 -28t28.5 -66zM696 94q0 -38 -28 -66t-66 -28t-66 28t-28 66t28 66t66 28t66 -28t28 -66z
M291 297q0 -38 -28 -66t-66 -28t-66.5 28t-28.5 66t28.5 66t66.5 28t66 -28t28 -66zM494 94q0 -38 -28.5 -66t-66.5 -28t-66 28t-28 66t28 66t66 28t66.5 -28t28.5 -66z" />
    <glyph glyph-name="R" unicode="R" 
d="M1102 1311q0 -38 -28 -66t-66 -28q-40 0 -67.5 27.5t-27.5 66.5t27.5 66.5t67.5 27.5q38 0 66 -28t28 -66zM1305 1108q0 -38 -28.5 -66t-66.5 -28q-39 0 -66.5 27.5t-27.5 66.5t27.5 66.5t66.5 27.5q38 0 66.5 -28t28.5 -66zM899 1311q0 -38 -28 -66t-66 -28
q-39 0 -66.5 27.5t-27.5 66.5t27.5 66.5t66.5 27.5q38 0 66 -28t28 -66zM1102 1108q0 -38 -28 -66t-66 -28q-40 0 -67.5 28t-27.5 66t27.5 66t67.5 28q38 0 66 -28t28 -66zM1305 905q0 -38 -28.5 -66t-66.5 -28q-39 0 -66.5 27.5t-27.5 66.5t27.5 66.5t66.5 27.5
q38 0 66.5 -28t28.5 -66zM696 1311q0 -38 -28 -66t-66 -28t-66 28t-28 66t28 66t66 28t66 -28t28 -66zM1102 905q0 -38 -28 -66t-66 -28q-40 0 -67.5 27.5t-27.5 66.5t27.5 66.5t67.5 27.5q38 0 66 -28t28 -66zM494 1311q0 -38 -28.5 -66t-66.5 -28t-66 28t-28 66t28 66
t66 28t66.5 -28t28.5 -66zM1102 702q0 -38 -28 -66t-66 -28q-40 0 -67.5 28t-27.5 66q0 39 28 67t67 28q38 0 66 -28.5t28 -66.5zM291 1311q0 -38 -28 -66t-66 -28t-66.5 28t-28.5 66t28.5 66t66.5 28t66 -28t28 -66zM494 1108q0 -38 -28.5 -66t-66.5 -28t-66 28t-28 66
t28 66t66 28t66.5 -28t28.5 -66zM899 702q0 -38 -28 -66t-66 -28q-39 0 -66.5 27.5t-27.5 66.5t27.5 67t66.5 28q38 0 66 -28.5t28 -66.5zM291 1108q0 -38 -28 -66t-66 -28t-66.5 28t-28.5 66t28.5 66t66.5 28t66 -28t28 -66zM494 905q0 -38 -28.5 -66t-66.5 -28t-66 28
t-28 66t28 66t66 28t66.5 -28t28.5 -66zM696 702q0 -38 -28 -66t-66 -28t-66 28t-28 66t28 66.5t66 28.5t66 -28.5t28 -66.5zM899 500q0 -38 -28 -66t-66 -28t-66 28t-28 66t28 66t66 28t66 -28t28 -66zM1102 297q0 -38 -28 -66t-66 -28q-40 0 -67.5 27.5t-27.5 66.5
t27.5 66.5t67.5 27.5q38 0 66 -28t28 -66zM1305 94q0 -38 -28.5 -66t-66.5 -28q-39 0 -66.5 27.5t-27.5 66.5t27.5 66.5t66.5 27.5q38 0 66.5 -28t28.5 -66zM291 905q0 -38 -28 -66t-66 -28t-66.5 28t-28.5 66t28.5 66t66.5 28t66 -28t28 -66zM494 702q0 -38 -28.5 -66
t-66.5 -28t-66 28t-28 66t28 66.5t66 28.5t66.5 -28.5t28.5 -66.5zM696 500q0 -38 -28 -66t-66 -28t-66 28t-28 66t28 66t66 28t66 -28t28 -66zM899 297q0 -38 -28 -66t-66 -28q-39 0 -66.5 27.5t-27.5 66.5t27.5 66.5t66.5 27.5q38 0 66 -28t28 -66zM1102 94q0 -38 -28 -66
t-66 -28q-40 0 -67.5 28t-27.5 66t27.5 66t67.5 28q38 0 66 -28t28 -66zM291 702q0 -38 -28 -66t-66 -28t-66.5 28t-28.5 66t28.5 66.5t66.5 28.5t66 -28.5t28 -66.5zM494 500q0 -38 -28.5 -66t-66.5 -28t-66 28t-28 66t28 66t66 28t66.5 -28t28.5 -66zM291 500
q0 -38 -28 -66t-66 -28t-66.5 28t-28.5 66t28.5 66t66.5 28t66 -28t28 -66zM494 297q0 -38 -28.5 -66t-66.5 -28t-66 28t-28 66t28 66t66 28t66.5 -28t28.5 -66zM291 297q0 -38 -28 -66t-66 -28t-66.5 28t-28.5 66t28.5 66t66.5 28t66 -28t28 -66zM494 94q0 -38 -28.5 -66
t-66.5 -28t-66 28t-28 66t28 66t66 28t66.5 -28t28.5 -66zM291 94q0 -38 -28 -66t-66 -28t-66.5 28t-28.5 66t28.5 66t66.5 28t66 -28t28 -66z" />
    <glyph glyph-name="S" unicode="S" 
d="M1102 1311q0 -38 -28 -66t-66 -28q-40 0 -67.5 27.5t-27.5 66.5t27.5 66.5t67.5 27.5q38 0 66 -28t28 -66zM1305 1108q0 -38 -28.5 -66t-66.5 -28q-39 0 -66.5 27.5t-27.5 66.5t27.5 66.5t66.5 27.5q38 0 66.5 -28t28.5 -66zM899 1311q0 -38 -28 -66t-66 -28
q-39 0 -66.5 27.5t-27.5 66.5t27.5 66.5t66.5 27.5q38 0 66 -28t28 -66zM1102 1108q0 -38 -28 -66t-66 -28q-40 0 -67.5 28t-27.5 66t27.5 66t67.5 28q38 0 66 -28t28 -66zM696 1311q0 -38 -28 -66t-66 -28t-66 28t-28 66t28 66t66 28t66 -28t28 -66zM494 1311
q0 -38 -28.5 -66t-66.5 -28t-66 28t-28 66t28 66t66 28t66.5 -28t28.5 -66zM1102 702q0 -38 -28 -66t-66 -28q-40 0 -67.5 28t-27.5 66q0 39 28 67t67 28q38 0 66 -28.5t28 -66.5zM1305 500q0 -38 -28.5 -66t-66.5 -28q-39 0 -66.5 27.5t-27.5 66.5t27.5 66.5t66.5 27.5
q38 0 66.5 -28t28.5 -66zM494 1108q0 -38 -28.5 -66t-66.5 -28t-66 28t-28 66t28 66t66 28t66.5 -28t28.5 -66zM899 702q0 -38 -28 -66t-66 -28q-39 0 -66.5 27.5t-27.5 66.5t27.5 67t66.5 28q38 0 66 -28.5t28 -66.5zM1102 500q0 -38 -28 -66t-66 -28q-40 0 -67.5 28
t-27.5 66t27.5 66t67.5 28q38 0 66 -28t28 -66zM1305 297q0 -38 -28.5 -66t-66.5 -28q-39 0 -66.5 27.5t-27.5 66.5t27.5 66.5t66.5 27.5q38 0 66.5 -28t28.5 -66zM291 1108q0 -38 -28 -66t-66 -28t-66.5 28t-28.5 66t28.5 66t66.5 28t66 -28t28 -66zM494 905
q0 -38 -28.5 -66t-66.5 -28t-66 28t-28 66t28 66t66 28t66.5 -28t28.5 -66zM696 702q0 -38 -28 -66t-66 -28t-66 28t-28 66t28 66.5t66 28.5t66 -28.5t28 -66.5zM1102 297q0 -38 -28 -66t-66 -28q-40 0 -67.5 27.5t-27.5 66.5t27.5 66.5t67.5 27.5q38 0 66 -28t28 -66z
M291 905q0 -38 -28 -66t-66 -28t-66.5 28t-28.5 66t28.5 66t66.5 28t66 -28t28 -66zM494 702q0 -38 -28.5 -66t-66.5 -28t-66 28t-28 66t28 66.5t66 28.5t66.5 -28.5t28.5 -66.5zM1102 94q0 -38 -28 -66t-66 -28q-40 0 -67.5 28t-27.5 66t27.5 66t67.5 28q38 0 66 -28
t28 -66zM899 94q0 -38 -28 -66t-66 -28q-39 0 -66.5 27.5t-27.5 66.5t27.5 66.5t66.5 27.5q38 0 66 -28t28 -66zM494 297q0 -38 -28.5 -66t-66.5 -28t-66 28t-28 66t28 66t66 28t66.5 -28t28.5 -66zM696 94q0 -38 -28 -66t-66 -28t-66 28t-28 66t28 66t66 28t66 -28t28 -66z
M291 297q0 -38 -28 -66t-66 -28t-66.5 28t-28.5 66t28.5 66t66.5 28t66 -28t28 -66zM494 94q0 -38 -28.5 -66t-66.5 -28t-66 28t-28 66t28 66t66 28t66.5 -28t28.5 -66z" />
    <glyph glyph-name="T" unicode="T" 
d="M1305 1311q0 -38 -28.5 -66t-66.5 -28q-39 0 -66.5 27.5t-27.5 66.5t27.5 66.5t66.5 27.5q38 0 66.5 -28t28.5 -66zM1102 1311q0 -38 -28 -66t-66 -28q-40 0 -67.5 27.5t-27.5 66.5t27.5 66.5t67.5 27.5q38 0 66 -28t28 -66zM899 1311q0 -38 -28 -66t-66 -28
q-39 0 -66.5 27.5t-27.5 66.5t27.5 66.5t66.5 27.5q38 0 66 -28t28 -66zM696 1311q0 -38 -28 -66t-66 -28t-66 28t-28 66t28 66t66 28t66 -28t28 -66zM899 1108q0 -38 -28 -66t-66 -28t-66 28t-28 66t28 66t66 28t66 -28t28 -66zM494 1311q0 -38 -28.5 -66t-66.5 -28t-66 28
t-28 66t28 66t66 28t66.5 -28t28.5 -66zM696 1108q0 -38 -28 -66t-66 -28t-66 28t-28 66t28 66t66 28t66 -28t28 -66zM899 905q0 -38 -28 -66t-66 -28t-66 28t-28 66t28 66t66 28t66 -28t28 -66zM291 1311q0 -38 -28 -66t-66 -28t-66.5 28t-28.5 66t28.5 66t66.5 28t66 -28
t28 -66zM696 905q0 -38 -28 -66t-66 -28t-66 28t-28 66t28 66t66 28t66 -28t28 -66zM899 702q0 -38 -28 -66t-66 -28t-66 28t-28 66t28 66.5t66 28.5t66 -28.5t28 -66.5zM696 702q0 -38 -28 -66t-66 -28t-66 28t-28 66t28 66.5t66 28.5t66 -28.5t28 -66.5zM899 500
q0 -38 -28 -66t-66 -28t-66 28t-28 66t28 66t66 28t66 -28t28 -66zM696 500q0 -38 -28 -66t-66 -28t-66 28t-28 66t28 66t66 28t66 -28t28 -66zM899 297q0 -38 -28 -66t-66 -28t-66 28t-28 66t28 66t66 28t66 -28t28 -66zM696 297q0 -38 -28 -66t-66 -28t-66 28t-28 66
t28 66t66 28t66 -28t28 -66zM899 94q0 -38 -28 -66t-66 -28t-66 28t-28 66t28 66t66 28t66 -28t28 -66zM696 94q0 -38 -28 -66t-66 -28t-66 28t-28 66t28 66t66 28t66 -28t28 -66z" />
    <glyph glyph-name="U" unicode="U" 
d="M1305 1311q0 -38 -28.5 -66t-66.5 -28q-39 0 -66.5 27.5t-27.5 66.5t27.5 66.5t66.5 27.5q38 0 66.5 -28t28.5 -66zM1102 1311q0 -38 -28 -66t-66 -28q-40 0 -67.5 27.5t-27.5 66.5t27.5 66.5t67.5 27.5q38 0 66 -28t28 -66zM1305 1108q0 -38 -28.5 -66t-66.5 -28
q-39 0 -66.5 27.5t-27.5 66.5t27.5 66.5t66.5 27.5q38 0 66.5 -28t28.5 -66zM1102 1108q0 -38 -28 -66t-66 -28q-40 0 -67.5 28t-27.5 66t27.5 66t67.5 28q38 0 66 -28t28 -66zM1305 905q0 -38 -28.5 -66t-66.5 -28q-39 0 -66.5 27.5t-27.5 66.5t27.5 66.5t66.5 27.5
q38 0 66.5 -28t28.5 -66zM1102 905q0 -38 -28 -66t-66 -28q-40 0 -67.5 27.5t-27.5 66.5t27.5 66.5t67.5 27.5q38 0 66 -28t28 -66zM1305 702q0 -38 -28.5 -66t-66.5 -28q-39 0 -66.5 27.5t-27.5 66.5t27.5 67t66.5 28q38 0 66.5 -28.5t28.5 -66.5zM494 1311
q0 -38 -28.5 -66t-66.5 -28t-66 28t-28 66t28 66t66 28t66.5 -28t28.5 -66zM1102 702q0 -38 -28 -66t-66 -28q-40 0 -67.5 28t-27.5 66q0 39 28 67t67 28q38 0 66 -28.5t28 -66.5zM1305 500q0 -38 -28.5 -66t-66.5 -28q-39 0 -66.5 27.5t-27.5 66.5t27.5 66.5t66.5 27.5
q38 0 66.5 -28t28.5 -66zM291 1311q0 -38 -28 -66t-66 -28t-66.5 28t-28.5 66t28.5 66t66.5 28t66 -28t28 -66zM494 1108q0 -38 -28.5 -66t-66.5 -28t-66 28t-28 66t28 66t66 28t66.5 -28t28.5 -66zM1102 500q0 -38 -28 -66t-66 -28q-40 0 -67.5 28t-27.5 66t27.5 66
t67.5 28q38 0 66 -28t28 -66zM1305 297q0 -38 -28.5 -66t-66.5 -28q-39 0 -66.5 27.5t-27.5 66.5t27.5 66.5t66.5 27.5q38 0 66.5 -28t28.5 -66zM291 1108q0 -38 -28 -66t-66 -28t-66.5 28t-28.5 66t28.5 66t66.5 28t66 -28t28 -66zM494 905q0 -38 -28.5 -66t-66.5 -28
t-66 28t-28 66t28 66t66 28t66.5 -28t28.5 -66zM1102 297q0 -38 -28 -66t-66 -28q-40 0 -67.5 27.5t-27.5 66.5t27.5 66.5t67.5 27.5q38 0 66 -28t28 -66zM291 905q0 -38 -28 -66t-66 -28t-66.5 28t-28.5 66t28.5 66t66.5 28t66 -28t28 -66zM494 702q0 -38 -28.5 -66
t-66.5 -28t-66 28t-28 66t28 66.5t66 28.5t66.5 -28.5t28.5 -66.5zM1102 94q0 -38 -28 -66t-66 -28q-40 0 -67.5 28t-27.5 66t27.5 66t67.5 28q38 0 66 -28t28 -66zM291 702q0 -38 -28 -66t-66 -28t-66.5 28t-28.5 66t28.5 66.5t66.5 28.5t66 -28.5t28 -66.5zM494 500
q0 -38 -28.5 -66t-66.5 -28t-66 28t-28 66t28 66t66 28t66.5 -28t28.5 -66zM899 94q0 -38 -28 -66t-66 -28q-39 0 -66.5 27.5t-27.5 66.5t27.5 66.5t66.5 27.5q38 0 66 -28t28 -66zM291 500q0 -38 -28 -66t-66 -28t-66.5 28t-28.5 66t28.5 66t66.5 28t66 -28t28 -66z
M494 297q0 -38 -28.5 -66t-66.5 -28t-66 28t-28 66t28 66t66 28t66.5 -28t28.5 -66zM696 94q0 -38 -28 -66t-66 -28t-66 28t-28 66t28 66t66 28t66 -28t28 -66zM291 297q0 -38 -28 -66t-66 -28t-66.5 28t-28.5 66t28.5 66t66.5 28t66 -28t28 -66zM494 94q0 -38 -28.5 -66
t-66.5 -28t-66 28t-28 66t28 66t66 28t66.5 -28t28.5 -66z" />
    <glyph glyph-name="V" unicode="V" 
d="M1305 1311q0 -38 -28.5 -66t-66.5 -28q-39 0 -66.5 27.5t-27.5 66.5t27.5 66.5t66.5 27.5q38 0 66.5 -28t28.5 -66zM1102 1311q0 -38 -28 -66t-66 -28q-40 0 -67.5 27.5t-27.5 66.5t27.5 66.5t67.5 27.5q38 0 66 -28t28 -66zM1305 1108q0 -38 -28.5 -66t-66.5 -28
q-39 0 -66.5 27.5t-27.5 66.5t27.5 66.5t66.5 27.5q38 0 66.5 -28t28.5 -66zM1102 1108q0 -38 -28 -66t-66 -28q-40 0 -67.5 28t-27.5 66t27.5 66t67.5 28q38 0 66 -28t28 -66zM1305 905q0 -38 -28.5 -66t-66.5 -28q-39 0 -66.5 27.5t-27.5 66.5t27.5 66.5t66.5 27.5
q38 0 66.5 -28t28.5 -66zM1102 905q0 -38 -28 -66t-66 -28q-40 0 -67.5 27.5t-27.5 66.5t27.5 66.5t67.5 27.5q38 0 66 -28t28 -66zM1305 702q0 -38 -28.5 -66t-66.5 -28q-39 0 -66.5 27.5t-27.5 66.5t27.5 67t66.5 28q38 0 66.5 -28.5t28.5 -66.5zM494 1311
q0 -38 -28.5 -66t-66.5 -28t-66 28t-28 66t28 66t66 28t66.5 -28t28.5 -66zM1102 702q0 -38 -28 -66t-66 -28q-40 0 -67.5 28t-27.5 66q0 39 28 67t67 28q38 0 66 -28.5t28 -66.5zM1305 500q0 -38 -28.5 -66t-66.5 -28q-39 0 -66.5 27.5t-27.5 66.5t27.5 66.5t66.5 27.5
q38 0 66.5 -28t28.5 -66zM291 1311q0 -38 -28 -66t-66 -28t-66.5 28t-28.5 66t28.5 66t66.5 28t66 -28t28 -66zM494 1108q0 -38 -28.5 -66t-66.5 -28t-66 28t-28 66t28 66t66 28t66.5 -28t28.5 -66zM1102 500q0 -38 -28 -66t-66 -28q-40 0 -67.5 28t-27.5 66t27.5 66
t67.5 28q38 0 66 -28t28 -66zM291 1108q0 -38 -28 -66t-66 -28t-66.5 28t-28.5 66t28.5 66t66.5 28t66 -28t28 -66zM494 905q0 -38 -28.5 -66t-66.5 -28t-66 28t-28 66t28 66t66 28t66.5 -28t28.5 -66zM1102 297q0 -38 -28 -66t-66 -28q-40 0 -67.5 27.5t-27.5 66.5
t27.5 66.5t67.5 27.5q38 0 66 -28t28 -66zM291 905q0 -38 -28 -66t-66 -28t-66.5 28t-28.5 66t28.5 66t66.5 28t66 -28t28 -66zM494 702q0 -38 -28.5 -66t-66.5 -28t-66 28t-28 66t28 66.5t66 28.5t66.5 -28.5t28.5 -66.5zM899 297q0 -38 -28 -66t-66 -28q-39 0 -66.5 27.5
t-27.5 66.5t27.5 66.5t66.5 27.5q38 0 66 -28t28 -66zM291 702q0 -38 -28 -66t-66 -28t-66.5 28t-28.5 66t28.5 66.5t66.5 28.5t66 -28.5t28 -66.5zM494 500q0 -38 -28.5 -66t-66.5 -28t-66 28t-28 66t28 66t66 28t66.5 -28t28.5 -66zM696 297q0 -38 -28 -66t-66 -28t-66 28
t-28 66t28 66t66 28t66 -28t28 -66zM899 94q0 -38 -28 -66t-66 -28t-66 28t-28 66t28 66t66 28t66 -28t28 -66zM291 500q0 -38 -28 -66t-66 -28t-66.5 28t-28.5 66t28.5 66t66.5 28t66 -28t28 -66zM494 297q0 -38 -28.5 -66t-66.5 -28t-66 28t-28 66t28 66t66 28t66.5 -28
t28.5 -66zM696 94q0 -38 -28 -66t-66 -28t-66 28t-28 66t28 66t66 28t66 -28t28 -66z" />
    <glyph glyph-name="W" unicode="W" horiz-adv-x="1812" 
d="M1710 1311q0 -38 -28 -66t-66 -28q-39 0 -66.5 27.5t-27.5 66.5t27.5 66.5t66.5 27.5q38 0 66 -28t28 -66zM1507 1311q0 -38 -28 -66t-66 -28q-39 0 -66.5 27.5t-27.5 66.5t27.5 66.5t66.5 27.5q38 0 66 -28t28 -66zM1710 1108q0 -38 -28 -66t-66 -28q-39 0 -66.5 27.5
t-27.5 66.5t27.5 66.5t66.5 27.5q38 0 66 -28t28 -66zM1507 1108q0 -38 -28 -66t-66 -28q-39 0 -66.5 27.5t-27.5 66.5t27.5 66.5t66.5 27.5q38 0 66 -28t28 -66zM1710 905q0 -38 -28 -66t-66 -28q-39 0 -66.5 27.5t-27.5 66.5t27.5 66.5t66.5 27.5q38 0 66 -28t28 -66z
M1507 905q0 -38 -28 -66t-66 -28q-39 0 -66.5 27.5t-27.5 66.5t27.5 66.5t66.5 27.5q38 0 66 -28t28 -66zM1710 702q0 -38 -28 -66t-66 -28q-39 0 -66.5 27.5t-27.5 66.5t27.5 67t66.5 28q38 0 66 -28.5t28 -66.5zM1507 702q0 -38 -28 -66t-66 -28q-39 0 -66.5 27.5
t-27.5 66.5t27.5 67t66.5 28q38 0 66 -28.5t28 -66.5zM1710 500q0 -38 -28 -66t-66 -28q-39 0 -66.5 27.5t-27.5 66.5t27.5 66.5t66.5 27.5q38 0 66 -28t28 -66zM1507 500q0 -38 -28 -66t-66 -28q-39 0 -66.5 27.5t-27.5 66.5t27.5 66.5t66.5 27.5q38 0 66 -28t28 -66z
M1710 297q0 -38 -28 -66t-66 -28q-39 0 -66.5 27.5t-27.5 66.5t27.5 66.5t66.5 27.5q38 0 66 -28t28 -66zM494 1311q0 -38 -28.5 -66t-66.5 -28t-66 28t-28 66t28 66t66 28t66.5 -28t28.5 -66zM1102 702q0 -38 -28 -66t-66 -28t-66.5 28t-28.5 66t28.5 66.5t66.5 28.5
t66 -28.5t28 -66.5zM1507 297q0 -38 -28 -66t-66 -28q-39 0 -66.5 27.5t-27.5 66.5t27.5 66.5t66.5 27.5q38 0 66 -28t28 -66zM291 1311q0 -38 -28 -66t-66 -28t-66.5 28t-28.5 66t28.5 66t66.5 28t66 -28t28 -66zM494 1108q0 -38 -28.5 -66t-66.5 -28t-66 28t-28 66t28 66
t66 28t66.5 -28t28.5 -66zM899 702q0 -38 -28 -66t-66 -28t-66 28t-28 66t28 66.5t66 28.5t66 -28.5t28 -66.5zM1102 500q0 -38 -28 -66t-66 -28t-66.5 28t-28.5 66t28.5 66t66.5 28t66 -28t28 -66zM1305 297q0 -38 -28.5 -66t-66.5 -28t-66 28t-28 66t28 66t66 28t66.5 -28
t28.5 -66zM1507 94q0 -38 -28 -66t-66 -28q-39 0 -66.5 27.5t-27.5 66.5t27.5 66.5t66.5 27.5q38 0 66 -28t28 -66zM291 1108q0 -38 -28 -66t-66 -28t-66.5 28t-28.5 66t28.5 66t66.5 28t66 -28t28 -66zM494 905q0 -38 -28.5 -66t-66.5 -28t-66 28t-28 66t28 66t66 28
t66.5 -28t28.5 -66zM899 500q0 -38 -28 -66t-66 -28t-66 28t-28 66t28 66t66 28t66 -28t28 -66zM1102 297q0 -38 -28 -66t-66 -28t-66.5 28t-28.5 66t28.5 66t66.5 28t66 -28t28 -66zM1305 94q0 -38 -28.5 -66t-66.5 -28q-39 0 -66.5 27.5t-27.5 66.5t27.5 66.5t66.5 27.5
q38 0 66.5 -28t28.5 -66zM291 905q0 -38 -28 -66t-66 -28t-66.5 28t-28.5 66t28.5 66t66.5 28t66 -28t28 -66zM494 702q0 -38 -28.5 -66t-66.5 -28t-66 28t-28 66t28 66.5t66 28.5t66.5 -28.5t28.5 -66.5zM899 297q0 -38 -28 -66t-66 -28t-66 28t-28 66t28 66t66 28t66 -28
t28 -66zM291 702q0 -38 -28 -66t-66 -28t-66.5 28t-28.5 66t28.5 66.5t66.5 28.5t66 -28.5t28 -66.5zM494 500q0 -38 -28.5 -66t-66.5 -28t-66 28t-28 66t28 66t66 28t66.5 -28t28.5 -66zM696 297q0 -38 -28 -66t-66 -28t-66 28t-28 66t28 66t66 28t66 -28t28 -66zM291 500
q0 -38 -28 -66t-66 -28t-66.5 28t-28.5 66t28.5 66t66.5 28t66 -28t28 -66zM494 297q0 -38 -28.5 -66t-66.5 -28t-66 28t-28 66t28 66t66 28t66.5 -28t28.5 -66zM696 94q0 -38 -28 -66t-66 -28t-66 28t-28 66t28 66t66 28t66 -28t28 -66zM291 297q0 -38 -28 -66t-66 -28
t-66.5 28t-28.5 66t28.5 66t66.5 28t66 -28t28 -66zM494 94q0 -38 -28.5 -66t-66.5 -28t-66 28t-28 66t28 66t66 28t66.5 -28t28.5 -66z" />
    <glyph glyph-name="X" unicode="X" 
d="M1305 1311q0 -38 -28.5 -66t-66.5 -28q-39 0 -66.5 27.5t-27.5 66.5t27.5 66.5t66.5 27.5q38 0 66.5 -28t28.5 -66zM1102 1311q0 -38 -28 -66t-66 -28q-40 0 -67.5 27.5t-27.5 66.5t27.5 66.5t67.5 27.5q38 0 66 -28t28 -66zM1305 1108q0 -38 -28.5 -66t-66.5 -28
q-39 0 -66.5 27.5t-27.5 66.5t27.5 66.5t66.5 27.5q38 0 66.5 -28t28.5 -66zM1102 1108q0 -38 -28 -66t-66 -28q-40 0 -67.5 28t-27.5 66t27.5 66t67.5 28q38 0 66 -28t28 -66zM1102 905q0 -38 -28 -66t-66 -28q-40 0 -67.5 27.5t-27.5 66.5t27.5 66.5t67.5 27.5
q38 0 66 -28t28 -66zM494 1311q0 -38 -28.5 -66t-66.5 -28t-66 28t-28 66t28 66t66 28t66.5 -28t28.5 -66zM899 905q0 -38 -28 -66t-66 -28q-39 0 -66.5 27.5t-27.5 66.5t27.5 66.5t66.5 27.5q38 0 66 -28t28 -66zM291 1311q0 -38 -28 -66t-66 -28t-66.5 28t-28.5 66
t28.5 66t66.5 28t66 -28t28 -66zM494 1108q0 -38 -28.5 -66t-66.5 -28t-66 28t-28 66t28 66t66 28t66.5 -28t28.5 -66zM696 905q0 -38 -28 -66t-66 -28t-66 28t-28 66t28 66t66 28t66 -28t28 -66zM899 702q0 -38 -28 -66t-66 -28t-66 28t-28 66t28 66.5t66 28.5t66 -28.5
t28 -66.5zM1102 500q0 -38 -28 -66t-66 -28q-40 0 -67.5 28t-27.5 66t27.5 66t67.5 28q38 0 66 -28t28 -66zM1305 297q0 -38 -28.5 -66t-66.5 -28q-39 0 -66.5 27.5t-27.5 66.5t27.5 66.5t66.5 27.5q38 0 66.5 -28t28.5 -66zM291 1108q0 -38 -28 -66t-66 -28t-66.5 28
t-28.5 66t28.5 66t66.5 28t66 -28t28 -66zM494 905q0 -38 -28.5 -66t-66.5 -28t-66 28t-28 66t28 66t66 28t66.5 -28t28.5 -66zM696 702q0 -38 -28 -66t-66 -28t-66 28t-28 66t28 66.5t66 28.5t66 -28.5t28 -66.5zM899 500q0 -38 -28 -66t-66 -28q-39 0 -66.5 27.5
t-27.5 66.5t27.5 66.5t66.5 27.5q38 0 66 -28t28 -66zM1102 297q0 -38 -28 -66t-66 -28q-40 0 -67.5 27.5t-27.5 66.5t27.5 66.5t67.5 27.5q38 0 66 -28t28 -66zM1305 94q0 -38 -28.5 -66t-66.5 -28q-39 0 -66.5 27.5t-27.5 66.5t27.5 66.5t66.5 27.5q38 0 66.5 -28
t28.5 -66zM696 500q0 -38 -28 -66t-66 -28t-66 28t-28 66t28 66t66 28t66 -28t28 -66zM1102 94q0 -38 -28 -66t-66 -28q-40 0 -67.5 28t-27.5 66t27.5 66t67.5 28q38 0 66 -28t28 -66zM494 500q0 -38 -28.5 -66t-66.5 -28t-66 28t-28 66t28 66t66 28t66.5 -28t28.5 -66z
M494 297q0 -38 -28.5 -66t-66.5 -28t-66 28t-28 66t28 66t66 28t66.5 -28t28.5 -66zM291 297q0 -38 -28 -66t-66 -28t-66.5 28t-28.5 66t28.5 66t66.5 28t66 -28t28 -66zM494 94q0 -38 -28.5 -66t-66.5 -28t-66 28t-28 66t28 66t66 28t66.5 -28t28.5 -66zM291 94
q0 -38 -28 -66t-66 -28t-66.5 28t-28.5 66t28.5 66t66.5 28t66 -28t28 -66z" />
    <glyph glyph-name="Y" unicode="Y" 
d="M1305 1311q0 -38 -28.5 -66t-66.5 -28q-39 0 -66.5 27.5t-27.5 66.5t27.5 66.5t66.5 27.5q38 0 66.5 -28t28.5 -66zM1102 1311q0 -38 -28 -66t-66 -28q-40 0 -67.5 27.5t-27.5 66.5t27.5 66.5t67.5 27.5q38 0 66 -28t28 -66zM1305 1108q0 -38 -28.5 -66t-66.5 -28
q-39 0 -66.5 27.5t-27.5 66.5t27.5 66.5t66.5 27.5q38 0 66.5 -28t28.5 -66zM1102 1108q0 -38 -28 -66t-66 -28q-40 0 -67.5 28t-27.5 66t27.5 66t67.5 28q38 0 66 -28t28 -66zM1305 905q0 -38 -28.5 -66t-66.5 -28q-39 0 -66.5 27.5t-27.5 66.5t27.5 66.5t66.5 27.5
q38 0 66.5 -28t28.5 -66zM1102 905q0 -38 -28 -66t-66 -28q-40 0 -67.5 27.5t-27.5 66.5t27.5 66.5t67.5 27.5q38 0 66 -28t28 -66zM494 1311q0 -38 -28.5 -66t-66.5 -28t-66 28t-28 66t28 66t66 28t66.5 -28t28.5 -66zM1102 702q0 -38 -28 -66t-66 -28q-40 0 -67.5 28
t-27.5 66q0 39 28 67t67 28q38 0 66 -28.5t28 -66.5zM291 1311q0 -38 -28 -66t-66 -28t-66.5 28t-28.5 66t28.5 66t66.5 28t66 -28t28 -66zM494 1108q0 -38 -28.5 -66t-66.5 -28t-66 28t-28 66t28 66t66 28t66.5 -28t28.5 -66zM899 702q0 -38 -28 -66t-66 -28
q-39 0 -66.5 27.5t-27.5 66.5t27.5 67t66.5 28q38 0 66 -28.5t28 -66.5zM291 1108q0 -38 -28 -66t-66 -28t-66.5 28t-28.5 66t28.5 66t66.5 28t66 -28t28 -66zM494 905q0 -38 -28.5 -66t-66.5 -28t-66 28t-28 66t28 66t66 28t66.5 -28t28.5 -66zM696 702q0 -38 -28 -66
t-66 -28t-66 28t-28 66t28 66.5t66 28.5t66 -28.5t28 -66.5zM899 500q0 -38 -28 -66t-66 -28t-66 28t-28 66t28 66t66 28t66 -28t28 -66zM291 905q0 -38 -28 -66t-66 -28t-66.5 28t-28.5 66t28.5 66t66.5 28t66 -28t28 -66zM494 702q0 -38 -28.5 -66t-66.5 -28t-66 28
t-28 66t28 66.5t66 28.5t66.5 -28.5t28.5 -66.5zM696 500q0 -38 -28 -66t-66 -28t-66 28t-28 66t28 66t66 28t66 -28t28 -66zM899 297q0 -38 -28 -66t-66 -28t-66 28t-28 66t28 66t66 28t66 -28t28 -66zM696 297q0 -38 -28 -66t-66 -28t-66 28t-28 66t28 66t66 28t66 -28
t28 -66zM899 94q0 -38 -28 -66t-66 -28t-66 28t-28 66t28 66t66 28t66 -28t28 -66zM696 94q0 -38 -28 -66t-66 -28t-66 28t-28 66t28 66t66 28t66 -28t28 -66z" />
    <glyph glyph-name="Z" unicode="Z" 
d="M1305 1311q0 -38 -28.5 -66t-66.5 -28q-39 0 -66.5 27.5t-27.5 66.5t27.5 66.5t66.5 27.5q38 0 66.5 -28t28.5 -66zM1102 1311q0 -38 -28 -66t-66 -28q-40 0 -67.5 27.5t-27.5 66.5t27.5 66.5t67.5 27.5q38 0 66 -28t28 -66zM1305 1108q0 -38 -28.5 -66t-66.5 -28
q-39 0 -66.5 27.5t-27.5 66.5t27.5 66.5t66.5 27.5q38 0 66.5 -28t28.5 -66zM899 1311q0 -38 -28 -66t-66 -28q-39 0 -66.5 27.5t-27.5 66.5t27.5 66.5t66.5 27.5q38 0 66 -28t28 -66zM1102 1108q0 -38 -28 -66t-66 -28q-40 0 -67.5 28t-27.5 66t27.5 66t67.5 28
q38 0 66 -28t28 -66zM696 1311q0 -38 -28 -66t-66 -28t-66 28t-28 66t28 66t66 28t66 -28t28 -66zM1102 905q0 -38 -28 -66t-66 -28q-40 0 -67.5 27.5t-27.5 66.5t27.5 66.5t67.5 27.5q38 0 66 -28t28 -66zM494 1311q0 -38 -28.5 -66t-66.5 -28t-66 28t-28 66t28 66t66 28
t66.5 -28t28.5 -66zM899 905q0 -38 -28 -66t-66 -28q-39 0 -66.5 27.5t-27.5 66.5t27.5 66.5t66.5 27.5q38 0 66 -28t28 -66zM291 1311q0 -38 -28 -66t-66 -28t-66.5 28t-28.5 66t28.5 66t66.5 28t66 -28t28 -66zM899 702q0 -38 -28 -66t-66 -28t-66 28t-28 66t28 66.5
t66 28.5t66 -28.5t28 -66.5zM696 702q0 -38 -28 -66t-66 -28t-66 28t-28 66t28 66.5t66 28.5t66 -28.5t28 -66.5zM1305 94q0 -38 -28.5 -66t-66.5 -28q-39 0 -66.5 27.5t-27.5 66.5t27.5 66.5t66.5 27.5q38 0 66.5 -28t28.5 -66zM696 500q0 -38 -28 -66t-66 -28t-66 28
t-28 66t28 66t66 28t66 -28t28 -66zM1102 94q0 -38 -28 -66t-66 -28q-40 0 -67.5 28t-27.5 66t27.5 66t67.5 28q38 0 66 -28t28 -66zM494 500q0 -38 -28.5 -66t-66.5 -28t-66 28t-28 66t28 66t66 28t66.5 -28t28.5 -66zM899 94q0 -38 -28 -66t-66 -28q-39 0 -66.5 27.5
t-27.5 66.5t27.5 66.5t66.5 27.5q38 0 66 -28t28 -66zM494 297q0 -38 -28.5 -66t-66.5 -28t-66 28t-28 66t28 66t66 28t66.5 -28t28.5 -66zM696 94q0 -38 -28 -66t-66 -28t-66 28t-28 66t28 66t66 28t66 -28t28 -66zM291 297q0 -38 -28 -66t-66 -28t-66.5 28t-28.5 66
t28.5 66t66.5 28t66 -28t28 -66zM494 94q0 -38 -28.5 -66t-66.5 -28t-66 28t-28 66t28 66t66 28t66.5 -28t28.5 -66zM291 94q0 -38 -28 -66t-66 -28t-66.5 28t-28.5 66t28.5 66t66.5 28t66 -28t28 -66z" />
    <glyph glyph-name="bracketleft" unicode="[" horiz-adv-x="798" 
d="M696 1311q0 -38 -28 -66t-66 -28q-39 0 -66.5 27.5t-27.5 66.5t27.5 66.5t66.5 27.5q38 0 66 -28t28 -66zM494 1311q0 -38 -28.5 -66t-66.5 -28q-39 0 -66.5 27.5t-27.5 66.5t27.5 66.5t66.5 27.5q38 0 66.5 -28t28.5 -66zM291 1311q0 -38 -28 -66t-66 -28t-66.5 28
t-28.5 66t28.5 66t66.5 28t66 -28t28 -66zM494 1108q0 -38 -28.5 -66t-66.5 -28t-66 28t-28 66t28 66t66 28t66.5 -28t28.5 -66zM291 1108q0 -38 -28 -66t-66 -28t-66.5 28t-28.5 66t28.5 66t66.5 28t66 -28t28 -66zM494 905q0 -38 -28.5 -66t-66.5 -28t-66 28t-28 66t28 66
t66 28t66.5 -28t28.5 -66zM291 905q0 -38 -28 -66t-66 -28t-66.5 28t-28.5 66t28.5 66t66.5 28t66 -28t28 -66zM494 702q0 -38 -28.5 -66t-66.5 -28t-66 28t-28 66t28 66.5t66 28.5t66.5 -28.5t28.5 -66.5zM291 702q0 -38 -28 -66t-66 -28t-66.5 28t-28.5 66t28.5 66.5
t66.5 28.5t66 -28.5t28 -66.5zM494 500q0 -38 -28.5 -66t-66.5 -28t-66 28t-28 66t28 66t66 28t66.5 -28t28.5 -66zM291 500q0 -38 -28 -66t-66 -28t-66.5 28t-28.5 66t28.5 66t66.5 28t66 -28t28 -66zM494 297q0 -38 -28.5 -66t-66.5 -28t-66 28t-28 66t28 66t66 28
t66.5 -28t28.5 -66zM696 94q0 -38 -28 -66t-66 -28q-39 0 -66.5 27.5t-27.5 66.5t27.5 66.5t66.5 27.5q38 0 66 -28t28 -66zM291 297q0 -38 -28 -66t-66 -28t-66.5 28t-28.5 66t28.5 66t66.5 28t66 -28t28 -66zM494 94q0 -38 -28.5 -66t-66.5 -28q-39 0 -66.5 27.5
t-27.5 66.5t27.5 66.5t66.5 27.5q38 0 66.5 -28t28.5 -66zM291 94q0 -38 -28 -66t-66 -28t-66.5 28t-28.5 66t28.5 66t66.5 28t66 -28t28 -66z" />
    <glyph glyph-name="backslash" unicode="\" horiz-adv-x="1001" 
d="M494 1311q0 -38 -28.5 -66t-66.5 -28t-66 28t-28 66t28 66t66 28t66.5 -28t28.5 -66zM291 1311q0 -38 -28 -66t-66 -28t-66.5 28t-28.5 66t28.5 66t66.5 28t66 -28t28 -66zM494 1108q0 -38 -28.5 -66t-66.5 -28t-66 28t-28 66t28 66t66 28t66.5 -28t28.5 -66zM696 905
q0 -38 -28 -66t-66 -28t-66 28t-28 66t28 66t66 28t66 -28t28 -66zM291 1108q0 -38 -28 -66t-66 -28t-66.5 28t-28.5 66t28.5 66t66.5 28t66 -28t28 -66zM494 905q0 -38 -28.5 -66t-66.5 -28t-66 28t-28 66t28 66t66 28t66.5 -28t28.5 -66zM696 702q0 -38 -28 -66t-66 -28
t-66 28t-28 66t28 66.5t66 28.5t66 -28.5t28 -66.5zM494 702q0 -38 -28.5 -66t-66.5 -28t-66 28t-28 66t28 66.5t66 28.5t66.5 -28.5t28.5 -66.5zM696 500q0 -38 -28 -66t-66 -28t-66 28t-28 66t28 66t66 28t66 -28t28 -66zM899 297q0 -38 -28 -66t-66 -28q-39 0 -66.5 27.5
t-27.5 66.5t27.5 66.5t66.5 27.5q38 0 66 -28t28 -66zM494 500q0 -38 -28.5 -66t-66.5 -28t-66 28t-28 66t28 66t66 28t66.5 -28t28.5 -66zM696 297q0 -38 -28 -66t-66 -28q-39 0 -66.5 27.5t-27.5 66.5t27.5 66.5t66.5 27.5q38 0 66 -28t28 -66zM899 94q0 -38 -28 -66
t-66 -28q-39 0 -66.5 27.5t-27.5 66.5t27.5 66.5t66.5 27.5q38 0 66 -28t28 -66zM696 94q0 -38 -28 -66t-66 -28q-39 0 -66.5 27.5t-27.5 66.5t27.5 66.5t66.5 27.5q38 0 66 -28t28 -66z" />
    <glyph glyph-name="bracketright" unicode="]" horiz-adv-x="798" 
d="M696 1311q0 -38 -28 -66t-66 -28t-66 28t-28 66t28 66t66 28t66 -28t28 -66zM494 1311q0 -38 -28.5 -66t-66.5 -28t-66 28t-28 66t28 66t66 28t66.5 -28t28.5 -66zM696 1108q0 -38 -28 -66t-66 -28t-66 28t-28 66t28 66t66 28t66 -28t28 -66zM291 1311q0 -38 -28 -66
t-66 -28t-66.5 28t-28.5 66t28.5 66t66.5 28t66 -28t28 -66zM494 1108q0 -38 -28.5 -66t-66.5 -28t-66 28t-28 66t28 66t66 28t66.5 -28t28.5 -66zM696 905q0 -38 -28 -66t-66 -28t-66 28t-28 66t28 66t66 28t66 -28t28 -66zM494 905q0 -38 -28.5 -66t-66.5 -28t-66 28
t-28 66t28 66t66 28t66.5 -28t28.5 -66zM696 702q0 -38 -28 -66t-66 -28t-66 28t-28 66t28 66.5t66 28.5t66 -28.5t28 -66.5zM494 702q0 -38 -28.5 -66t-66.5 -28t-66 28t-28 66t28 66.5t66 28.5t66.5 -28.5t28.5 -66.5zM696 500q0 -38 -28 -66t-66 -28t-66 28t-28 66t28 66
t66 28t66 -28t28 -66zM494 500q0 -38 -28.5 -66t-66.5 -28t-66 28t-28 66t28 66t66 28t66.5 -28t28.5 -66zM696 297q0 -38 -28 -66t-66 -28t-66 28t-28 66t28 66t66 28t66 -28t28 -66zM494 297q0 -38 -28.5 -66t-66.5 -28t-66 28t-28 66t28 66t66 28t66.5 -28t28.5 -66z
M696 94q0 -38 -28 -66t-66 -28t-66 28t-28 66t28 66t66 28t66 -28t28 -66zM494 94q0 -38 -28.5 -66t-66.5 -28t-66 28t-28 66t28 66t66 28t66.5 -28t28.5 -66zM291 94q0 -38 -28 -66t-66 -28t-66.5 28t-28.5 66t28.5 66t66.5 28t66 -28t28 -66z" />
    <glyph glyph-name="asciicircum" unicode="^" horiz-adv-x="1001" 
d="M696 1311q0 -38 -28 -66t-66 -28t-66 28t-28 66t28 66t66 28t66 -28t28 -66zM899 1108q0 -38 -28 -66t-66 -28q-39 0 -66.5 27.5t-27.5 66.5t27.5 66.5t66.5 27.5q38 0 66 -28t28 -66zM494 1311q0 -38 -28.5 -66t-66.5 -28t-66 28t-28 66t28 66t66 28t66.5 -28t28.5 -66z
M696 1108q0 -38 -28 -66t-66 -28q-39 0 -66.5 27.5t-27.5 66.5t27.5 66.5t66.5 27.5q38 0 66 -28t28 -66zM494 1108q0 -38 -28.5 -66t-66.5 -28t-66 28t-28 66t28 66t66 28t66.5 -28t28.5 -66zM291 1108q0 -38 -28 -66t-66 -28t-66.5 28t-28.5 66t28.5 66t66.5 28t66 -28
t28 -66z" />
    <glyph glyph-name="underscore" unicode="_" horiz-adv-x="1204" 
d="M1102 -109q0 -38 -28 -66t-66 -28q-40 0 -67.5 27.5t-27.5 66.5t28 67t67 28q38 0 66 -28.5t28 -66.5zM899 -109q0 -38 -28 -66t-66 -28q-39 0 -66.5 27.5t-27.5 66.5t27.5 67t66.5 28q38 0 66 -28.5t28 -66.5zM696 -109q0 -38 -28 -66t-66 -28t-66 28t-28 66t28 66.5
t66 28.5t66 -28.5t28 -66.5zM494 -109q0 -38 -28.5 -66t-66.5 -28t-66 28t-28 66t28 66.5t66 28.5t66.5 -28.5t28.5 -66.5zM291 -109q0 -38 -28 -66t-66 -28t-66.5 28t-28.5 66t28.5 66.5t66.5 28.5t66 -28.5t28 -66.5z" />
    <glyph glyph-name="grave" unicode="`" horiz-adv-x="1204" 
d="M696 1311q0 -38 -28 -66t-66 -28t-66 28t-28 66t28 66t66 28t66 -28t28 -66zM899 1108q0 -38 -28 -66t-66 -28t-66 28t-28 66t28 66t66 28t66 -28t28 -66zM494 1311q0 -38 -28.5 -66t-66.5 -28t-66 28t-28 66t28 66t66 28t66.5 -28t28.5 -66zM696 1108q0 -38 -28 -66
t-66 -28t-66 28t-28 66t28 66t66 28t66 -28t28 -66z" />
    <glyph glyph-name="a" unicode="a" 
d="M1102 905q0 -38 -28 -66t-66 -28q-40 0 -67.5 27.5t-27.5 66.5t27.5 66.5t67.5 27.5q38 0 66 -28t28 -66zM1305 702q0 -38 -28.5 -66t-66.5 -28q-39 0 -66.5 27.5t-27.5 66.5t27.5 67t66.5 28q38 0 66.5 -28.5t28.5 -66.5zM899 905q0 -38 -28 -66t-66 -28
q-39 0 -66.5 27.5t-27.5 66.5t27.5 66.5t66.5 27.5q38 0 66 -28t28 -66zM1102 702q0 -38 -28 -66t-66 -28q-40 0 -67.5 28t-27.5 66q0 39 28 67t67 28q38 0 66 -28.5t28 -66.5zM1305 500q0 -38 -28.5 -66t-66.5 -28q-39 0 -66.5 27.5t-27.5 66.5t27.5 66.5t66.5 27.5
q38 0 66.5 -28t28.5 -66zM696 905q0 -38 -28 -66t-66 -28t-66 28t-28 66t28 66t66 28t66 -28t28 -66zM1102 500q0 -38 -28 -66t-66 -28q-40 0 -67.5 28t-27.5 66t27.5 66t67.5 28q38 0 66 -28t28 -66zM1305 297q0 -38 -28.5 -66t-66.5 -28q-39 0 -66.5 27.5t-27.5 66.5
t27.5 66.5t66.5 27.5q38 0 66.5 -28t28.5 -66zM494 905q0 -38 -28.5 -66t-66.5 -28t-66 28t-28 66t28 66t66 28t66.5 -28t28.5 -66zM899 500q0 -38 -28 -66t-66 -28q-39 0 -66.5 27.5t-27.5 66.5t27.5 66.5t66.5 27.5q38 0 66 -28t28 -66zM1102 297q0 -38 -28 -66t-66 -28
q-40 0 -67.5 27.5t-27.5 66.5t27.5 66.5t67.5 27.5q38 0 66 -28t28 -66zM1305 94q0 -38 -28.5 -66t-66.5 -28q-39 0 -66.5 27.5t-27.5 66.5t27.5 66.5t66.5 27.5q38 0 66.5 -28t28.5 -66zM696 500q0 -38 -28 -66t-66 -28t-66 28t-28 66t28 66t66 28t66 -28t28 -66zM1102 94
q0 -38 -28 -66t-66 -28q-40 0 -67.5 28t-27.5 66t27.5 66t67.5 28q38 0 66 -28t28 -66zM494 500q0 -38 -28.5 -66t-66.5 -28t-66 28t-28 66t28 66t66 28t66.5 -28t28.5 -66zM899 94q0 -38 -28 -66t-66 -28q-39 0 -66.5 27.5t-27.5 66.5t27.5 66.5t66.5 27.5q38 0 66 -28
t28 -66zM494 297q0 -38 -28.5 -66t-66.5 -28t-66 28t-28 66t28 66t66 28t66.5 -28t28.5 -66zM696 94q0 -38 -28 -66t-66 -28t-66 28t-28 66t28 66t66 28t66 -28t28 -66zM291 297q0 -38 -28 -66t-66 -28t-66.5 28t-28.5 66t28.5 66t66.5 28t66 -28t28 -66zM494 94
q0 -38 -28.5 -66t-66.5 -28t-66 28t-28 66t28 66t66 28t66.5 -28t28.5 -66z" />
    <glyph glyph-name="b" unicode="b" 
d="M1102 905q0 -38 -28 -66t-66 -28q-40 0 -67.5 27.5t-27.5 66.5t27.5 66.5t67.5 27.5q38 0 66 -28t28 -66zM1305 702q0 -38 -28.5 -66t-66.5 -28q-39 0 -66.5 27.5t-27.5 66.5t27.5 67t66.5 28q38 0 66.5 -28.5t28.5 -66.5zM494 1311q0 -38 -28.5 -66t-66.5 -28t-66 28
t-28 66t28 66t66 28t66.5 -28t28.5 -66zM899 905q0 -38 -28 -66t-66 -28q-39 0 -66.5 27.5t-27.5 66.5t27.5 66.5t66.5 27.5q38 0 66 -28t28 -66zM1102 702q0 -38 -28 -66t-66 -28q-40 0 -67.5 28t-27.5 66q0 39 28 67t67 28q38 0 66 -28.5t28 -66.5zM1305 500
q0 -38 -28.5 -66t-66.5 -28q-39 0 -66.5 27.5t-27.5 66.5t27.5 66.5t66.5 27.5q38 0 66.5 -28t28.5 -66zM291 1311q0 -38 -28 -66t-66 -28t-66.5 28t-28.5 66t28.5 66t66.5 28t66 -28t28 -66zM494 1108q0 -38 -28.5 -66t-66.5 -28t-66 28t-28 66t28 66t66 28t66.5 -28
t28.5 -66zM696 905q0 -38 -28 -66t-66 -28t-66 28t-28 66t28 66t66 28t66 -28t28 -66zM1102 500q0 -38 -28 -66t-66 -28q-40 0 -67.5 28t-27.5 66t27.5 66t67.5 28q38 0 66 -28t28 -66zM1305 297q0 -38 -28.5 -66t-66.5 -28q-39 0 -66.5 27.5t-27.5 66.5t27.5 66.5
t66.5 27.5q38 0 66.5 -28t28.5 -66zM291 1108q0 -38 -28 -66t-66 -28t-66.5 28t-28.5 66t28.5 66t66.5 28t66 -28t28 -66zM494 905q0 -38 -28.5 -66t-66.5 -28t-66 28t-28 66t28 66t66 28t66.5 -28t28.5 -66zM1102 297q0 -38 -28 -66t-66 -28q-40 0 -67.5 27.5t-27.5 66.5
t27.5 66.5t67.5 27.5q38 0 66 -28t28 -66zM291 905q0 -38 -28 -66t-66 -28t-66.5 28t-28.5 66t28.5 66t66.5 28t66 -28t28 -66zM494 702q0 -38 -28.5 -66t-66.5 -28t-66 28t-28 66t28 66.5t66 28.5t66.5 -28.5t28.5 -66.5zM1102 94q0 -38 -28 -66t-66 -28q-40 0 -67.5 28
t-27.5 66t27.5 66t67.5 28q38 0 66 -28t28 -66zM291 702q0 -38 -28 -66t-66 -28t-66.5 28t-28.5 66t28.5 66.5t66.5 28.5t66 -28.5t28 -66.5zM494 500q0 -38 -28.5 -66t-66.5 -28t-66 28t-28 66t28 66t66 28t66.5 -28t28.5 -66zM899 94q0 -38 -28 -66t-66 -28
q-39 0 -66.5 27.5t-27.5 66.5t27.5 66.5t66.5 27.5q38 0 66 -28t28 -66zM291 500q0 -38 -28 -66t-66 -28t-66.5 28t-28.5 66t28.5 66t66.5 28t66 -28t28 -66zM494 297q0 -38 -28.5 -66t-66.5 -28t-66 28t-28 66t28 66t66 28t66.5 -28t28.5 -66zM696 94q0 -38 -28 -66
t-66 -28t-66 28t-28 66t28 66t66 28t66 -28t28 -66zM291 297q0 -38 -28 -66t-66 -28t-66.5 28t-28.5 66t28.5 66t66.5 28t66 -28t28 -66zM494 94q0 -38 -28.5 -66t-66.5 -28t-66 28t-28 66t28 66t66 28t66.5 -28t28.5 -66zM291 94q0 -38 -28 -66t-66 -28t-66.5 28t-28.5 66
t28.5 66t66.5 28t66 -28t28 -66z" />
    <glyph glyph-name="c" unicode="c" 
d="M1102 905q0 -38 -28 -66t-66 -28q-40 0 -67.5 27.5t-27.5 66.5t27.5 66.5t67.5 27.5q38 0 66 -28t28 -66zM1305 702q0 -38 -28.5 -66t-66.5 -28q-39 0 -66.5 27.5t-27.5 66.5t27.5 67t66.5 28q38 0 66.5 -28.5t28.5 -66.5zM899 905q0 -38 -28 -66t-66 -28
q-39 0 -66.5 27.5t-27.5 66.5t27.5 66.5t66.5 27.5q38 0 66 -28t28 -66zM1102 702q0 -38 -28 -66t-66 -28q-40 0 -67.5 28t-27.5 66q0 39 28 67t67 28q38 0 66 -28.5t28 -66.5zM696 905q0 -38 -28 -66t-66 -28t-66 28t-28 66t28 66t66 28t66 -28t28 -66zM494 905
q0 -38 -28.5 -66t-66.5 -28t-66 28t-28 66t28 66t66 28t66.5 -28t28.5 -66zM1305 94q0 -38 -28.5 -66t-66.5 -28q-39 0 -66.5 27.5t-27.5 66.5t27.5 66.5t66.5 27.5q38 0 66.5 -28t28.5 -66zM494 702q0 -38 -28.5 -66t-66.5 -28t-66 28t-28 66t28 66.5t66 28.5t66.5 -28.5
t28.5 -66.5zM1102 94q0 -38 -28 -66t-66 -28q-40 0 -67.5 28t-27.5 66t27.5 66t67.5 28q38 0 66 -28t28 -66zM291 702q0 -38 -28 -66t-66 -28t-66.5 28t-28.5 66t28.5 66.5t66.5 28.5t66 -28.5t28 -66.5zM494 500q0 -38 -28.5 -66t-66.5 -28t-66 28t-28 66t28 66t66 28
t66.5 -28t28.5 -66zM899 94q0 -38 -28 -66t-66 -28q-39 0 -66.5 27.5t-27.5 66.5t27.5 66.5t66.5 27.5q38 0 66 -28t28 -66zM291 500q0 -38 -28 -66t-66 -28t-66.5 28t-28.5 66t28.5 66t66.5 28t66 -28t28 -66zM494 297q0 -38 -28.5 -66t-66.5 -28t-66 28t-28 66t28 66
t66 28t66.5 -28t28.5 -66zM696 94q0 -38 -28 -66t-66 -28t-66 28t-28 66t28 66t66 28t66 -28t28 -66zM291 297q0 -38 -28 -66t-66 -28t-66.5 28t-28.5 66t28.5 66t66.5 28t66 -28t28 -66zM494 94q0 -38 -28.5 -66t-66.5 -28t-66 28t-28 66t28 66t66 28t66.5 -28t28.5 -66z
" />
    <glyph glyph-name="d" unicode="d" 
d="M1305 1311q0 -38 -28.5 -66t-66.5 -28q-39 0 -66.5 27.5t-27.5 66.5t27.5 66.5t66.5 27.5q38 0 66.5 -28t28.5 -66zM1102 1311q0 -38 -28 -66t-66 -28q-40 0 -67.5 27.5t-27.5 66.5t27.5 66.5t67.5 27.5q38 0 66 -28t28 -66zM1305 1108q0 -38 -28.5 -66t-66.5 -28
q-39 0 -66.5 27.5t-27.5 66.5t27.5 66.5t66.5 27.5q38 0 66.5 -28t28.5 -66zM1102 1108q0 -38 -28 -66t-66 -28q-40 0 -67.5 28t-27.5 66t27.5 66t67.5 28q38 0 66 -28t28 -66zM1305 905q0 -38 -28.5 -66t-66.5 -28q-39 0 -66.5 27.5t-27.5 66.5t27.5 66.5t66.5 27.5
q38 0 66.5 -28t28.5 -66zM1102 905q0 -38 -28 -66t-66 -28q-40 0 -67.5 27.5t-27.5 66.5t27.5 66.5t67.5 27.5q38 0 66 -28t28 -66zM1305 702q0 -38 -28.5 -66t-66.5 -28q-39 0 -66.5 27.5t-27.5 66.5t27.5 67t66.5 28q38 0 66.5 -28.5t28.5 -66.5zM899 905q0 -38 -28 -66
t-66 -28q-39 0 -66.5 27.5t-27.5 66.5t27.5 66.5t66.5 27.5q38 0 66 -28t28 -66zM1102 702q0 -38 -28 -66t-66 -28q-40 0 -67.5 28t-27.5 66q0 39 28 67t67 28q38 0 66 -28.5t28 -66.5zM1305 500q0 -38 -28.5 -66t-66.5 -28q-39 0 -66.5 27.5t-27.5 66.5t27.5 66.5
t66.5 27.5q38 0 66.5 -28t28.5 -66zM696 905q0 -38 -28 -66t-66 -28t-66 28t-28 66t28 66t66 28t66 -28t28 -66zM1102 500q0 -38 -28 -66t-66 -28q-40 0 -67.5 28t-27.5 66t27.5 66t67.5 28q38 0 66 -28t28 -66zM1305 297q0 -38 -28.5 -66t-66.5 -28q-39 0 -66.5 27.5
t-27.5 66.5t27.5 66.5t66.5 27.5q38 0 66.5 -28t28.5 -66zM494 905q0 -38 -28.5 -66t-66.5 -28t-66 28t-28 66t28 66t66 28t66.5 -28t28.5 -66zM1102 297q0 -38 -28 -66t-66 -28q-40 0 -67.5 27.5t-27.5 66.5t27.5 66.5t67.5 27.5q38 0 66 -28t28 -66zM1305 94
q0 -38 -28.5 -66t-66.5 -28q-39 0 -66.5 27.5t-27.5 66.5t27.5 66.5t66.5 27.5q38 0 66.5 -28t28.5 -66zM494 702q0 -38 -28.5 -66t-66.5 -28t-66 28t-28 66t28 66.5t66 28.5t66.5 -28.5t28.5 -66.5zM1102 94q0 -38 -28 -66t-66 -28q-40 0 -67.5 28t-27.5 66t27.5 66
t67.5 28q38 0 66 -28t28 -66zM291 702q0 -38 -28 -66t-66 -28t-66.5 28t-28.5 66t28.5 66.5t66.5 28.5t66 -28.5t28 -66.5zM494 500q0 -38 -28.5 -66t-66.5 -28t-66 28t-28 66t28 66t66 28t66.5 -28t28.5 -66zM899 94q0 -38 -28 -66t-66 -28q-39 0 -66.5 27.5t-27.5 66.5
t27.5 66.5t66.5 27.5q38 0 66 -28t28 -66zM291 500q0 -38 -28 -66t-66 -28t-66.5 28t-28.5 66t28.5 66t66.5 28t66 -28t28 -66zM494 297q0 -38 -28.5 -66t-66.5 -28t-66 28t-28 66t28 66t66 28t66.5 -28t28.5 -66zM696 94q0 -38 -28 -66t-66 -28t-66 28t-28 66t28 66t66 28
t66 -28t28 -66zM291 297q0 -38 -28 -66t-66 -28t-66.5 28t-28.5 66t28.5 66t66.5 28t66 -28t28 -66zM494 94q0 -38 -28.5 -66t-66.5 -28t-66 28t-28 66t28 66t66 28t66.5 -28t28.5 -66z" />
    <glyph glyph-name="e" unicode="e" 
d="M1102 905q0 -38 -28 -66t-66 -28q-40 0 -67.5 27.5t-27.5 66.5t27.5 66.5t67.5 27.5q38 0 66 -28t28 -66zM1305 702q0 -38 -28.5 -66t-66.5 -28q-39 0 -66.5 27.5t-27.5 66.5t27.5 67t66.5 28q38 0 66.5 -28.5t28.5 -66.5zM899 905q0 -38 -28 -66t-66 -28
q-39 0 -66.5 27.5t-27.5 66.5t27.5 66.5t66.5 27.5q38 0 66 -28t28 -66zM1102 702q0 -38 -28 -66t-66 -28q-40 0 -67.5 28t-27.5 66q0 39 28 67t67 28q38 0 66 -28.5t28 -66.5zM1305 500q0 -38 -28.5 -66t-66.5 -28q-39 0 -66.5 27.5t-27.5 66.5t27.5 66.5t66.5 27.5
q38 0 66.5 -28t28.5 -66zM696 905q0 -38 -28 -66t-66 -28t-66 28t-28 66t28 66t66 28t66 -28t28 -66zM1102 500q0 -38 -28 -66t-66 -28q-40 0 -67.5 28t-27.5 66t27.5 66t67.5 28q38 0 66 -28t28 -66zM494 905q0 -38 -28.5 -66t-66.5 -28t-66 28t-28 66t28 66t66 28
t66.5 -28t28.5 -66zM899 500q0 -38 -28 -66t-66 -28q-39 0 -66.5 27.5t-27.5 66.5t27.5 66.5t66.5 27.5q38 0 66 -28t28 -66zM1305 94q0 -38 -28.5 -66t-66.5 -28q-39 0 -66.5 27.5t-27.5 66.5t27.5 66.5t66.5 27.5q38 0 66.5 -28t28.5 -66zM494 702q0 -38 -28.5 -66
t-66.5 -28t-66 28t-28 66t28 66.5t66 28.5t66.5 -28.5t28.5 -66.5zM696 500q0 -38 -28 -66t-66 -28t-66 28t-28 66t28 66t66 28t66 -28t28 -66zM1102 94q0 -38 -28 -66t-66 -28q-40 0 -67.5 28t-27.5 66t27.5 66t67.5 28q38 0 66 -28t28 -66zM291 702q0 -38 -28 -66t-66 -28
t-66.5 28t-28.5 66t28.5 66.5t66.5 28.5t66 -28.5t28 -66.5zM494 500q0 -38 -28.5 -66t-66.5 -28t-66 28t-28 66t28 66t66 28t66.5 -28t28.5 -66zM899 94q0 -38 -28 -66t-66 -28q-39 0 -66.5 27.5t-27.5 66.5t27.5 66.5t66.5 27.5q38 0 66 -28t28 -66zM291 500
q0 -38 -28 -66t-66 -28t-66.5 28t-28.5 66t28.5 66t66.5 28t66 -28t28 -66zM494 297q0 -38 -28.5 -66t-66.5 -28t-66 28t-28 66t28 66t66 28t66.5 -28t28.5 -66zM696 94q0 -38 -28 -66t-66 -28t-66 28t-28 66t28 66t66 28t66 -28t28 -66zM291 297q0 -38 -28 -66t-66 -28
t-66.5 28t-28.5 66t28.5 66t66.5 28t66 -28t28 -66zM494 94q0 -38 -28.5 -66t-66.5 -28t-66 28t-28 66t28 66t66 28t66.5 -28t28.5 -66z" />
    <glyph glyph-name="f" unicode="f" horiz-adv-x="1204" 
d="M1102 1311q0 -38 -28 -66t-66 -28q-40 0 -67.5 27.5t-27.5 66.5t27.5 66.5t67.5 27.5q38 0 66 -28t28 -66zM899 1311q0 -38 -28 -66t-66 -28q-39 0 -66.5 27.5t-27.5 66.5t27.5 66.5t66.5 27.5q38 0 66 -28t28 -66zM696 1311q0 -38 -28 -66t-66 -28q-39 0 -66.5 27.5
t-27.5 66.5t27.5 66.5t66.5 27.5q38 0 66 -28t28 -66zM696 1108q0 -38 -28 -66t-66 -28t-66 28t-28 66t28 66t66 28t66 -28t28 -66zM899 905q0 -38 -28 -66t-66 -28q-39 0 -66.5 27.5t-27.5 66.5t27.5 66.5t66.5 27.5q38 0 66 -28t28 -66zM494 1108q0 -38 -28.5 -66
t-66.5 -28t-66 28t-28 66t28 66t66 28t66.5 -28t28.5 -66zM696 905q0 -38 -28 -66t-66 -28q-39 0 -66.5 27.5t-27.5 66.5t27.5 66.5t66.5 27.5q38 0 66 -28t28 -66zM494 905q0 -38 -28.5 -66t-66.5 -28t-66 28t-28 66t28 66t66 28t66.5 -28t28.5 -66zM696 702q0 -38 -28 -66
t-66 -28t-66 28t-28 66t28 66.5t66 28.5t66 -28.5t28 -66.5zM291 905q0 -38 -28 -66t-66 -28t-66.5 28t-28.5 66t28.5 66t66.5 28t66 -28t28 -66zM494 702q0 -38 -28.5 -66t-66.5 -28t-66 28t-28 66t28 66.5t66 28.5t66.5 -28.5t28.5 -66.5zM696 500q0 -38 -28 -66t-66 -28
t-66 28t-28 66t28 66t66 28t66 -28t28 -66zM494 500q0 -38 -28.5 -66t-66.5 -28t-66 28t-28 66t28 66t66 28t66.5 -28t28.5 -66zM696 297q0 -38 -28 -66t-66 -28t-66 28t-28 66t28 66t66 28t66 -28t28 -66zM494 297q0 -38 -28.5 -66t-66.5 -28t-66 28t-28 66t28 66t66 28
t66.5 -28t28.5 -66zM696 94q0 -38 -28 -66t-66 -28t-66 28t-28 66t28 66t66 28t66 -28t28 -66zM494 94q0 -38 -28.5 -66t-66.5 -28t-66 28t-28 66t28 66t66 28t66.5 -28t28.5 -66z" />
    <glyph glyph-name="g" unicode="g" 
d="M1102 905q0 -38 -28 -66t-66 -28q-40 0 -67.5 27.5t-27.5 66.5t27.5 66.5t67.5 27.5q38 0 66 -28t28 -66zM1305 702q0 -38 -28.5 -66t-66.5 -28q-39 0 -66.5 27.5t-27.5 66.5t27.5 67t66.5 28q38 0 66.5 -28.5t28.5 -66.5zM899 905q0 -38 -28 -66t-66 -28
q-39 0 -66.5 27.5t-27.5 66.5t27.5 66.5t66.5 27.5q38 0 66 -28t28 -66zM1102 702q0 -38 -28 -66t-66 -28q-40 0 -67.5 28t-27.5 66q0 39 28 67t67 28q38 0 66 -28.5t28 -66.5zM1305 500q0 -38 -28.5 -66t-66.5 -28q-39 0 -66.5 27.5t-27.5 66.5t27.5 66.5t66.5 27.5
q38 0 66.5 -28t28.5 -66zM696 905q0 -38 -28 -66t-66 -28t-66 28t-28 66t28 66t66 28t66 -28t28 -66zM1102 500q0 -38 -28 -66t-66 -28q-40 0 -67.5 28t-27.5 66t27.5 66t67.5 28q38 0 66 -28t28 -66zM1305 297q0 -38 -28.5 -66t-66.5 -28q-39 0 -66.5 27.5t-27.5 66.5
t27.5 66.5t66.5 27.5q38 0 66.5 -28t28.5 -66zM494 905q0 -38 -28.5 -66t-66.5 -28t-66 28t-28 66t28 66t66 28t66.5 -28t28.5 -66zM1102 297q0 -38 -28 -66t-66 -28q-40 0 -67.5 27.5t-27.5 66.5t27.5 66.5t67.5 27.5q38 0 66 -28t28 -66zM1305 94q0 -38 -28.5 -66
t-66.5 -28q-39 0 -66.5 27.5t-27.5 66.5t27.5 66.5t66.5 27.5q38 0 66.5 -28t28.5 -66zM494 702q0 -38 -28.5 -66t-66.5 -28t-66 28t-28 66t28 66.5t66 28.5t66.5 -28.5t28.5 -66.5zM899 297q0 -38 -28 -66t-66 -28q-39 0 -66.5 27.5t-27.5 66.5t27.5 66.5t66.5 27.5
q38 0 66 -28t28 -66zM1102 94q0 -38 -28 -66t-66 -28q-40 0 -67.5 28t-27.5 66t27.5 66t67.5 28q38 0 66 -28t28 -66zM291 702q0 -38 -28 -66t-66 -28t-66.5 28t-28.5 66t28.5 66.5t66.5 28.5t66 -28.5t28 -66.5zM494 500q0 -38 -28.5 -66t-66.5 -28t-66 28t-28 66t28 66
t66 28t66.5 -28t28.5 -66zM696 297q0 -38 -28 -66t-66 -28t-66 28t-28 66t28 66t66 28t66 -28t28 -66zM1102 -109q0 -38 -28 -66t-66 -28q-40 0 -67.5 27.5t-27.5 66.5q0 40 27.5 67.5t67.5 27.5q38 0 66 -28t28 -67zM291 500q0 -38 -28 -66t-66 -28t-66.5 28t-28.5 66
t28.5 66t66.5 28t66 -28t28 -66zM494 297q0 -38 -28.5 -66t-66.5 -28t-66 28t-28 66t28 66t66 28t66.5 -28t28.5 -66zM899 -109q0 -38 -28 -66t-66 -28q-39 0 -66.5 27.5t-27.5 66.5q0 40 27 67.5t67 27.5q39 0 66.5 -28t27.5 -67zM696 -109q0 -38 -28 -66t-66 -28t-66 28
t-28 66q0 39 28 67t66 28t66 -28t28 -67zM494 -109q0 -38 -28.5 -66t-66.5 -28t-66 28t-28 66q0 39 27.5 67t66.5 28t67 -28t28 -67zM291 -109q0 -38 -28 -66t-66 -28t-66.5 28t-28.5 66q0 39 28 67t67 28t66.5 -28t27.5 -67z" />
    <glyph glyph-name="h" unicode="h" 
d="M1102 905q0 -38 -28 -66t-66 -28q-40 0 -67.5 27.5t-27.5 66.5t27.5 66.5t67.5 27.5q38 0 66 -28t28 -66zM1305 702q0 -38 -28.5 -66t-66.5 -28q-39 0 -66.5 27.5t-27.5 66.5t27.5 67t66.5 28q38 0 66.5 -28.5t28.5 -66.5zM494 1311q0 -38 -28.5 -66t-66.5 -28t-66 28
t-28 66t28 66t66 28t66.5 -28t28.5 -66zM899 905q0 -38 -28 -66t-66 -28q-39 0 -66.5 27.5t-27.5 66.5t27.5 66.5t66.5 27.5q38 0 66 -28t28 -66zM1102 702q0 -38 -28 -66t-66 -28q-40 0 -67.5 28t-27.5 66q0 39 28 67t67 28q38 0 66 -28.5t28 -66.5zM1305 500
q0 -38 -28.5 -66t-66.5 -28q-39 0 -66.5 27.5t-27.5 66.5t27.5 66.5t66.5 27.5q38 0 66.5 -28t28.5 -66zM291 1311q0 -38 -28 -66t-66 -28t-66.5 28t-28.5 66t28.5 66t66.5 28t66 -28t28 -66zM494 1108q0 -38 -28.5 -66t-66.5 -28t-66 28t-28 66t28 66t66 28t66.5 -28
t28.5 -66zM696 905q0 -38 -28 -66t-66 -28t-66 28t-28 66t28 66t66 28t66 -28t28 -66zM1102 500q0 -38 -28 -66t-66 -28q-40 0 -67.5 28t-27.5 66t27.5 66t67.5 28q38 0 66 -28t28 -66zM1305 297q0 -38 -28.5 -66t-66.5 -28q-39 0 -66.5 27.5t-27.5 66.5t27.5 66.5
t66.5 27.5q38 0 66.5 -28t28.5 -66zM291 1108q0 -38 -28 -66t-66 -28t-66.5 28t-28.5 66t28.5 66t66.5 28t66 -28t28 -66zM494 905q0 -38 -28.5 -66t-66.5 -28t-66 28t-28 66t28 66t66 28t66.5 -28t28.5 -66zM1102 297q0 -38 -28 -66t-66 -28q-40 0 -67.5 27.5t-27.5 66.5
t27.5 66.5t67.5 27.5q38 0 66 -28t28 -66zM1305 94q0 -38 -28.5 -66t-66.5 -28q-39 0 -66.5 27.5t-27.5 66.5t27.5 66.5t66.5 27.5q38 0 66.5 -28t28.5 -66zM291 905q0 -38 -28 -66t-66 -28t-66.5 28t-28.5 66t28.5 66t66.5 28t66 -28t28 -66zM494 702q0 -38 -28.5 -66
t-66.5 -28t-66 28t-28 66t28 66.5t66 28.5t66.5 -28.5t28.5 -66.5zM1102 94q0 -38 -28 -66t-66 -28q-40 0 -67.5 28t-27.5 66t27.5 66t67.5 28q38 0 66 -28t28 -66zM291 702q0 -38 -28 -66t-66 -28t-66.5 28t-28.5 66t28.5 66.5t66.5 28.5t66 -28.5t28 -66.5zM494 500
q0 -38 -28.5 -66t-66.5 -28t-66 28t-28 66t28 66t66 28t66.5 -28t28.5 -66zM291 500q0 -38 -28 -66t-66 -28t-66.5 28t-28.5 66t28.5 66t66.5 28t66 -28t28 -66zM494 297q0 -38 -28.5 -66t-66.5 -28t-66 28t-28 66t28 66t66 28t66.5 -28t28.5 -66zM291 297q0 -38 -28 -66
t-66 -28t-66.5 28t-28.5 66t28.5 66t66.5 28t66 -28t28 -66zM494 94q0 -38 -28.5 -66t-66.5 -28t-66 28t-28 66t28 66t66 28t66.5 -28t28.5 -66zM291 94q0 -38 -28 -66t-66 -28t-66.5 28t-28.5 66t28.5 66t66.5 28t66 -28t28 -66z" />
    <glyph glyph-name="i" unicode="i" horiz-adv-x="1001" 
d="M696 1311q0 -38 -28 -66t-66 -28t-66 28t-28 66t28 66t66 28t66 -28t28 -66zM494 1311q0 -38 -28.5 -66t-66.5 -28t-66 28t-28 66t28 66t66 28t66.5 -28t28.5 -66zM696 905q0 -38 -28 -66t-66 -28t-66 28t-28 66t28 66t66 28t66 -28t28 -66zM494 905q0 -38 -28.5 -66
t-66.5 -28t-66 28t-28 66t28 66t66 28t66.5 -28t28.5 -66zM696 702q0 -38 -28 -66t-66 -28t-66 28t-28 66t28 66.5t66 28.5t66 -28.5t28 -66.5zM291 905q0 -38 -28 -66t-66 -28t-66.5 28t-28.5 66t28.5 66t66.5 28t66 -28t28 -66zM494 702q0 -38 -28.5 -66t-66.5 -28t-66 28
t-28 66t28 66.5t66 28.5t66.5 -28.5t28.5 -66.5zM696 500q0 -38 -28 -66t-66 -28t-66 28t-28 66t28 66t66 28t66 -28t28 -66zM494 500q0 -38 -28.5 -66t-66.5 -28t-66 28t-28 66t28 66t66 28t66.5 -28t28.5 -66zM696 297q0 -38 -28 -66t-66 -28t-66 28t-28 66t28 66t66 28
t66 -28t28 -66zM899 94q0 -38 -28 -66t-66 -28q-39 0 -66.5 27.5t-27.5 66.5t27.5 66.5t66.5 27.5q38 0 66 -28t28 -66zM494 297q0 -38 -28.5 -66t-66.5 -28t-66 28t-28 66t28 66t66 28t66.5 -28t28.5 -66zM696 94q0 -38 -28 -66t-66 -28q-39 0 -66.5 27.5t-27.5 66.5
t27.5 66.5t66.5 27.5q38 0 66 -28t28 -66zM494 94q0 -38 -28.5 -66t-66.5 -28t-66 28t-28 66t28 66t66 28t66.5 -28t28.5 -66zM291 94q0 -38 -28 -66t-66 -28t-66.5 28t-28.5 66t28.5 66t66.5 28t66 -28t28 -66z" />
    <glyph glyph-name="j" unicode="j" horiz-adv-x="1204" 
d="M1102 1311q0 -38 -28 -66t-66 -28q-40 0 -67.5 27.5t-27.5 66.5t27.5 66.5t67.5 27.5q38 0 66 -28t28 -66zM899 1311q0 -38 -28 -66t-66 -28q-39 0 -66.5 27.5t-27.5 66.5t27.5 66.5t66.5 27.5q38 0 66 -28t28 -66zM1102 905q0 -38 -28 -66t-66 -28q-40 0 -67.5 27.5
t-27.5 66.5t27.5 66.5t67.5 27.5q38 0 66 -28t28 -66zM899 905q0 -38 -28 -66t-66 -28q-39 0 -66.5 27.5t-27.5 66.5t27.5 66.5t66.5 27.5q38 0 66 -28t28 -66zM1102 702q0 -38 -28 -66t-66 -28q-40 0 -67.5 28t-27.5 66q0 39 28 67t67 28q38 0 66 -28.5t28 -66.5zM696 905
q0 -38 -28 -66t-66 -28t-66 28t-28 66t28 66t66 28t66 -28t28 -66zM899 702q0 -38 -28 -66t-66 -28q-39 0 -66.5 27.5t-27.5 66.5t27.5 67t66.5 28q38 0 66 -28.5t28 -66.5zM1102 500q0 -38 -28 -66t-66 -28q-40 0 -67.5 28t-27.5 66t27.5 66t67.5 28q38 0 66 -28t28 -66z
M899 500q0 -38 -28 -66t-66 -28q-39 0 -66.5 27.5t-27.5 66.5t27.5 66.5t66.5 27.5q38 0 66 -28t28 -66zM1102 297q0 -38 -28 -66t-66 -28q-40 0 -67.5 27.5t-27.5 66.5t27.5 66.5t67.5 27.5q38 0 66 -28t28 -66zM899 297q0 -38 -28 -66t-66 -28q-39 0 -66.5 27.5
t-27.5 66.5t27.5 66.5t66.5 27.5q38 0 66 -28t28 -66zM1102 94q0 -38 -28 -66t-66 -28q-40 0 -67.5 28t-27.5 66t27.5 66t67.5 28q38 0 66 -28t28 -66zM899 94q0 -38 -28 -66t-66 -28q-39 0 -66.5 27.5t-27.5 66.5t27.5 66.5t66.5 27.5q38 0 66 -28t28 -66zM899 -109
q0 -38 -28 -66t-66 -28t-66 28t-28 66q0 39 27.5 67t66.5 28t66.5 -28t27.5 -67zM494 94q0 -38 -28.5 -66t-66.5 -28t-66 28t-28 66t28 66t66 28t66.5 -28t28.5 -66zM696 -109q0 -38 -28 -66t-66 -28t-66 28t-28 66q0 39 28 67t66 28t66 -28t28 -67zM291 94q0 -38 -28 -66
t-66 -28t-66.5 28t-28.5 66t28.5 66t66.5 28t66 -28t28 -66zM494 -109q0 -38 -28.5 -66t-66.5 -28t-66 28t-28 66q0 39 27.5 67t66.5 28t67 -28t28 -67z" />
    <glyph glyph-name="k" unicode="k" horiz-adv-x="1204" 
d="M1102 905q0 -38 -28 -66t-66 -28q-40 0 -67.5 27.5t-27.5 66.5t27.5 66.5t67.5 27.5q38 0 66 -28t28 -66zM494 1311q0 -38 -28.5 -66t-66.5 -28t-66 28t-28 66t28 66t66 28t66.5 -28t28.5 -66zM899 905q0 -38 -28 -66t-66 -28q-39 0 -66.5 27.5t-27.5 66.5t27.5 66.5
t66.5 27.5q38 0 66 -28t28 -66zM291 1311q0 -38 -28 -66t-66 -28t-66.5 28t-28.5 66t28.5 66t66.5 28t66 -28t28 -66zM494 1108q0 -38 -28.5 -66t-66.5 -28t-66 28t-28 66t28 66t66 28t66.5 -28t28.5 -66zM899 702q0 -38 -28 -66t-66 -28t-66 28t-28 66t28 66.5t66 28.5
t66 -28.5t28 -66.5zM291 1108q0 -38 -28 -66t-66 -28t-66.5 28t-28.5 66t28.5 66t66.5 28t66 -28t28 -66zM494 905q0 -38 -28.5 -66t-66.5 -28t-66 28t-28 66t28 66t66 28t66.5 -28t28.5 -66zM696 702q0 -38 -28 -66t-66 -28t-66 28t-28 66t28 66.5t66 28.5t66 -28.5
t28 -66.5zM291 905q0 -38 -28 -66t-66 -28t-66.5 28t-28.5 66t28.5 66t66.5 28t66 -28t28 -66zM494 702q0 -38 -28.5 -66t-66.5 -28t-66 28t-28 66t28 66.5t66 28.5t66.5 -28.5t28.5 -66.5zM696 500q0 -38 -28 -66t-66 -28t-66 28t-28 66t28 66t66 28t66 -28t28 -66z
M899 297q0 -38 -28 -66t-66 -28t-66 28t-28 66t28 66t66 28t66 -28t28 -66zM1102 94q0 -38 -28 -66t-66 -28q-40 0 -67.5 28t-27.5 66t27.5 66t67.5 28q38 0 66 -28t28 -66zM291 702q0 -38 -28 -66t-66 -28t-66.5 28t-28.5 66t28.5 66.5t66.5 28.5t66 -28.5t28 -66.5z
M494 500q0 -38 -28.5 -66t-66.5 -28t-66 28t-28 66t28 66t66 28t66.5 -28t28.5 -66zM696 297q0 -38 -28 -66t-66 -28t-66 28t-28 66t28 66t66 28t66 -28t28 -66zM899 94q0 -38 -28 -66t-66 -28q-39 0 -66.5 27.5t-27.5 66.5t27.5 66.5t66.5 27.5q38 0 66 -28t28 -66z
M291 500q0 -38 -28 -66t-66 -28t-66.5 28t-28.5 66t28.5 66t66.5 28t66 -28t28 -66zM494 297q0 -38 -28.5 -66t-66.5 -28t-66 28t-28 66t28 66t66 28t66.5 -28t28.5 -66zM291 297q0 -38 -28 -66t-66 -28t-66.5 28t-28.5 66t28.5 66t66.5 28t66 -28t28 -66zM494 94
q0 -38 -28.5 -66t-66.5 -28t-66 28t-28 66t28 66t66 28t66.5 -28t28.5 -66zM291 94q0 -38 -28 -66t-66 -28t-66.5 28t-28.5 66t28.5 66t66.5 28t66 -28t28 -66z" />
    <glyph glyph-name="l" unicode="l" horiz-adv-x="1001" 
d="M696 1311q0 -38 -28 -66t-66 -28t-66 28t-28 66t28 66t66 28t66 -28t28 -66zM494 1311q0 -38 -28.5 -66t-66.5 -28t-66 28t-28 66t28 66t66 28t66.5 -28t28.5 -66zM696 1108q0 -38 -28 -66t-66 -28t-66 28t-28 66t28 66t66 28t66 -28t28 -66zM291 1311q0 -38 -28 -66
t-66 -28t-66.5 28t-28.5 66t28.5 66t66.5 28t66 -28t28 -66zM494 1108q0 -38 -28.5 -66t-66.5 -28t-66 28t-28 66t28 66t66 28t66.5 -28t28.5 -66zM696 905q0 -38 -28 -66t-66 -28t-66 28t-28 66t28 66t66 28t66 -28t28 -66zM494 905q0 -38 -28.5 -66t-66.5 -28t-66 28
t-28 66t28 66t66 28t66.5 -28t28.5 -66zM696 702q0 -38 -28 -66t-66 -28t-66 28t-28 66t28 66.5t66 28.5t66 -28.5t28 -66.5zM494 702q0 -38 -28.5 -66t-66.5 -28t-66 28t-28 66t28 66.5t66 28.5t66.5 -28.5t28.5 -66.5zM696 500q0 -38 -28 -66t-66 -28t-66 28t-28 66t28 66
t66 28t66 -28t28 -66zM494 500q0 -38 -28.5 -66t-66.5 -28t-66 28t-28 66t28 66t66 28t66.5 -28t28.5 -66zM696 297q0 -38 -28 -66t-66 -28t-66 28t-28 66t28 66t66 28t66 -28t28 -66zM899 94q0 -38 -28 -66t-66 -28q-39 0 -66.5 27.5t-27.5 66.5t27.5 66.5t66.5 27.5
q38 0 66 -28t28 -66zM494 297q0 -38 -28.5 -66t-66.5 -28t-66 28t-28 66t28 66t66 28t66.5 -28t28.5 -66zM696 94q0 -38 -28 -66t-66 -28q-39 0 -66.5 27.5t-27.5 66.5t27.5 66.5t66.5 27.5q38 0 66 -28t28 -66zM494 94q0 -38 -28.5 -66t-66.5 -28t-66 28t-28 66t28 66
t66 28t66.5 -28t28.5 -66zM291 94q0 -38 -28 -66t-66 -28t-66.5 28t-28.5 66t28.5 66t66.5 28t66 -28t28 -66z" />
    <glyph glyph-name="m" unicode="m" horiz-adv-x="1812" 
d="M1507 905q0 -38 -28 -66t-66 -28q-39 0 -66.5 27.5t-27.5 66.5t27.5 66.5t66.5 27.5q38 0 66 -28t28 -66zM1710 702q0 -38 -28 -66t-66 -28q-39 0 -66.5 27.5t-27.5 66.5t27.5 67t66.5 28q38 0 66 -28.5t28 -66.5zM1305 905q0 -38 -28.5 -66t-66.5 -28q-39 0 -66.5 27.5
t-27.5 66.5t27.5 66.5t66.5 27.5q38 0 66.5 -28t28.5 -66zM1507 702q0 -38 -28 -66t-66 -28q-39 0 -66.5 27.5t-27.5 66.5t27.5 67t66.5 28q38 0 66 -28.5t28 -66.5zM1710 500q0 -38 -28 -66t-66 -28q-39 0 -66.5 27.5t-27.5 66.5t27.5 66.5t66.5 27.5q38 0 66 -28t28 -66z
M1102 905q0 -38 -28 -66t-66 -28t-66.5 28t-28.5 66t28.5 66t66.5 28t66 -28t28 -66zM1507 500q0 -38 -28 -66t-66 -28q-39 0 -66.5 27.5t-27.5 66.5t27.5 66.5t66.5 27.5q38 0 66 -28t28 -66zM1710 297q0 -38 -28 -66t-66 -28q-39 0 -66.5 27.5t-27.5 66.5t27.5 66.5
t66.5 27.5q38 0 66 -28t28 -66zM899 905q0 -38 -28 -66t-66 -28t-66 28t-28 66t28 66t66 28t66 -28t28 -66zM1102 702q0 -38 -28 -66t-66 -28t-66.5 28t-28.5 66t28.5 66.5t66.5 28.5t66 -28.5t28 -66.5zM1507 297q0 -38 -28 -66t-66 -28q-39 0 -66.5 27.5t-27.5 66.5
t27.5 66.5t66.5 27.5q38 0 66 -28t28 -66zM1710 94q0 -38 -28 -66t-66 -28q-39 0 -66.5 27.5t-27.5 66.5t27.5 66.5t66.5 27.5q38 0 66 -28t28 -66zM696 905q0 -38 -28 -66t-66 -28t-66 28t-28 66t28 66t66 28t66 -28t28 -66zM899 702q0 -38 -28 -66t-66 -28t-66 28t-28 66
t28 66.5t66 28.5t66 -28.5t28 -66.5zM1102 500q0 -38 -28 -66t-66 -28t-66.5 28t-28.5 66t28.5 66t66.5 28t66 -28t28 -66zM1507 94q0 -38 -28 -66t-66 -28q-39 0 -66.5 27.5t-27.5 66.5t27.5 66.5t66.5 27.5q38 0 66 -28t28 -66zM494 905q0 -38 -28.5 -66t-66.5 -28t-66 28
t-28 66t28 66t66 28t66.5 -28t28.5 -66zM899 500q0 -38 -28 -66t-66 -28t-66 28t-28 66t28 66t66 28t66 -28t28 -66zM1102 297q0 -38 -28 -66t-66 -28t-66.5 28t-28.5 66t28.5 66t66.5 28t66 -28t28 -66zM291 905q0 -38 -28 -66t-66 -28t-66.5 28t-28.5 66t28.5 66t66.5 28
t66 -28t28 -66zM494 702q0 -38 -28.5 -66t-66.5 -28t-66 28t-28 66t28 66.5t66 28.5t66.5 -28.5t28.5 -66.5zM899 297q0 -38 -28 -66t-66 -28t-66 28t-28 66t28 66t66 28t66 -28t28 -66zM1102 94q0 -38 -28 -66t-66 -28t-66.5 28t-28.5 66t28.5 66t66.5 28t66 -28t28 -66z
M291 702q0 -38 -28 -66t-66 -28t-66.5 28t-28.5 66t28.5 66.5t66.5 28.5t66 -28.5t28 -66.5zM494 500q0 -38 -28.5 -66t-66.5 -28t-66 28t-28 66t28 66t66 28t66.5 -28t28.5 -66zM899 94q0 -38 -28 -66t-66 -28t-66 28t-28 66t28 66t66 28t66 -28t28 -66zM291 500
q0 -38 -28 -66t-66 -28t-66.5 28t-28.5 66t28.5 66t66.5 28t66 -28t28 -66zM494 297q0 -38 -28.5 -66t-66.5 -28t-66 28t-28 66t28 66t66 28t66.5 -28t28.5 -66zM291 297q0 -38 -28 -66t-66 -28t-66.5 28t-28.5 66t28.5 66t66.5 28t66 -28t28 -66zM494 94q0 -38 -28.5 -66
t-66.5 -28t-66 28t-28 66t28 66t66 28t66.5 -28t28.5 -66zM291 94q0 -38 -28 -66t-66 -28t-66.5 28t-28.5 66t28.5 66t66.5 28t66 -28t28 -66z" />
    <glyph glyph-name="n" unicode="n" 
d="M1102 905q0 -38 -28 -66t-66 -28q-40 0 -67.5 27.5t-27.5 66.5t27.5 66.5t67.5 27.5q38 0 66 -28t28 -66zM1305 702q0 -38 -28.5 -66t-66.5 -28q-39 0 -66.5 27.5t-27.5 66.5t27.5 67t66.5 28q38 0 66.5 -28.5t28.5 -66.5zM899 905q0 -38 -28 -66t-66 -28
q-39 0 -66.5 27.5t-27.5 66.5t27.5 66.5t66.5 27.5q38 0 66 -28t28 -66zM1102 702q0 -38 -28 -66t-66 -28q-40 0 -67.5 28t-27.5 66q0 39 28 67t67 28q38 0 66 -28.5t28 -66.5zM1305 500q0 -38 -28.5 -66t-66.5 -28q-39 0 -66.5 27.5t-27.5 66.5t27.5 66.5t66.5 27.5
q38 0 66.5 -28t28.5 -66zM696 905q0 -38 -28 -66t-66 -28t-66 28t-28 66t28 66t66 28t66 -28t28 -66zM1102 500q0 -38 -28 -66t-66 -28q-40 0 -67.5 28t-27.5 66t27.5 66t67.5 28q38 0 66 -28t28 -66zM1305 297q0 -38 -28.5 -66t-66.5 -28q-39 0 -66.5 27.5t-27.5 66.5
t27.5 66.5t66.5 27.5q38 0 66.5 -28t28.5 -66zM494 905q0 -38 -28.5 -66t-66.5 -28t-66 28t-28 66t28 66t66 28t66.5 -28t28.5 -66zM1102 297q0 -38 -28 -66t-66 -28q-40 0 -67.5 27.5t-27.5 66.5t27.5 66.5t67.5 27.5q38 0 66 -28t28 -66zM1305 94q0 -38 -28.5 -66
t-66.5 -28q-39 0 -66.5 27.5t-27.5 66.5t27.5 66.5t66.5 27.5q38 0 66.5 -28t28.5 -66zM291 905q0 -38 -28 -66t-66 -28t-66.5 28t-28.5 66t28.5 66t66.5 28t66 -28t28 -66zM494 702q0 -38 -28.5 -66t-66.5 -28t-66 28t-28 66t28 66.5t66 28.5t66.5 -28.5t28.5 -66.5z
M1102 94q0 -38 -28 -66t-66 -28q-40 0 -67.5 28t-27.5 66t27.5 66t67.5 28q38 0 66 -28t28 -66zM291 702q0 -38 -28 -66t-66 -28t-66.5 28t-28.5 66t28.5 66.5t66.5 28.5t66 -28.5t28 -66.5zM494 500q0 -38 -28.5 -66t-66.5 -28t-66 28t-28 66t28 66t66 28t66.5 -28
t28.5 -66zM291 500q0 -38 -28 -66t-66 -28t-66.5 28t-28.5 66t28.5 66t66.5 28t66 -28t28 -66zM494 297q0 -38 -28.5 -66t-66.5 -28t-66 28t-28 66t28 66t66 28t66.5 -28t28.5 -66zM291 297q0 -38 -28 -66t-66 -28t-66.5 28t-28.5 66t28.5 66t66.5 28t66 -28t28 -66zM494 94
q0 -38 -28.5 -66t-66.5 -28t-66 28t-28 66t28 66t66 28t66.5 -28t28.5 -66zM291 94q0 -38 -28 -66t-66 -28t-66.5 28t-28.5 66t28.5 66t66.5 28t66 -28t28 -66z" />
    <glyph glyph-name="o" unicode="o" 
d="M1102 905q0 -38 -28 -66t-66 -28q-40 0 -67.5 27.5t-27.5 66.5t27.5 66.5t67.5 27.5q38 0 66 -28t28 -66zM1305 702q0 -38 -28.5 -66t-66.5 -28q-39 0 -66.5 27.5t-27.5 66.5t27.5 67t66.5 28q38 0 66.5 -28.5t28.5 -66.5zM899 905q0 -38 -28 -66t-66 -28
q-39 0 -66.5 27.5t-27.5 66.5t27.5 66.5t66.5 27.5q38 0 66 -28t28 -66zM1102 702q0 -38 -28 -66t-66 -28q-40 0 -67.5 28t-27.5 66q0 39 28 67t67 28q38 0 66 -28.5t28 -66.5zM1305 500q0 -38 -28.5 -66t-66.5 -28q-39 0 -66.5 27.5t-27.5 66.5t27.5 66.5t66.5 27.5
q38 0 66.5 -28t28.5 -66zM696 905q0 -38 -28 -66t-66 -28t-66 28t-28 66t28 66t66 28t66 -28t28 -66zM1102 500q0 -38 -28 -66t-66 -28q-40 0 -67.5 28t-27.5 66t27.5 66t67.5 28q38 0 66 -28t28 -66zM1305 297q0 -38 -28.5 -66t-66.5 -28q-39 0 -66.5 27.5t-27.5 66.5
t27.5 66.5t66.5 27.5q38 0 66.5 -28t28.5 -66zM494 905q0 -38 -28.5 -66t-66.5 -28t-66 28t-28 66t28 66t66 28t66.5 -28t28.5 -66zM1102 297q0 -38 -28 -66t-66 -28q-40 0 -67.5 27.5t-27.5 66.5t27.5 66.5t67.5 27.5q38 0 66 -28t28 -66zM494 702q0 -38 -28.5 -66
t-66.5 -28t-66 28t-28 66t28 66.5t66 28.5t66.5 -28.5t28.5 -66.5zM1102 94q0 -38 -28 -66t-66 -28q-40 0 -67.5 28t-27.5 66t27.5 66t67.5 28q38 0 66 -28t28 -66zM291 702q0 -38 -28 -66t-66 -28t-66.5 28t-28.5 66t28.5 66.5t66.5 28.5t66 -28.5t28 -66.5zM494 500
q0 -38 -28.5 -66t-66.5 -28t-66 28t-28 66t28 66t66 28t66.5 -28t28.5 -66zM899 94q0 -38 -28 -66t-66 -28q-39 0 -66.5 27.5t-27.5 66.5t27.5 66.5t66.5 27.5q38 0 66 -28t28 -66zM291 500q0 -38 -28 -66t-66 -28t-66.5 28t-28.5 66t28.5 66t66.5 28t66 -28t28 -66z
M494 297q0 -38 -28.5 -66t-66.5 -28t-66 28t-28 66t28 66t66 28t66.5 -28t28.5 -66zM696 94q0 -38 -28 -66t-66 -28t-66 28t-28 66t28 66t66 28t66 -28t28 -66zM291 297q0 -38 -28 -66t-66 -28t-66.5 28t-28.5 66t28.5 66t66.5 28t66 -28t28 -66zM494 94q0 -38 -28.5 -66
t-66.5 -28t-66 28t-28 66t28 66t66 28t66.5 -28t28.5 -66z" />
    <glyph glyph-name="p" unicode="p" 
d="M1102 905q0 -38 -28 -66t-66 -28q-40 0 -67.5 27.5t-27.5 66.5t27.5 66.5t67.5 27.5q38 0 66 -28t28 -66zM1305 702q0 -38 -28.5 -66t-66.5 -28q-39 0 -66.5 27.5t-27.5 66.5t27.5 67t66.5 28q38 0 66.5 -28.5t28.5 -66.5zM899 905q0 -38 -28 -66t-66 -28
q-39 0 -66.5 27.5t-27.5 66.5t27.5 66.5t66.5 27.5q38 0 66 -28t28 -66zM1102 702q0 -38 -28 -66t-66 -28q-40 0 -67.5 28t-27.5 66q0 39 28 67t67 28q38 0 66 -28.5t28 -66.5zM1305 500q0 -38 -28.5 -66t-66.5 -28q-39 0 -66.5 27.5t-27.5 66.5t27.5 66.5t66.5 27.5
q38 0 66.5 -28t28.5 -66zM696 905q0 -38 -28 -66t-66 -28t-66 28t-28 66t28 66t66 28t66 -28t28 -66zM1102 500q0 -38 -28 -66t-66 -28q-40 0 -67.5 28t-27.5 66t27.5 66t67.5 28q38 0 66 -28t28 -66zM494 905q0 -38 -28.5 -66t-66.5 -28t-66 28t-28 66t28 66t66 28
t66.5 -28t28.5 -66zM1102 297q0 -38 -28 -66t-66 -28q-40 0 -67.5 27.5t-27.5 66.5t27.5 66.5t67.5 27.5q38 0 66 -28t28 -66zM291 905q0 -38 -28 -66t-66 -28t-66.5 28t-28.5 66t28.5 66t66.5 28t66 -28t28 -66zM494 702q0 -38 -28.5 -66t-66.5 -28t-66 28t-28 66t28 66.5
t66 28.5t66.5 -28.5t28.5 -66.5zM899 297q0 -38 -28 -66t-66 -28q-39 0 -66.5 27.5t-27.5 66.5t27.5 66.5t66.5 27.5q38 0 66 -28t28 -66zM291 702q0 -38 -28 -66t-66 -28t-66.5 28t-28.5 66t28.5 66.5t66.5 28.5t66 -28.5t28 -66.5zM494 500q0 -38 -28.5 -66t-66.5 -28
t-66 28t-28 66t28 66t66 28t66.5 -28t28.5 -66zM696 297q0 -38 -28 -66t-66 -28t-66 28t-28 66t28 66t66 28t66 -28t28 -66zM291 500q0 -38 -28 -66t-66 -28t-66.5 28t-28.5 66t28.5 66t66.5 28t66 -28t28 -66zM494 297q0 -38 -28.5 -66t-66.5 -28t-66 28t-28 66t28 66
t66 28t66.5 -28t28.5 -66zM291 297q0 -38 -28 -66t-66 -28t-66.5 28t-28.5 66t28.5 66t66.5 28t66 -28t28 -66zM494 94q0 -38 -28.5 -66t-66.5 -28t-66 28t-28 66t28 66t66 28t66.5 -28t28.5 -66zM291 94q0 -38 -28 -66t-66 -28t-66.5 28t-28.5 66t28.5 66t66.5 28t66 -28
t28 -66zM494 -109q0 -38 -28.5 -66t-66.5 -28t-66 28t-28 66q0 39 27.5 67t66.5 28t67 -28t28 -67zM291 -109q0 -38 -28 -66t-66 -28t-66.5 28t-28.5 66q0 39 28 67t67 28t66.5 -28t27.5 -67z" />
    <glyph glyph-name="q" unicode="q" 
d="M1305 905q0 -38 -28.5 -66t-66.5 -28q-39 0 -66.5 27.5t-27.5 66.5t27.5 66.5t66.5 27.5q38 0 66.5 -28t28.5 -66zM1102 905q0 -38 -28 -66t-66 -28q-40 0 -67.5 27.5t-27.5 66.5t27.5 66.5t67.5 27.5q38 0 66 -28t28 -66zM1305 702q0 -38 -28.5 -66t-66.5 -28
q-39 0 -66.5 27.5t-27.5 66.5t27.5 67t66.5 28q38 0 66.5 -28.5t28.5 -66.5zM899 905q0 -38 -28 -66t-66 -28q-39 0 -66.5 27.5t-27.5 66.5t27.5 66.5t66.5 27.5q38 0 66 -28t28 -66zM1102 702q0 -38 -28 -66t-66 -28q-40 0 -67.5 28t-27.5 66q0 39 28 67t67 28
q38 0 66 -28.5t28 -66.5zM1305 500q0 -38 -28.5 -66t-66.5 -28q-39 0 -66.5 27.5t-27.5 66.5t27.5 66.5t66.5 27.5q38 0 66.5 -28t28.5 -66zM696 905q0 -38 -28 -66t-66 -28t-66 28t-28 66t28 66t66 28t66 -28t28 -66zM1102 500q0 -38 -28 -66t-66 -28q-40 0 -67.5 28
t-27.5 66t27.5 66t67.5 28q38 0 66 -28t28 -66zM1305 297q0 -38 -28.5 -66t-66.5 -28q-39 0 -66.5 27.5t-27.5 66.5t27.5 66.5t66.5 27.5q38 0 66.5 -28t28.5 -66zM494 905q0 -38 -28.5 -66t-66.5 -28t-66 28t-28 66t28 66t66 28t66.5 -28t28.5 -66zM1102 297q0 -38 -28 -66
t-66 -28q-40 0 -67.5 27.5t-27.5 66.5t27.5 66.5t67.5 27.5q38 0 66 -28t28 -66zM1305 94q0 -38 -28.5 -66t-66.5 -28q-39 0 -66.5 27.5t-27.5 66.5t27.5 66.5t66.5 27.5q38 0 66.5 -28t28.5 -66zM494 702q0 -38 -28.5 -66t-66.5 -28t-66 28t-28 66t28 66.5t66 28.5
t66.5 -28.5t28.5 -66.5zM899 297q0 -38 -28 -66t-66 -28q-39 0 -66.5 27.5t-27.5 66.5t27.5 66.5t66.5 27.5q38 0 66 -28t28 -66zM1102 94q0 -38 -28 -66t-66 -28q-40 0 -67.5 28t-27.5 66t27.5 66t67.5 28q38 0 66 -28t28 -66zM1305 -109q0 -38 -28.5 -66t-66.5 -28
q-39 0 -66.5 27.5t-27.5 66.5q0 40 27 67.5t67 27.5q39 0 67 -28t28 -67zM291 702q0 -38 -28 -66t-66 -28t-66.5 28t-28.5 66t28.5 66.5t66.5 28.5t66 -28.5t28 -66.5zM494 500q0 -38 -28.5 -66t-66.5 -28t-66 28t-28 66t28 66t66 28t66.5 -28t28.5 -66zM696 297
q0 -38 -28 -66t-66 -28t-66 28t-28 66t28 66t66 28t66 -28t28 -66zM1102 -109q0 -38 -28 -66t-66 -28q-40 0 -67.5 27.5t-27.5 66.5q0 40 27.5 67.5t67.5 27.5q38 0 66 -28t28 -67zM291 500q0 -38 -28 -66t-66 -28t-66.5 28t-28.5 66t28.5 66t66.5 28t66 -28t28 -66z
M494 297q0 -38 -28.5 -66t-66.5 -28t-66 28t-28 66t28 66t66 28t66.5 -28t28.5 -66z" />
    <glyph glyph-name="r" unicode="r" 
d="M1102 905q0 -38 -28 -66t-66 -28q-40 0 -67.5 27.5t-27.5 66.5t27.5 66.5t67.5 27.5q38 0 66 -28t28 -66zM1305 702q0 -38 -28.5 -66t-66.5 -28q-39 0 -66.5 27.5t-27.5 66.5t27.5 67t66.5 28q38 0 66.5 -28.5t28.5 -66.5zM899 905q0 -38 -28 -66t-66 -28
q-39 0 -66.5 27.5t-27.5 66.5t27.5 66.5t66.5 27.5q38 0 66 -28t28 -66zM1102 702q0 -38 -28 -66t-66 -28q-40 0 -67.5 28t-27.5 66q0 39 28 67t67 28q38 0 66 -28.5t28 -66.5zM696 905q0 -38 -28 -66t-66 -28t-66 28t-28 66t28 66t66 28t66 -28t28 -66zM494 905
q0 -38 -28.5 -66t-66.5 -28t-66 28t-28 66t28 66t66 28t66.5 -28t28.5 -66zM696 702q0 -38 -28 -66t-66 -28t-66 28t-28 66t28 66.5t66 28.5t66 -28.5t28 -66.5zM291 905q0 -38 -28 -66t-66 -28t-66.5 28t-28.5 66t28.5 66t66.5 28t66 -28t28 -66zM494 702q0 -38 -28.5 -66
t-66.5 -28t-66 28t-28 66t28 66.5t66 28.5t66.5 -28.5t28.5 -66.5zM696 500q0 -38 -28 -66t-66 -28t-66 28t-28 66t28 66t66 28t66 -28t28 -66zM494 500q0 -38 -28.5 -66t-66.5 -28t-66 28t-28 66t28 66t66 28t66.5 -28t28.5 -66zM696 297q0 -38 -28 -66t-66 -28t-66 28
t-28 66t28 66t66 28t66 -28t28 -66zM494 297q0 -38 -28.5 -66t-66.5 -28t-66 28t-28 66t28 66t66 28t66.5 -28t28.5 -66zM696 94q0 -38 -28 -66t-66 -28t-66 28t-28 66t28 66t66 28t66 -28t28 -66zM494 94q0 -38 -28.5 -66t-66.5 -28t-66 28t-28 66t28 66t66 28t66.5 -28
t28.5 -66z" />
    <glyph glyph-name="s" unicode="s" 
d="M1305 905q0 -38 -28.5 -66t-66.5 -28q-39 0 -66.5 27.5t-27.5 66.5t27.5 66.5t66.5 27.5q38 0 66.5 -28t28.5 -66zM1102 905q0 -38 -28 -66t-66 -28q-40 0 -67.5 27.5t-27.5 66.5t27.5 66.5t67.5 27.5q38 0 66 -28t28 -66zM899 905q0 -38 -28 -66t-66 -28
q-39 0 -66.5 27.5t-27.5 66.5t27.5 66.5t66.5 27.5q38 0 66 -28t28 -66zM696 905q0 -38 -28 -66t-66 -28t-66 28t-28 66t28 66t66 28t66 -28t28 -66zM1102 500q0 -38 -28 -66t-66 -28q-40 0 -67.5 28t-27.5 66t27.5 66t67.5 28q38 0 66 -28t28 -66zM1305 297
q0 -38 -28.5 -66t-66.5 -28q-39 0 -66.5 27.5t-27.5 66.5t27.5 66.5t66.5 27.5q38 0 66.5 -28t28.5 -66zM494 905q0 -38 -28.5 -66t-66.5 -28t-66 28t-28 66t28 66t66 28t66.5 -28t28.5 -66zM696 702q0 -38 -28 -66t-66 -28t-66 28t-28 66t28 66.5t66 28.5t66 -28.5
t28 -66.5zM899 500q0 -38 -28 -66t-66 -28q-39 0 -66.5 27.5t-27.5 66.5t27.5 66.5t66.5 27.5q38 0 66 -28t28 -66zM1102 297q0 -38 -28 -66t-66 -28q-40 0 -67.5 27.5t-27.5 66.5t27.5 66.5t67.5 27.5q38 0 66 -28t28 -66zM494 702q0 -38 -28.5 -66t-66.5 -28t-66 28
t-28 66t28 66.5t66 28.5t66.5 -28.5t28.5 -66.5zM696 500q0 -38 -28 -66t-66 -28t-66 28t-28 66t28 66t66 28t66 -28t28 -66zM899 297q0 -38 -28 -66t-66 -28q-39 0 -66.5 27.5t-27.5 66.5t27.5 66.5t66.5 27.5q38 0 66 -28t28 -66zM1102 94q0 -38 -28 -66t-66 -28
q-40 0 -67.5 28t-27.5 66t27.5 66t67.5 28q38 0 66 -28t28 -66zM291 702q0 -38 -28 -66t-66 -28t-66.5 28t-28.5 66t28.5 66.5t66.5 28.5t66 -28.5t28 -66.5zM494 500q0 -38 -28.5 -66t-66.5 -28t-66 28t-28 66t28 66t66 28t66.5 -28t28.5 -66zM899 94q0 -38 -28 -66
t-66 -28q-39 0 -66.5 27.5t-27.5 66.5t27.5 66.5t66.5 27.5q38 0 66 -28t28 -66zM696 94q0 -38 -28 -66t-66 -28t-66 28t-28 66t28 66t66 28t66 -28t28 -66zM494 94q0 -38 -28.5 -66t-66.5 -28t-66 28t-28 66t28 66t66 28t66.5 -28t28.5 -66zM291 94q0 -38 -28 -66t-66 -28
t-66.5 28t-28.5 66t28.5 66t66.5 28t66 -28t28 -66z" />
    <glyph glyph-name="t" unicode="t" horiz-adv-x="1204" 
d="M696 1311q0 -38 -28 -66t-66 -28t-66 28t-28 66t28 66t66 28t66 -28t28 -66zM1102 905q0 -38 -28 -66t-66 -28q-40 0 -67.5 27.5t-27.5 66.5t27.5 66.5t67.5 27.5q38 0 66 -28t28 -66zM494 1311q0 -38 -28.5 -66t-66.5 -28t-66 28t-28 66t28 66t66 28t66.5 -28t28.5 -66z
M696 1108q0 -38 -28 -66t-66 -28t-66 28t-28 66t28 66t66 28t66 -28t28 -66zM899 905q0 -38 -28 -66t-66 -28q-39 0 -66.5 27.5t-27.5 66.5t27.5 66.5t66.5 27.5q38 0 66 -28t28 -66zM494 1108q0 -38 -28.5 -66t-66.5 -28t-66 28t-28 66t28 66t66 28t66.5 -28t28.5 -66z
M696 905q0 -38 -28 -66t-66 -28q-39 0 -66.5 27.5t-27.5 66.5t27.5 66.5t66.5 27.5q38 0 66 -28t28 -66zM494 905q0 -38 -28.5 -66t-66.5 -28t-66 28t-28 66t28 66t66 28t66.5 -28t28.5 -66zM696 702q0 -38 -28 -66t-66 -28t-66 28t-28 66t28 66.5t66 28.5t66 -28.5
t28 -66.5zM291 905q0 -38 -28 -66t-66 -28t-66.5 28t-28.5 66t28.5 66t66.5 28t66 -28t28 -66zM494 702q0 -38 -28.5 -66t-66.5 -28t-66 28t-28 66t28 66.5t66 28.5t66.5 -28.5t28.5 -66.5zM696 500q0 -38 -28 -66t-66 -28t-66 28t-28 66t28 66t66 28t66 -28t28 -66z
M1102 94q0 -38 -28 -66t-66 -28q-40 0 -67.5 28t-27.5 66t27.5 66t67.5 28q38 0 66 -28t28 -66zM494 500q0 -38 -28.5 -66t-66.5 -28t-66 28t-28 66t28 66t66 28t66.5 -28t28.5 -66zM696 297q0 -38 -28 -66t-66 -28t-66 28t-28 66t28 66t66 28t66 -28t28 -66zM899 94
q0 -38 -28 -66t-66 -28q-39 0 -66.5 27.5t-27.5 66.5t27.5 66.5t66.5 27.5q38 0 66 -28t28 -66zM494 297q0 -38 -28.5 -66t-66.5 -28t-66 28t-28 66t28 66t66 28t66.5 -28t28.5 -66zM696 94q0 -38 -28 -66t-66 -28q-39 0 -66.5 27.5t-27.5 66.5t27.5 66.5t66.5 27.5
q38 0 66 -28t28 -66z" />
    <glyph glyph-name="u" unicode="u" 
d="M1305 905q0 -38 -28.5 -66t-66.5 -28q-39 0 -66.5 27.5t-27.5 66.5t27.5 66.5t66.5 27.5q38 0 66.5 -28t28.5 -66zM1102 905q0 -38 -28 -66t-66 -28q-40 0 -67.5 27.5t-27.5 66.5t27.5 66.5t67.5 27.5q38 0 66 -28t28 -66zM1305 702q0 -38 -28.5 -66t-66.5 -28
q-39 0 -66.5 27.5t-27.5 66.5t27.5 67t66.5 28q38 0 66.5 -28.5t28.5 -66.5zM1102 702q0 -38 -28 -66t-66 -28q-40 0 -67.5 28t-27.5 66q0 39 28 67t67 28q38 0 66 -28.5t28 -66.5zM1305 500q0 -38 -28.5 -66t-66.5 -28q-39 0 -66.5 27.5t-27.5 66.5t27.5 66.5t66.5 27.5
q38 0 66.5 -28t28.5 -66zM1102 500q0 -38 -28 -66t-66 -28q-40 0 -67.5 28t-27.5 66t27.5 66t67.5 28q38 0 66 -28t28 -66zM1305 297q0 -38 -28.5 -66t-66.5 -28q-39 0 -66.5 27.5t-27.5 66.5t27.5 66.5t66.5 27.5q38 0 66.5 -28t28.5 -66zM494 905q0 -38 -28.5 -66
t-66.5 -28t-66 28t-28 66t28 66t66 28t66.5 -28t28.5 -66zM1102 297q0 -38 -28 -66t-66 -28q-40 0 -67.5 27.5t-27.5 66.5t27.5 66.5t67.5 27.5q38 0 66 -28t28 -66zM1305 94q0 -38 -28.5 -66t-66.5 -28q-39 0 -66.5 27.5t-27.5 66.5t27.5 66.5t66.5 27.5q38 0 66.5 -28
t28.5 -66zM291 905q0 -38 -28 -66t-66 -28t-66.5 28t-28.5 66t28.5 66t66.5 28t66 -28t28 -66zM494 702q0 -38 -28.5 -66t-66.5 -28t-66 28t-28 66t28 66.5t66 28.5t66.5 -28.5t28.5 -66.5zM1102 94q0 -38 -28 -66t-66 -28q-40 0 -67.5 28t-27.5 66t27.5 66t67.5 28
q38 0 66 -28t28 -66zM291 702q0 -38 -28 -66t-66 -28t-66.5 28t-28.5 66t28.5 66.5t66.5 28.5t66 -28.5t28 -66.5zM494 500q0 -38 -28.5 -66t-66.5 -28t-66 28t-28 66t28 66t66 28t66.5 -28t28.5 -66zM899 94q0 -38 -28 -66t-66 -28q-39 0 -66.5 27.5t-27.5 66.5t27.5 66.5
t66.5 27.5q38 0 66 -28t28 -66zM291 500q0 -38 -28 -66t-66 -28t-66.5 28t-28.5 66t28.5 66t66.5 28t66 -28t28 -66zM494 297q0 -38 -28.5 -66t-66.5 -28t-66 28t-28 66t28 66t66 28t66.5 -28t28.5 -66zM696 94q0 -38 -28 -66t-66 -28t-66 28t-28 66t28 66t66 28t66 -28
t28 -66zM291 297q0 -38 -28 -66t-66 -28t-66.5 28t-28.5 66t28.5 66t66.5 28t66 -28t28 -66zM494 94q0 -38 -28.5 -66t-66.5 -28t-66 28t-28 66t28 66t66 28t66.5 -28t28.5 -66z" />
    <glyph glyph-name="v" unicode="v" 
d="M1305 905q0 -38 -28.5 -66t-66.5 -28q-39 0 -66.5 27.5t-27.5 66.5t27.5 66.5t66.5 27.5q38 0 66.5 -28t28.5 -66zM1102 905q0 -38 -28 -66t-66 -28q-40 0 -67.5 27.5t-27.5 66.5t27.5 66.5t67.5 27.5q38 0 66 -28t28 -66zM1305 702q0 -38 -28.5 -66t-66.5 -28
q-39 0 -66.5 27.5t-27.5 66.5t27.5 67t66.5 28q38 0 66.5 -28.5t28.5 -66.5zM1102 702q0 -38 -28 -66t-66 -28q-40 0 -67.5 28t-27.5 66q0 39 28 67t67 28q38 0 66 -28.5t28 -66.5zM1102 500q0 -38 -28 -66t-66 -28q-40 0 -67.5 28t-27.5 66t27.5 66t67.5 28q38 0 66 -28
t28 -66zM494 905q0 -38 -28.5 -66t-66.5 -28t-66 28t-28 66t28 66t66 28t66.5 -28t28.5 -66zM899 500q0 -38 -28 -66t-66 -28q-39 0 -66.5 27.5t-27.5 66.5t27.5 66.5t66.5 27.5q38 0 66 -28t28 -66zM1102 297q0 -38 -28 -66t-66 -28q-40 0 -67.5 27.5t-27.5 66.5t27.5 66.5
t67.5 27.5q38 0 66 -28t28 -66zM291 905q0 -38 -28 -66t-66 -28t-66.5 28t-28.5 66t28.5 66t66.5 28t66 -28t28 -66zM494 702q0 -38 -28.5 -66t-66.5 -28t-66 28t-28 66t28 66.5t66 28.5t66.5 -28.5t28.5 -66.5zM696 500q0 -38 -28 -66t-66 -28t-66 28t-28 66t28 66t66 28
t66 -28t28 -66zM899 297q0 -38 -28 -66t-66 -28q-39 0 -66.5 27.5t-27.5 66.5t27.5 66.5t66.5 27.5q38 0 66 -28t28 -66zM291 702q0 -38 -28 -66t-66 -28t-66.5 28t-28.5 66t28.5 66.5t66.5 28.5t66 -28.5t28 -66.5zM494 500q0 -38 -28.5 -66t-66.5 -28t-66 28t-28 66t28 66
t66 28t66.5 -28t28.5 -66zM696 297q0 -38 -28 -66t-66 -28t-66 28t-28 66t28 66t66 28t66 -28t28 -66zM899 94q0 -38 -28 -66t-66 -28t-66 28t-28 66t28 66t66 28t66 -28t28 -66zM494 297q0 -38 -28.5 -66t-66.5 -28t-66 28t-28 66t28 66t66 28t66.5 -28t28.5 -66zM696 94
q0 -38 -28 -66t-66 -28t-66 28t-28 66t28 66t66 28t66 -28t28 -66z" />
    <glyph glyph-name="w" unicode="w" horiz-adv-x="1812" 
d="M1710 905q0 -38 -28 -66t-66 -28q-39 0 -66.5 27.5t-27.5 66.5t27.5 66.5t66.5 27.5q38 0 66 -28t28 -66zM1507 905q0 -38 -28 -66t-66 -28q-39 0 -66.5 27.5t-27.5 66.5t27.5 66.5t66.5 27.5q38 0 66 -28t28 -66zM1710 702q0 -38 -28 -66t-66 -28q-39 0 -66.5 27.5
t-27.5 66.5t27.5 67t66.5 28q38 0 66 -28.5t28 -66.5zM1507 702q0 -38 -28 -66t-66 -28q-39 0 -66.5 27.5t-27.5 66.5t27.5 67t66.5 28q38 0 66 -28.5t28 -66.5zM1710 500q0 -38 -28 -66t-66 -28q-39 0 -66.5 27.5t-27.5 66.5t27.5 66.5t66.5 27.5q38 0 66 -28t28 -66z
M1507 500q0 -38 -28 -66t-66 -28q-39 0 -66.5 27.5t-27.5 66.5t27.5 66.5t66.5 27.5q38 0 66 -28t28 -66zM1710 297q0 -38 -28 -66t-66 -28q-39 0 -66.5 27.5t-27.5 66.5t27.5 66.5t66.5 27.5q38 0 66 -28t28 -66zM1102 702q0 -38 -28 -66t-66 -28t-66.5 28t-28.5 66
t28.5 66.5t66.5 28.5t66 -28.5t28 -66.5zM1507 297q0 -38 -28 -66t-66 -28q-39 0 -66.5 27.5t-27.5 66.5t27.5 66.5t66.5 27.5q38 0 66 -28t28 -66zM899 702q0 -38 -28 -66t-66 -28t-66 28t-28 66t28 66.5t66 28.5t66 -28.5t28 -66.5zM1102 500q0 -38 -28 -66t-66 -28
t-66.5 28t-28.5 66t28.5 66t66.5 28t66 -28t28 -66zM1305 297q0 -38 -28.5 -66t-66.5 -28t-66 28t-28 66t28 66t66 28t66.5 -28t28.5 -66zM1507 94q0 -38 -28 -66t-66 -28q-39 0 -66.5 27.5t-27.5 66.5t27.5 66.5t66.5 27.5q38 0 66 -28t28 -66zM494 905q0 -38 -28.5 -66
t-66.5 -28t-66 28t-28 66t28 66t66 28t66.5 -28t28.5 -66zM899 500q0 -38 -28 -66t-66 -28t-66 28t-28 66t28 66t66 28t66 -28t28 -66zM1102 297q0 -38 -28 -66t-66 -28t-66.5 28t-28.5 66t28.5 66t66.5 28t66 -28t28 -66zM1305 94q0 -38 -28.5 -66t-66.5 -28
q-39 0 -66.5 27.5t-27.5 66.5t27.5 66.5t66.5 27.5q38 0 66.5 -28t28.5 -66zM291 905q0 -38 -28 -66t-66 -28t-66.5 28t-28.5 66t28.5 66t66.5 28t66 -28t28 -66zM494 702q0 -38 -28.5 -66t-66.5 -28t-66 28t-28 66t28 66.5t66 28.5t66.5 -28.5t28.5 -66.5zM899 297
q0 -38 -28 -66t-66 -28t-66 28t-28 66t28 66t66 28t66 -28t28 -66zM291 702q0 -38 -28 -66t-66 -28t-66.5 28t-28.5 66t28.5 66.5t66.5 28.5t66 -28.5t28 -66.5zM494 500q0 -38 -28.5 -66t-66.5 -28t-66 28t-28 66t28 66t66 28t66.5 -28t28.5 -66zM696 297q0 -38 -28 -66
t-66 -28t-66 28t-28 66t28 66t66 28t66 -28t28 -66zM291 500q0 -38 -28 -66t-66 -28t-66.5 28t-28.5 66t28.5 66t66.5 28t66 -28t28 -66zM494 297q0 -38 -28.5 -66t-66.5 -28t-66 28t-28 66t28 66t66 28t66.5 -28t28.5 -66zM696 94q0 -38 -28 -66t-66 -28t-66 28t-28 66
t28 66t66 28t66 -28t28 -66zM291 297q0 -38 -28 -66t-66 -28t-66.5 28t-28.5 66t28.5 66t66.5 28t66 -28t28 -66zM494 94q0 -38 -28.5 -66t-66.5 -28t-66 28t-28 66t28 66t66 28t66.5 -28t28.5 -66z" />
    <glyph glyph-name="x" unicode="x" 
d="M1305 905q0 -38 -28.5 -66t-66.5 -28q-39 0 -66.5 27.5t-27.5 66.5t27.5 66.5t66.5 27.5q38 0 66.5 -28t28.5 -66zM1102 905q0 -38 -28 -66t-66 -28q-40 0 -67.5 27.5t-27.5 66.5t27.5 66.5t67.5 27.5q38 0 66 -28t28 -66zM1102 702q0 -38 -28 -66t-66 -28
q-40 0 -67.5 28t-27.5 66q0 39 28 67t67 28q38 0 66 -28.5t28 -66.5zM899 702q0 -38 -28 -66t-66 -28q-39 0 -66.5 27.5t-27.5 66.5t27.5 67t66.5 28q38 0 66 -28.5t28 -66.5zM494 905q0 -38 -28.5 -66t-66.5 -28t-66 28t-28 66t28 66t66 28t66.5 -28t28.5 -66zM696 702
q0 -38 -28 -66t-66 -28t-66 28t-28 66t28 66.5t66 28.5t66 -28.5t28 -66.5zM899 500q0 -38 -28 -66t-66 -28t-66 28t-28 66t28 66t66 28t66 -28t28 -66zM1102 297q0 -38 -28 -66t-66 -28q-40 0 -67.5 27.5t-27.5 66.5t27.5 66.5t67.5 27.5q38 0 66 -28t28 -66zM1305 94
q0 -38 -28.5 -66t-66.5 -28q-39 0 -66.5 27.5t-27.5 66.5t27.5 66.5t66.5 27.5q38 0 66.5 -28t28.5 -66zM291 905q0 -38 -28 -66t-66 -28t-66.5 28t-28.5 66t28.5 66t66.5 28t66 -28t28 -66zM494 702q0 -38 -28.5 -66t-66.5 -28t-66 28t-28 66t28 66.5t66 28.5t66.5 -28.5
t28.5 -66.5zM696 500q0 -38 -28 -66t-66 -28t-66 28t-28 66t28 66t66 28t66 -28t28 -66zM899 297q0 -38 -28 -66t-66 -28q-39 0 -66.5 27.5t-27.5 66.5t27.5 66.5t66.5 27.5q38 0 66 -28t28 -66zM1102 94q0 -38 -28 -66t-66 -28q-40 0 -67.5 28t-27.5 66t27.5 66t67.5 28
q38 0 66 -28t28 -66zM696 297q0 -38 -28 -66t-66 -28t-66 28t-28 66t28 66t66 28t66 -28t28 -66zM494 297q0 -38 -28.5 -66t-66.5 -28t-66 28t-28 66t28 66t66 28t66.5 -28t28.5 -66zM494 94q0 -38 -28.5 -66t-66.5 -28t-66 28t-28 66t28 66t66 28t66.5 -28t28.5 -66z
M291 94q0 -38 -28 -66t-66 -28t-66.5 28t-28.5 66t28.5 66t66.5 28t66 -28t28 -66z" />
    <glyph glyph-name="y" unicode="y" 
d="M1305 905q0 -38 -28.5 -66t-66.5 -28q-39 0 -66.5 27.5t-27.5 66.5t27.5 66.5t66.5 27.5q38 0 66.5 -28t28.5 -66zM1102 905q0 -38 -28 -66t-66 -28q-40 0 -67.5 27.5t-27.5 66.5t27.5 66.5t67.5 27.5q38 0 66 -28t28 -66zM1305 702q0 -38 -28.5 -66t-66.5 -28
q-39 0 -66.5 27.5t-27.5 66.5t27.5 67t66.5 28q38 0 66.5 -28.5t28.5 -66.5zM1102 702q0 -38 -28 -66t-66 -28q-40 0 -67.5 28t-27.5 66q0 39 28 67t67 28q38 0 66 -28.5t28 -66.5zM1305 500q0 -38 -28.5 -66t-66.5 -28q-39 0 -66.5 27.5t-27.5 66.5t27.5 66.5t66.5 27.5
q38 0 66.5 -28t28.5 -66zM1102 500q0 -38 -28 -66t-66 -28q-40 0 -67.5 28t-27.5 66t27.5 66t67.5 28q38 0 66 -28t28 -66zM1305 297q0 -38 -28.5 -66t-66.5 -28q-39 0 -66.5 27.5t-27.5 66.5t27.5 66.5t66.5 27.5q38 0 66.5 -28t28.5 -66zM494 905q0 -38 -28.5 -66
t-66.5 -28t-66 28t-28 66t28 66t66 28t66.5 -28t28.5 -66zM1102 297q0 -38 -28 -66t-66 -28q-40 0 -67.5 27.5t-27.5 66.5t27.5 66.5t67.5 27.5q38 0 66 -28t28 -66zM1305 94q0 -38 -28.5 -66t-66.5 -28q-39 0 -66.5 27.5t-27.5 66.5t27.5 66.5t66.5 27.5q38 0 66.5 -28
t28.5 -66zM291 905q0 -38 -28 -66t-66 -28t-66.5 28t-28.5 66t28.5 66t66.5 28t66 -28t28 -66zM494 702q0 -38 -28.5 -66t-66.5 -28t-66 28t-28 66t28 66.5t66 28.5t66.5 -28.5t28.5 -66.5zM899 297q0 -38 -28 -66t-66 -28q-39 0 -66.5 27.5t-27.5 66.5t27.5 66.5t66.5 27.5
q38 0 66 -28t28 -66zM1102 94q0 -38 -28 -66t-66 -28q-40 0 -67.5 28t-27.5 66t27.5 66t67.5 28q38 0 66 -28t28 -66zM291 702q0 -38 -28 -66t-66 -28t-66.5 28t-28.5 66t28.5 66.5t66.5 28.5t66 -28.5t28 -66.5zM494 500q0 -38 -28.5 -66t-66.5 -28t-66 28t-28 66t28 66
t66 28t66.5 -28t28.5 -66zM696 297q0 -38 -28 -66t-66 -28t-66 28t-28 66t28 66t66 28t66 -28t28 -66zM1102 -109q0 -38 -28 -66t-66 -28q-40 0 -67.5 27.5t-27.5 66.5q0 40 27.5 67.5t67.5 27.5q38 0 66 -28t28 -67zM291 500q0 -38 -28 -66t-66 -28t-66.5 28t-28.5 66
t28.5 66t66.5 28t66 -28t28 -66zM494 297q0 -38 -28.5 -66t-66.5 -28t-66 28t-28 66t28 66t66 28t66.5 -28t28.5 -66zM899 -109q0 -38 -28 -66t-66 -28q-39 0 -66.5 27.5t-27.5 66.5q0 40 27 67.5t67 27.5q39 0 66.5 -28t27.5 -67zM696 -109q0 -38 -28 -66t-66 -28t-66 28
t-28 66q0 39 28 67t66 28t66 -28t28 -67zM494 -109q0 -38 -28.5 -66t-66.5 -28t-66 28t-28 66q0 39 27.5 67t66.5 28t67 -28t28 -67z" />
    <glyph glyph-name="z" unicode="z" 
d="M1305 905q0 -38 -28.5 -66t-66.5 -28q-39 0 -66.5 27.5t-27.5 66.5t27.5 66.5t66.5 27.5q38 0 66.5 -28t28.5 -66zM1102 905q0 -38 -28 -66t-66 -28q-40 0 -67.5 27.5t-27.5 66.5t27.5 66.5t67.5 27.5q38 0 66 -28t28 -66zM899 905q0 -38 -28 -66t-66 -28
q-39 0 -66.5 27.5t-27.5 66.5t27.5 66.5t66.5 27.5q38 0 66 -28t28 -66zM1102 702q0 -38 -28 -66t-66 -28q-40 0 -67.5 28t-27.5 66q0 39 28 67t67 28q38 0 66 -28.5t28 -66.5zM696 905q0 -38 -28 -66t-66 -28t-66 28t-28 66t28 66t66 28t66 -28t28 -66zM899 702
q0 -38 -28 -66t-66 -28q-39 0 -66.5 27.5t-27.5 66.5t27.5 67t66.5 28q38 0 66 -28.5t28 -66.5zM494 905q0 -38 -28.5 -66t-66.5 -28t-66 28t-28 66t28 66t66 28t66.5 -28t28.5 -66zM899 500q0 -38 -28 -66t-66 -28t-66 28t-28 66t28 66t66 28t66 -28t28 -66zM1305 94
q0 -38 -28.5 -66t-66.5 -28q-39 0 -66.5 27.5t-27.5 66.5t27.5 66.5t66.5 27.5q38 0 66.5 -28t28.5 -66zM291 905q0 -38 -28 -66t-66 -28t-66.5 28t-28.5 66t28.5 66t66.5 28t66 -28t28 -66zM696 500q0 -38 -28 -66t-66 -28t-66 28t-28 66t28 66t66 28t66 -28t28 -66z
M1102 94q0 -38 -28 -66t-66 -28q-40 0 -67.5 28t-27.5 66t27.5 66t67.5 28q38 0 66 -28t28 -66zM696 297q0 -38 -28 -66t-66 -28t-66 28t-28 66t28 66t66 28t66 -28t28 -66zM899 94q0 -38 -28 -66t-66 -28q-39 0 -66.5 27.5t-27.5 66.5t27.5 66.5t66.5 27.5q38 0 66 -28
t28 -66zM494 297q0 -38 -28.5 -66t-66.5 -28t-66 28t-28 66t28 66t66 28t66.5 -28t28.5 -66zM696 94q0 -38 -28 -66t-66 -28t-66 28t-28 66t28 66t66 28t66 -28t28 -66zM494 94q0 -38 -28.5 -66t-66.5 -28t-66 28t-28 66t28 66t66 28t66.5 -28t28.5 -66zM291 94
q0 -38 -28 -66t-66 -28t-66.5 28t-28.5 66t28.5 66t66.5 28t66 -28t28 -66z" />
    <glyph glyph-name="braceleft" unicode="{" horiz-adv-x="1001" 
d="M899 1311q0 -38 -28 -66t-66 -28q-39 0 -66.5 27.5t-27.5 66.5t27.5 66.5t66.5 27.5q38 0 66 -28t28 -66zM696 1311q0 -38 -28 -66t-66 -28q-39 0 -66.5 27.5t-27.5 66.5t27.5 66.5t66.5 27.5q38 0 66 -28t28 -66zM696 1108q0 -38 -28 -66t-66 -28t-66 28t-28 66t28 66
t66 28t66 -28t28 -66zM494 1108q0 -38 -28.5 -66t-66.5 -28t-66 28t-28 66t28 66t66 28t66.5 -28t28.5 -66zM696 905q0 -38 -28 -66t-66 -28t-66 28t-28 66t28 66t66 28t66 -28t28 -66zM494 905q0 -38 -28.5 -66t-66.5 -28t-66 28t-28 66t28 66t66 28t66.5 -28t28.5 -66z
M494 702q0 -38 -28.5 -66t-66.5 -28t-66 28t-28 66t28 66.5t66 28.5t66.5 -28.5t28.5 -66.5zM696 500q0 -38 -28 -66t-66 -28t-66 28t-28 66t28 66t66 28t66 -28t28 -66zM291 702q0 -38 -28 -66t-66 -28t-66.5 28t-28.5 66t28.5 66.5t66.5 28.5t66 -28.5t28 -66.5zM494 500
q0 -38 -28.5 -66t-66.5 -28t-66 28t-28 66t28 66t66 28t66.5 -28t28.5 -66zM696 297q0 -38 -28 -66t-66 -28t-66 28t-28 66t28 66t66 28t66 -28t28 -66zM899 94q0 -38 -28 -66t-66 -28q-39 0 -66.5 27.5t-27.5 66.5t27.5 66.5t66.5 27.5q38 0 66 -28t28 -66zM494 297
q0 -38 -28.5 -66t-66.5 -28t-66 28t-28 66t28 66t66 28t66.5 -28t28.5 -66zM696 94q0 -38 -28 -66t-66 -28q-39 0 -66.5 27.5t-27.5 66.5t27.5 66.5t66.5 27.5q38 0 66 -28t28 -66z" />
    <glyph glyph-name="bar" unicode="|" horiz-adv-x="1001" 
d="M696 1311q0 -38 -28 -66t-66 -28t-66 28t-28 66t28 66t66 28t66 -28t28 -66zM494 1311q0 -38 -28.5 -66t-66.5 -28t-66 28t-28 66t28 66t66 28t66.5 -28t28.5 -66zM696 1108q0 -38 -28 -66t-66 -28t-66 28t-28 66t28 66t66 28t66 -28t28 -66zM494 1108q0 -38 -28.5 -66
t-66.5 -28t-66 28t-28 66t28 66t66 28t66.5 -28t28.5 -66zM696 905q0 -38 -28 -66t-66 -28t-66 28t-28 66t28 66t66 28t66 -28t28 -66zM494 905q0 -38 -28.5 -66t-66.5 -28t-66 28t-28 66t28 66t66 28t66.5 -28t28.5 -66zM696 702q0 -38 -28 -66t-66 -28t-66 28t-28 66
t28 66.5t66 28.5t66 -28.5t28 -66.5zM494 702q0 -38 -28.5 -66t-66.5 -28t-66 28t-28 66t28 66.5t66 28.5t66.5 -28.5t28.5 -66.5zM696 500q0 -38 -28 -66t-66 -28t-66 28t-28 66t28 66t66 28t66 -28t28 -66zM494 500q0 -38 -28.5 -66t-66.5 -28t-66 28t-28 66t28 66t66 28
t66.5 -28t28.5 -66zM696 297q0 -38 -28 -66t-66 -28t-66 28t-28 66t28 66t66 28t66 -28t28 -66zM494 297q0 -38 -28.5 -66t-66.5 -28t-66 28t-28 66t28 66t66 28t66.5 -28t28.5 -66zM696 94q0 -38 -28 -66t-66 -28t-66 28t-28 66t28 66t66 28t66 -28t28 -66zM494 94
q0 -38 -28.5 -66t-66.5 -28t-66 28t-28 66t28 66t66 28t66.5 -28t28.5 -66zM696 -109q0 -38 -28 -66t-66 -28t-66 28t-28 66q0 39 28 67t66 28t66 -28t28 -67zM494 -109q0 -38 -28.5 -66t-66.5 -28t-66 28t-28 66q0 39 27.5 67t66.5 28t67 -28t28 -67z" />
    <glyph glyph-name="braceright" unicode="}" horiz-adv-x="1001" 
d="M494 1311q0 -38 -28.5 -66t-66.5 -28t-66 28t-28 66t28 66t66 28t66.5 -28t28.5 -66zM696 1108q0 -38 -28 -66t-66 -28t-66 28t-28 66t28 66t66 28t66 -28t28 -66zM291 1311q0 -38 -28 -66t-66 -28t-66.5 28t-28.5 66t28.5 66t66.5 28t66 -28t28 -66zM494 1108
q0 -38 -28.5 -66t-66.5 -28t-66 28t-28 66t28 66t66 28t66.5 -28t28.5 -66zM696 905q0 -38 -28 -66t-66 -28t-66 28t-28 66t28 66t66 28t66 -28t28 -66zM899 702q0 -38 -28 -66t-66 -28q-39 0 -66.5 27.5t-27.5 66.5t27.5 67t66.5 28q38 0 66 -28.5t28 -66.5zM494 905
q0 -38 -28.5 -66t-66.5 -28t-66 28t-28 66t28 66t66 28t66.5 -28t28.5 -66zM696 702q0 -38 -28 -66t-66 -28q-39 0 -66.5 27.5t-27.5 66.5t27.5 67t66.5 28q38 0 66 -28.5t28 -66.5zM696 500q0 -38 -28 -66t-66 -28t-66 28t-28 66t28 66t66 28t66 -28t28 -66zM494 500
q0 -38 -28.5 -66t-66.5 -28t-66 28t-28 66t28 66t66 28t66.5 -28t28.5 -66zM696 297q0 -38 -28 -66t-66 -28t-66 28t-28 66t28 66t66 28t66 -28t28 -66zM494 297q0 -38 -28.5 -66t-66.5 -28t-66 28t-28 66t28 66t66 28t66.5 -28t28.5 -66zM494 94q0 -38 -28.5 -66t-66.5 -28
t-66 28t-28 66t28 66t66 28t66.5 -28t28.5 -66zM291 94q0 -38 -28 -66t-66 -28t-66.5 28t-28.5 66t28.5 66t66.5 28t66 -28t28 -66z" />
    <glyph glyph-name="asciitilde" unicode="~" 
d="M1305 1513q0 -38 -28.5 -66t-66.5 -28q-39 0 -66.5 27.5t-27.5 66.5t27.5 67t66.5 28q38 0 66.5 -28.5t28.5 -66.5zM1102 1513q0 -38 -28 -66t-66 -28q-40 0 -67.5 27.5t-27.5 66.5t28 67t67 28q38 0 66 -28.5t28 -66.5zM1102 1311q0 -38 -28 -66t-66 -28
q-40 0 -67.5 27.5t-27.5 66.5t27.5 66.5t67.5 27.5q38 0 66 -28t28 -66zM696 1513q0 -38 -28 -66t-66 -28t-66 28t-28 66t28 66.5t66 28.5t66 -28.5t28 -66.5zM899 1311q0 -38 -28 -66t-66 -28q-39 0 -66.5 27.5t-27.5 66.5t27.5 66.5t66.5 27.5q38 0 66 -28t28 -66z
M494 1513q0 -38 -28.5 -66t-66.5 -28t-66 28t-28 66t28 66.5t66 28.5t66.5 -28.5t28.5 -66.5zM696 1311q0 -38 -28 -66t-66 -28t-66 28t-28 66t28 66t66 28t66 -28t28 -66zM494 1311q0 -38 -28.5 -66t-66.5 -28t-66 28t-28 66t28 66t66 28t66.5 -28t28.5 -66zM291 1311
q0 -38 -28 -66t-66 -28t-66.5 28t-28.5 66t28.5 66t66.5 28t66 -28t28 -66z" />
    <glyph glyph-name="nbspace" unicode="&#xa0;" horiz-adv-x="1204" 
 />
    <glyph glyph-name="exclamdown" unicode="&#xa1;" horiz-adv-x="1001" 
d="M696 1311q0 -38 -28 -66t-66 -28t-66 28t-28 66t28 66t66 28t66 -28t28 -66zM494 1311q0 -38 -28.5 -66t-66.5 -28t-66 28t-28 66t28 66t66 28t66.5 -28t28.5 -66zM696 905q0 -38 -28 -66t-66 -28t-66 28t-28 66t28 66t66 28t66 -28t28 -66zM494 905q0 -38 -28.5 -66
t-66.5 -28t-66 28t-28 66t28 66t66 28t66.5 -28t28.5 -66zM696 702q0 -38 -28 -66t-66 -28t-66 28t-28 66t28 66.5t66 28.5t66 -28.5t28 -66.5zM494 702q0 -38 -28.5 -66t-66.5 -28t-66 28t-28 66t28 66.5t66 28.5t66.5 -28.5t28.5 -66.5zM696 500q0 -38 -28 -66t-66 -28
t-66 28t-28 66t28 66t66 28t66 -28t28 -66zM494 500q0 -38 -28.5 -66t-66.5 -28t-66 28t-28 66t28 66t66 28t66.5 -28t28.5 -66zM696 297q0 -38 -28 -66t-66 -28t-66 28t-28 66t28 66t66 28t66 -28t28 -66zM494 297q0 -38 -28.5 -66t-66.5 -28t-66 28t-28 66t28 66t66 28
t66.5 -28t28.5 -66zM696 94q0 -38 -28 -66t-66 -28t-66 28t-28 66t28 66t66 28t66 -28t28 -66zM494 94q0 -38 -28.5 -66t-66.5 -28t-66 28t-28 66t28 66t66 28t66.5 -28t28.5 -66z" />
    <glyph glyph-name="cent" unicode="&#xa2;" 
d="M899 1311q0 -38 -28 -66t-66 -28t-66 28t-28 66t28 66t66 28t66 -28t28 -66zM1102 1108q0 -38 -28 -66t-66 -28q-40 0 -67.5 28t-27.5 66t27.5 66t67.5 28q38 0 66 -28t28 -66zM1305 905q0 -38 -28.5 -66t-66.5 -28q-39 0 -66.5 27.5t-27.5 66.5t27.5 66.5t66.5 27.5
q38 0 66.5 -28t28.5 -66zM696 1311q0 -38 -28 -66t-66 -28t-66 28t-28 66t28 66t66 28t66 -28t28 -66zM899 1108q0 -38 -28 -66t-66 -28q-39 0 -66.5 27.5t-27.5 66.5t27.5 66.5t66.5 27.5q38 0 66 -28t28 -66zM1102 905q0 -38 -28 -66t-66 -28q-40 0 -67.5 27.5t-27.5 66.5
t27.5 66.5t67.5 27.5q38 0 66 -28t28 -66zM696 1108q0 -38 -28 -66t-66 -28t-66 28t-28 66t28 66t66 28t66 -28t28 -66zM494 1108q0 -38 -28.5 -66t-66.5 -28t-66 28t-28 66t28 66t66 28t66.5 -28t28.5 -66zM1305 297q0 -38 -28.5 -66t-66.5 -28q-39 0 -66.5 27.5
t-27.5 66.5t27.5 66.5t66.5 27.5q38 0 66.5 -28t28.5 -66zM494 905q0 -38 -28.5 -66t-66.5 -28t-66 28t-28 66t28 66t66 28t66.5 -28t28.5 -66zM1102 297q0 -38 -28 -66t-66 -28q-40 0 -67.5 27.5t-27.5 66.5t27.5 66.5t67.5 27.5q38 0 66 -28t28 -66zM291 905
q0 -38 -28 -66t-66 -28t-66.5 28t-28.5 66t28.5 66t66.5 28t66 -28t28 -66zM494 702q0 -38 -28.5 -66t-66.5 -28t-66 28t-28 66t28 66.5t66 28.5t66.5 -28.5t28.5 -66.5zM899 297q0 -38 -28 -66t-66 -28q-39 0 -66.5 27.5t-27.5 66.5t27.5 66.5t66.5 27.5q38 0 66 -28
t28 -66zM291 702q0 -38 -28 -66t-66 -28t-66.5 28t-28.5 66t28.5 66.5t66.5 28.5t66 -28.5t28 -66.5zM494 500q0 -38 -28.5 -66t-66.5 -28t-66 28t-28 66t28 66t66 28t66.5 -28t28.5 -66zM696 297q0 -38 -28 -66t-66 -28t-66 28t-28 66t28 66t66 28t66 -28t28 -66zM899 94
q0 -38 -28 -66t-66 -28t-66 28t-28 66t28 66t66 28t66 -28t28 -66zM291 500q0 -38 -28 -66t-66 -28t-66.5 28t-28.5 66t28.5 66t66.5 28t66 -28t28 -66zM494 297q0 -38 -28.5 -66t-66.5 -28t-66 28t-28 66t28 66t66 28t66.5 -28t28.5 -66zM696 94q0 -38 -28 -66t-66 -28
t-66 28t-28 66t28 66t66 28t66 -28t28 -66z" />
    <glyph glyph-name="sterling" unicode="&#xa3;" 
d="M1102 1311q0 -38 -28 -66t-66 -28q-40 0 -67.5 27.5t-27.5 66.5t27.5 66.5t67.5 27.5q38 0 66 -28t28 -66zM899 1311q0 -38 -28 -66t-66 -28q-39 0 -66.5 27.5t-27.5 66.5t27.5 66.5t66.5 27.5q38 0 66 -28t28 -66zM696 1311q0 -38 -28 -66t-66 -28t-66 28t-28 66t28 66
t66 28t66 -28t28 -66zM696 1108q0 -38 -28 -66t-66 -28t-66 28t-28 66t28 66t66 28t66 -28t28 -66zM1102 702q0 -38 -28 -66t-66 -28q-40 0 -67.5 28t-27.5 66q0 39 28 67t67 28q38 0 66 -28.5t28 -66.5zM494 1108q0 -38 -28.5 -66t-66.5 -28t-66 28t-28 66t28 66t66 28
t66.5 -28t28.5 -66zM696 905q0 -38 -28 -66t-66 -28t-66 28t-28 66t28 66t66 28t66 -28t28 -66zM899 702q0 -38 -28 -66t-66 -28q-39 0 -66.5 27.5t-27.5 66.5t27.5 67t66.5 28q38 0 66 -28.5t28 -66.5zM494 905q0 -38 -28.5 -66t-66.5 -28t-66 28t-28 66t28 66t66 28
t66.5 -28t28.5 -66zM696 702q0 -38 -28 -66t-66 -28t-66 28t-28 66t28 66.5t66 28.5t66 -28.5t28 -66.5zM1305 94q0 -38 -28.5 -66t-66.5 -28q-39 0 -66.5 27.5t-27.5 66.5t27.5 66.5t66.5 27.5q38 0 66.5 -28t28.5 -66zM494 702q0 -38 -28.5 -66t-66.5 -28t-66 28t-28 66
t28 66.5t66 28.5t66.5 -28.5t28.5 -66.5zM696 500q0 -38 -28 -66t-66 -28t-66 28t-28 66t28 66t66 28t66 -28t28 -66zM1102 94q0 -38 -28 -66t-66 -28q-40 0 -67.5 28t-27.5 66t27.5 66t67.5 28q38 0 66 -28t28 -66zM291 702q0 -38 -28 -66t-66 -28t-66.5 28t-28.5 66
t28.5 66.5t66.5 28.5t66 -28.5t28 -66.5zM494 500q0 -38 -28.5 -66t-66.5 -28t-66 28t-28 66t28 66t66 28t66.5 -28t28.5 -66zM696 297q0 -38 -28 -66t-66 -28t-66 28t-28 66t28 66t66 28t66 -28t28 -66zM899 94q0 -38 -28 -66t-66 -28q-39 0 -66.5 27.5t-27.5 66.5
t27.5 66.5t66.5 27.5q38 0 66 -28t28 -66zM494 297q0 -38 -28.5 -66t-66.5 -28t-66 28t-28 66t28 66t66 28t66.5 -28t28.5 -66zM696 94q0 -38 -28 -66t-66 -28t-66 28t-28 66t28 66t66 28t66 -28t28 -66zM494 94q0 -38 -28.5 -66t-66.5 -28t-66 28t-28 66t28 66t66 28
t66.5 -28t28.5 -66zM291 94q0 -38 -28 -66t-66 -28t-66.5 28t-28.5 66t28.5 66t66.5 28t66 -28t28 -66z" />
    <glyph glyph-name="currency" unicode="&#xa4;" horiz-adv-x="1609" 
d="M1507 1108q0 -38 -28 -66t-66 -28q-39 0 -66.5 27.5t-27.5 66.5t27.5 66.5t66.5 27.5q38 0 66 -28t28 -66zM1305 1108q0 -38 -28.5 -66t-66.5 -28q-39 0 -66.5 27.5t-27.5 66.5t27.5 66.5t66.5 27.5q38 0 66.5 -28t28.5 -66zM1305 905q0 -38 -28.5 -66t-66.5 -28
q-39 0 -66.5 27.5t-27.5 66.5t27.5 66.5t66.5 27.5q38 0 66.5 -28t28.5 -66zM1102 905q0 -38 -28 -66t-66 -28q-40 0 -67.5 27.5t-27.5 66.5t27.5 66.5t67.5 27.5q38 0 66 -28t28 -66zM1305 702q0 -38 -28.5 -66t-66.5 -28q-39 0 -66.5 27.5t-27.5 66.5t27.5 67t66.5 28
q38 0 66.5 -28.5t28.5 -66.5zM899 905q0 -38 -28 -66t-66 -28t-66 28t-28 66t28 66t66 28t66 -28t28 -66zM1102 702q0 -38 -28 -66t-66 -28q-40 0 -67.5 28t-27.5 66q0 39 28 67t67 28q38 0 66 -28.5t28 -66.5zM1305 500q0 -38 -28.5 -66t-66.5 -28q-39 0 -66.5 27.5
t-27.5 66.5t27.5 66.5t66.5 27.5q38 0 66.5 -28t28.5 -66zM1507 297q0 -38 -28 -66t-66 -28q-39 0 -66.5 27.5t-27.5 66.5t27.5 66.5t66.5 27.5q38 0 66 -28t28 -66zM494 1108q0 -38 -28.5 -66t-66.5 -28t-66 28t-28 66t28 66t66 28t66.5 -28t28.5 -66zM696 905
q0 -38 -28 -66t-66 -28t-66 28t-28 66t28 66t66 28t66 -28t28 -66zM1102 500q0 -38 -28 -66t-66 -28q-40 0 -67.5 28t-27.5 66t27.5 66t67.5 28q38 0 66 -28t28 -66zM1305 297q0 -38 -28.5 -66t-66.5 -28q-39 0 -66.5 27.5t-27.5 66.5t27.5 66.5t66.5 27.5q38 0 66.5 -28
t28.5 -66zM291 1108q0 -38 -28 -66t-66 -28t-66.5 28t-28.5 66t28.5 66t66.5 28t66 -28t28 -66zM494 905q0 -38 -28.5 -66t-66.5 -28t-66 28t-28 66t28 66t66 28t66.5 -28t28.5 -66zM696 702q0 -38 -28 -66t-66 -28t-66 28t-28 66t28 66.5t66 28.5t66 -28.5t28 -66.5z
M899 500q0 -38 -28 -66t-66 -28t-66 28t-28 66t28 66t66 28t66 -28t28 -66zM494 702q0 -38 -28.5 -66t-66.5 -28t-66 28t-28 66t28 66.5t66 28.5t66.5 -28.5t28.5 -66.5zM696 500q0 -38 -28 -66t-66 -28t-66 28t-28 66t28 66t66 28t66 -28t28 -66zM494 500q0 -38 -28.5 -66
t-66.5 -28t-66 28t-28 66t28 66t66 28t66.5 -28t28.5 -66zM494 297q0 -38 -28.5 -66t-66.5 -28t-66 28t-28 66t28 66t66 28t66.5 -28t28.5 -66zM291 297q0 -38 -28 -66t-66 -28t-66.5 28t-28.5 66t28.5 66t66.5 28t66 -28t28 -66z" />
    <glyph glyph-name="yen" unicode="&#xa5;" 
d="M1305 1311q0 -38 -28.5 -66t-66.5 -28q-39 0 -66.5 27.5t-27.5 66.5t27.5 66.5t66.5 27.5q38 0 66.5 -28t28.5 -66zM1102 1311q0 -38 -28 -66t-66 -28q-40 0 -67.5 27.5t-27.5 66.5t27.5 66.5t67.5 27.5q38 0 66 -28t28 -66zM1305 1108q0 -38 -28.5 -66t-66.5 -28
q-39 0 -66.5 27.5t-27.5 66.5t27.5 66.5t66.5 27.5q38 0 66.5 -28t28.5 -66zM1102 1108q0 -38 -28 -66t-66 -28q-40 0 -67.5 28t-27.5 66t27.5 66t67.5 28q38 0 66 -28t28 -66zM1305 702q0 -38 -28 -63t-67 -25q-40 0 -67 25t-27 63q0 39 27.5 67t66.5 28q38 0 66.5 -28.5
t28.5 -66.5zM1102 905q0 -38 -28 -66t-66 -28q-40 0 -67.5 27.5t-27.5 66.5t27.5 66.5t67.5 27.5q38 0 66 -28t28 -66zM1102 702q0 -38 -27.5 -63t-66.5 -25q-40 0 -67.5 25t-27.5 63q0 39 28 67t67 28q38 0 66 -28.5t28 -66.5zM494 1311q0 -38 -28.5 -66t-66.5 -28t-66 28
t-28 66t28 66t66 28t66.5 -28t28.5 -66zM899 905q0 -38 -28 -66t-66 -28q-39 0 -66.5 27.5t-27.5 66.5t27.5 66.5t66.5 27.5q38 0 66 -28t28 -66zM899 702q0 -38 -27.5 -63t-66.5 -25q-40 0 -67 25t-27 63q0 39 27.5 67t66.5 28q38 0 66 -28.5t28 -66.5zM291 1311
q0 -38 -28 -66t-66 -28t-66.5 28t-28.5 66t28.5 66t66.5 28t66 -28t28 -66zM494 1108q0 -38 -28.5 -66t-66.5 -28t-66 28t-28 66t28 66t66 28t66.5 -28t28.5 -66zM696 905q0 -38 -28 -66t-66 -28t-66 28t-28 66t28 66t66 28t66 -28t28 -66zM1305 297q0 -38 -28.5 -66
t-66.5 -28q-39 0 -66.5 27.5t-27.5 66.5t27.5 66.5t66.5 27.5q38 0 66.5 -28t28.5 -66zM291 1108q0 -38 -28 -66t-66 -28t-66.5 28t-28.5 66t28.5 66t66.5 28t66 -28t28 -66zM494 905q0 -38 -28.5 -66t-66.5 -28t-66 28t-28 66t28 66t66 28t66.5 -28t28.5 -66zM696 702
q0 -38 -28 -66t-66 -28t-66 28t-28 66t28 66.5t66 28.5t66 -28.5t28 -66.5zM899 500q0 -38 -28 -66t-66 -28t-66 28t-28 66t28 66t66 28t66 -28t28 -66zM1102 297q0 -38 -28 -66t-66 -28q-40 0 -67.5 27.5t-27.5 66.5t27.5 66.5t67.5 27.5q38 0 66 -28t28 -66zM494 702
q0 -38 -28.5 -66t-66.5 -28t-66 28t-28 66t28 66.5t66 28.5t66.5 -28.5t28.5 -66.5zM696 500q0 -38 -28 -66t-66 -28t-66 28t-28 66t28 66t66 28t66 -28t28 -66zM899 297q0 -38 -28 -66t-66 -28q-39 0 -66.5 27.5t-27.5 66.5t27.5 66.5t66.5 27.5q38 0 66 -28t28 -66z
M291 702q0 -38 -28 -66t-66 -28t-66.5 28t-28.5 66t28.5 66.5t66.5 28.5t66 -28.5t28 -66.5zM696 297q0 -38 -28 -66t-66 -28t-66 28t-28 66t28 66t66 28t66 -28t28 -66zM899 94q0 -38 -28 -66t-66 -28t-66 28t-28 66t28 66t66 28t66 -28t28 -66zM494 297q0 -38 -28.5 -66
t-66.5 -28t-66 28t-28 66t28 66t66 28t66.5 -28t28.5 -66zM696 94q0 -38 -28 -66t-66 -28t-66 28t-28 66t28 66t66 28t66 -28t28 -66zM291 297q0 -38 -28 -66t-66 -28t-66.5 28t-28.5 66t28.5 66t66.5 28t66 -28t28 -66z" />
    <glyph glyph-name="brokenbar" unicode="&#xa6;" horiz-adv-x="595" 
d="M494 1311q0 -38 -28.5 -66t-66.5 -28t-66 28t-28 66t28 66t66 28t66.5 -28t28.5 -66zM291 1311q0 -38 -28 -66t-66 -28t-66.5 28t-28.5 66t28.5 66t66.5 28t66 -28t28 -66zM494 1108q0 -38 -28.5 -66t-66.5 -28t-66 28t-28 66t28 66t66 28t66.5 -28t28.5 -66zM291 1108
q0 -38 -28 -66t-66 -28t-66.5 28t-28.5 66t28.5 66t66.5 28t66 -28t28 -66zM494 905q0 -38 -28.5 -66t-66.5 -28t-66 28t-28 66t28 66t66 28t66.5 -28t28.5 -66zM291 905q0 -38 -28 -66t-66 -28t-66.5 28t-28.5 66t28.5 66t66.5 28t66 -28t28 -66zM494 500q0 -38 -28.5 -66
t-66.5 -28t-66 28t-28 66t28 66t66 28t66.5 -28t28.5 -66zM291 500q0 -38 -28 -66t-66 -28t-66.5 28t-28.5 66t28.5 66t66.5 28t66 -28t28 -66zM494 297q0 -38 -28.5 -66t-66.5 -28t-66 28t-28 66t28 66t66 28t66.5 -28t28.5 -66zM291 297q0 -38 -28 -66t-66 -28t-66.5 28
t-28.5 66t28.5 66t66.5 28t66 -28t28 -66zM494 94q0 -38 -28.5 -66t-66.5 -28t-66 28t-28 66t28 66t66 28t66.5 -28t28.5 -66zM291 94q0 -38 -28 -66t-66 -28t-66.5 28t-28.5 66t28.5 66t66.5 28t66 -28t28 -66z" />
    <glyph glyph-name="section" unicode="&#xa7;" 
d="M1305 1311q0 -38 -28.5 -66t-66.5 -28q-39 0 -66.5 27.5t-27.5 66.5t27.5 66.5t66.5 27.5q38 0 66.5 -28t28.5 -66zM1102 1311q0 -38 -28 -66t-66 -28q-40 0 -67.5 27.5t-27.5 66.5t27.5 66.5t67.5 27.5q38 0 66 -28t28 -66zM899 1311q0 -38 -28 -66t-66 -28
q-39 0 -66.5 27.5t-27.5 66.5t27.5 66.5t66.5 27.5q38 0 66 -28t28 -66zM696 1311q0 -38 -28 -66t-66 -28t-66 28t-28 66t28 66t66 28t66 -28t28 -66zM1102 905q0 -38 -28 -66t-66 -28q-40 0 -67.5 27.5t-27.5 66.5t27.5 66.5t67.5 27.5q38 0 66 -28t28 -66zM1305 702
q0 -38 -28.5 -66t-66.5 -28q-39 0 -66.5 27.5t-27.5 66.5t27.5 67t66.5 28q38 0 66.5 -28.5t28.5 -66.5zM494 1311q0 -38 -28.5 -66t-66.5 -28t-66 28t-28 66t28 66t66 28t66.5 -28t28.5 -66zM899 905q0 -38 -28 -66t-66 -28q-39 0 -66.5 27.5t-27.5 66.5t27.5 66.5
t66.5 27.5q38 0 66 -28t28 -66zM1102 702q0 -38 -28 -66t-66 -28q-40 0 -67.5 28t-27.5 66q0 39 28 67t67 28q38 0 66 -28.5t28 -66.5zM494 1108q0 -38 -28.5 -66t-66.5 -28t-66 28t-28 66t28 66t66 28t66.5 -28t28.5 -66zM696 905q0 -38 -28 -66t-66 -28t-66 28t-28 66
t28 66t66 28t66 -28t28 -66zM1102 500q0 -38 -28 -66t-66 -28q-40 0 -67.5 28t-27.5 66t27.5 66t67.5 28q38 0 66 -28t28 -66zM1305 297q0 -38 -28.5 -66t-66.5 -28q-39 0 -66.5 27.5t-27.5 66.5t27.5 66.5t66.5 27.5q38 0 66.5 -28t28.5 -66zM291 1108q0 -38 -28 -66
t-66 -28t-66.5 28t-28.5 66t28.5 66t66.5 28t66 -28t28 -66zM494 905q0 -38 -28.5 -66t-66.5 -28t-66 28t-28 66t28 66t66 28t66.5 -28t28.5 -66zM899 500q0 -38 -28 -66t-66 -28q-39 0 -66.5 27.5t-27.5 66.5t27.5 66.5t66.5 27.5q38 0 66 -28t28 -66zM1102 297
q0 -38 -28 -66t-66 -28q-40 0 -67.5 27.5t-27.5 66.5t27.5 66.5t67.5 27.5q38 0 66 -28t28 -66zM494 702q0 -38 -28.5 -66t-66.5 -28t-66 28t-28 66t28 66.5t66 28.5t66.5 -28.5t28.5 -66.5zM696 500q0 -38 -28 -66t-66 -28t-66 28t-28 66t28 66t66 28t66 -28t28 -66z
M1102 94q0 -38 -28 -66t-66 -28q-40 0 -67.5 28t-27.5 66t27.5 66t67.5 28q38 0 66 -28t28 -66zM291 702q0 -38 -28 -66t-66 -28t-66.5 28t-28.5 66t28.5 66.5t66.5 28.5t66 -28.5t28 -66.5zM494 500q0 -38 -28.5 -66t-66.5 -28t-66 28t-28 66t28 66t66 28t66.5 -28
t28.5 -66zM899 94q0 -38 -28 -66t-66 -28q-39 0 -66.5 27.5t-27.5 66.5t27.5 66.5t66.5 27.5q38 0 66 -28t28 -66zM696 94q0 -38 -28 -66t-66 -28t-66 28t-28 66t28 66t66 28t66 -28t28 -66zM494 94q0 -38 -28.5 -66t-66.5 -28t-66 28t-28 66t28 66t66 28t66.5 -28t28.5 -66
zM291 94q0 -38 -28 -66t-66 -28t-66.5 28t-28.5 66t28.5 66t66.5 28t66 -28t28 -66z" />
    <glyph glyph-name="dieresis" unicode="&#xa8;" horiz-adv-x="1204" 
d="M1102 1311q0 -38 -28 -66t-66 -28q-40 0 -67.5 27.5t-27.5 66.5t27.5 66.5t67.5 27.5q38 0 66 -28t28 -66zM899 1311q0 -38 -28 -66t-66 -28q-39 0 -66.5 27.5t-27.5 66.5t27.5 66.5t66.5 27.5q38 0 66 -28t28 -66zM494 1311q0 -38 -28.5 -66t-66.5 -28t-66 28t-28 66
t28 66t66 28t66.5 -28t28.5 -66zM291 1311q0 -38 -28 -66t-66 -28t-66.5 28t-28.5 66t28.5 66t66.5 28t66 -28t28 -66z" />
    <glyph glyph-name="copyright" unicode="&#xa9;" horiz-adv-x="1204" 
d="M899 1311q0 -38 -28 -66t-66 -28q-39 0 -66.5 27.5t-27.5 66.5t27.5 66.5t66.5 27.5q38 0 66 -28t28 -66zM1102 1108q0 -38 -28 -66t-66 -28q-40 0 -67.5 28t-27.5 66t27.5 66t67.5 28q38 0 66 -28t28 -66zM696 1311q0 -38 -28 -66t-66 -28t-66 28t-28 66t28 66t66 28
t66 -28t28 -66zM494 1311q0 -38 -28.5 -66t-66.5 -28t-66 28t-28 66t28 66t66 28t66.5 -28t28.5 -66zM899 905q0 -38 -28 -66t-66 -28q-39 0 -66.5 27.5t-27.5 66.5t27.5 66.5t66.5 27.5q38 0 66 -28t28 -66zM696 905q0 -38 -28 -66t-66 -28t-66 28t-28 66t28 66t66 28
t66 -28t28 -66zM291 1108q0 -38 -28 -66t-66 -28t-66.5 28t-28.5 66t28.5 66t66.5 28t66 -28t28 -66zM494 905q0 -38 -28.5 -66t-66.5 -28t-66 28t-28 66t28 66t66 28t66.5 -28t28.5 -66zM899 500q0 -38 -28 -66t-66 -28q-39 0 -66.5 27.5t-27.5 66.5t27.5 66.5t66.5 27.5
q38 0 66 -28t28 -66zM1102 297q0 -38 -28 -66t-66 -28q-40 0 -67.5 27.5t-27.5 66.5t27.5 66.5t67.5 27.5q38 0 66 -28t28 -66zM494 702q0 -38 -28.5 -66t-66.5 -28t-66 28t-28 66t28 66.5t66 28.5t66.5 -28.5t28.5 -66.5zM696 500q0 -38 -28 -66t-66 -28t-66 28t-28 66
t28 66t66 28t66 -28t28 -66zM494 500q0 -38 -28.5 -66t-66.5 -28t-66 28t-28 66t28 66t66 28t66.5 -28t28.5 -66zM899 94q0 -38 -28 -66t-66 -28q-39 0 -66.5 27.5t-27.5 66.5t27.5 66.5t66.5 27.5q38 0 66 -28t28 -66zM696 94q0 -38 -28 -66t-66 -28t-66 28t-28 66t28 66
t66 28t66 -28t28 -66zM291 297q0 -38 -28 -66t-66 -28t-66.5 28t-28.5 66t28.5 66t66.5 28t66 -28t28 -66zM494 94q0 -38 -28.5 -66t-66.5 -28t-66 28t-28 66t28 66t66 28t66.5 -28t28.5 -66z" />
    <glyph glyph-name="ordfeminine" unicode="&#xaa;" 
d="M1102 1311q0 -38 -28 -66t-66 -28t-66.5 28t-28.5 66t28.5 66t66.5 28t66 -28t28 -66zM899 1311q0 -38 -28 -66t-66 -28t-66 28t-28 66t28 66t66 28t66 -28t28 -66zM1102 1108q0 -38 -28 -66t-66 -28t-66.5 28t-28.5 66t28.5 66t66.5 28t66 -28t28 -66zM1305 905
q0 -38 -28.5 -66t-66.5 -28q-39 0 -66.5 27.5t-27.5 66.5t27.5 66.5t66.5 27.5q38 0 66.5 -28t28.5 -66zM696 1311q0 -38 -28 -66t-66 -28t-66 28t-28 66t28 66t66 28t66 -28t28 -66zM899 1108q0 -38 -28 -66t-66 -28t-66 28t-28 66t28 66t66 28t66 -28t28 -66zM1102 905
q0 -38 -28 -66t-66 -28q-40 0 -67.5 27.5t-27.5 66.5t27.5 66.5t67.5 27.5q38 0 66 -28t28 -66zM494 1311q0 -38 -28.5 -66t-66.5 -28t-66 28t-28 66t28 66t66 28t66.5 -28t28.5 -66zM899 905q0 -38 -28 -66t-66 -28q-39 0 -66.5 27.5t-27.5 66.5t27.5 66.5t66.5 27.5
q38 0 66 -28t28 -66zM1305 500q0 -38 -28.5 -66t-66.5 -28q-39 0 -66.5 27.5t-27.5 66.5t27.5 66.5t66.5 27.5q38 0 66.5 -28t28.5 -66zM494 1108q0 -38 -28.5 -66t-66.5 -28t-66 28t-28 66t28 66t66 28t66.5 -28t28.5 -66zM696 905q0 -38 -28 -66t-66 -28t-66 28t-28 66
t28 66t66 28t66 -28t28 -66zM1102 500q0 -38 -28 -66t-66 -28q-40 0 -67.5 28t-27.5 66t27.5 66t67.5 28q38 0 66 -28t28 -66zM291 1108q0 -38 -28 -66t-66 -28t-66.5 28t-28.5 66t28.5 66t66.5 28t66 -28t28 -66zM494 905q0 -38 -28.5 -66t-66.5 -28t-66 28t-28 66t28 66
t66 28t66.5 -28t28.5 -66zM899 500q0 -38 -28 -66t-66 -28q-39 0 -66.5 27.5t-27.5 66.5t27.5 66.5t66.5 27.5q38 0 66 -28t28 -66zM696 500q0 -38 -28 -66t-66 -28t-66 28t-28 66t28 66t66 28t66 -28t28 -66zM494 500q0 -38 -28.5 -66t-66.5 -28t-66 28t-28 66t28 66t66 28
t66.5 -28t28.5 -66zM291 500q0 -38 -28 -66t-66 -28t-66.5 28t-28.5 66t28.5 66t66.5 28t66 -28t28 -66z" />
    <glyph glyph-name="guillemotleft" unicode="&#xab;" horiz-adv-x="1609" 
d="M1507 905q0 -38 -28 -66t-66 -28q-39 0 -66.5 27.5t-27.5 66.5t27.5 66.5t66.5 27.5q38 0 66 -28t28 -66zM1305 905q0 -38 -28.5 -66t-66.5 -28q-39 0 -66.5 27.5t-27.5 66.5t27.5 66.5t66.5 27.5q38 0 66.5 -28t28.5 -66zM1305 702q0 -38 -28.5 -66t-66.5 -28
q-39 0 -66.5 27.5t-27.5 66.5t27.5 67t66.5 28q38 0 66.5 -28.5t28.5 -66.5zM1507 500q0 -38 -28 -66t-66 -28q-39 0 -66.5 27.5t-27.5 66.5t27.5 66.5t66.5 27.5q38 0 66 -28t28 -66zM1102 702q0 -38 -28 -66t-66 -28q-40 0 -67.5 28t-27.5 66q0 39 28 67t67 28
q38 0 66 -28.5t28 -66.5zM1305 500q0 -38 -28.5 -66t-66.5 -28q-39 0 -66.5 27.5t-27.5 66.5t27.5 66.5t66.5 27.5q38 0 66.5 -28t28.5 -66zM696 905q0 -38 -28 -66t-66 -28t-66 28t-28 66t28 66t66 28t66 -28t28 -66zM494 905q0 -38 -28.5 -66t-66.5 -28t-66 28t-28 66
t28 66t66 28t66.5 -28t28.5 -66zM494 702q0 -38 -28.5 -66t-66.5 -28t-66 28t-28 66t28 66.5t66 28.5t66.5 -28.5t28.5 -66.5zM696 500q0 -38 -28 -66t-66 -28t-66 28t-28 66t28 66t66 28t66 -28t28 -66zM291 702q0 -38 -28 -66t-66 -28t-66.5 28t-28.5 66t28.5 66.5
t66.5 28.5t66 -28.5t28 -66.5zM494 500q0 -38 -28.5 -66t-66.5 -28t-66 28t-28 66t28 66t66 28t66.5 -28t28.5 -66z" />
    <glyph glyph-name="logicalnot" unicode="&#xac;" horiz-adv-x="1204" 
d="M1102 702q0 -38 -28 -66t-66 -28q-40 0 -67.5 28t-27.5 66q0 39 28 67t67 28q38 0 66 -28.5t28 -66.5zM899 702q0 -38 -28 -66t-66 -28q-39 0 -66.5 27.5t-27.5 66.5t27.5 67t66.5 28q38 0 66 -28.5t28 -66.5zM1102 500q0 -38 -28 -66t-66 -28q-40 0 -67.5 28t-27.5 66
t27.5 66t67.5 28q38 0 66 -28t28 -66zM696 702q0 -38 -28 -66t-66 -28q-39 0 -66.5 27.5t-27.5 66.5t27.5 67t66.5 28q38 0 66 -28.5t28 -66.5zM899 500q0 -38 -28 -66t-66 -28q-39 0 -66.5 27.5t-27.5 66.5t27.5 66.5t66.5 27.5q38 0 66 -28t28 -66zM494 702
q0 -38 -28.5 -66t-66.5 -28t-66 28t-28 66t28 66.5t66 28.5t66.5 -28.5t28.5 -66.5zM291 702q0 -38 -28 -66t-66 -28t-66.5 28t-28.5 66t28.5 66.5t66.5 28.5t66 -28.5t28 -66.5z" />
    <glyph glyph-name="registered" unicode="&#xae;" horiz-adv-x="1204" 
d="M899 1311q0 -38 -28 -66t-66 -28q-39 0 -66.5 27.5t-27.5 66.5t27.5 66.5t66.5 27.5q38 0 66 -28t28 -66zM1102 1108q0 -38 -28 -66t-66 -28q-40 0 -67.5 28t-27.5 66t27.5 66t67.5 28q38 0 66 -28t28 -66zM696 1311q0 -38 -28 -66t-66 -28t-66 28t-28 66t28 66t66 28
t66 -28t28 -66zM494 1311q0 -38 -28.5 -66t-66.5 -28t-66 28t-28 66t28 66t66 28t66.5 -28t28.5 -66zM899 905q0 -38 -28 -66t-66 -28q-39 0 -66.5 27.5t-27.5 66.5t27.5 66.5t66.5 27.5q38 0 66 -28t28 -66zM696 905q0 -38 -28 -66t-66 -28t-66 28t-28 66t28 66t66 28
t66 -28t28 -66zM291 1108q0 -38 -28 -66t-66 -28t-66.5 28t-28.5 66t28.5 66t66.5 28t66 -28t28 -66zM494 905q0 -38 -28.5 -66t-66.5 -28t-66 28t-28 66t28 66t66 28t66.5 -28t28.5 -66zM1102 297q0 -38 -28 -66t-66 -28q-40 0 -67.5 27.5t-27.5 66.5t27.5 66.5t67.5 27.5
q38 0 66 -28t28 -66zM494 702q0 -38 -28.5 -66t-66.5 -28t-66 28t-28 66t28 66.5t66 28.5t66.5 -28.5t28.5 -66.5zM494 500q0 -38 -28.5 -66t-66.5 -28t-66 28t-28 66t28 66t66 28t66.5 -28t28.5 -66zM899 94q0 -38 -28 -66t-66 -28q-39 0 -66.5 27.5t-27.5 66.5t27.5 66.5
t66.5 27.5q38 0 66 -28t28 -66zM696 94q0 -38 -28 -66t-66 -28t-66 28t-28 66t28 66t66 28t66 -28t28 -66zM291 297q0 -38 -28 -66t-66 -28t-66.5 28t-28.5 66t28.5 66t66.5 28t66 -28t28 -66zM494 94q0 -38 -28.5 -66t-66.5 -28t-66 28t-28 66t28 66t66 28t66.5 -28
t28.5 -66z" />
    <glyph glyph-name="macron" unicode="&#xaf;" horiz-adv-x="1001" 
d="M899 1311q0 -38 -28 -66t-66 -28t-66 28t-28 66t28 66t66 28t66 -28t28 -66zM696 1311q0 -38 -28 -66t-66 -28t-66 28t-28 66t28 66t66 28t66 -28t28 -66zM494 1311q0 -38 -28.5 -66t-66.5 -28t-66 28t-28 66t28 66t66 28t66.5 -28t28.5 -66zM291 1311q0 -38 -28 -66
t-66 -28t-66.5 28t-28.5 66t28.5 66t66.5 28t66 -28t28 -66z" />
    <glyph glyph-name="degree" unicode="&#xb0;" horiz-adv-x="1204" 
d="M1102 1716q0 -38 -28 -66t-66 -28q-40 0 -67.5 28t-27.5 66t27.5 66t67.5 28q38 0 66 -28t28 -66zM899 1716q0 -38 -28 -66t-66 -28q-39 0 -66.5 27.5t-27.5 66.5t27.5 66.5t66.5 27.5q38 0 66 -28t28 -66zM1102 1513q0 -38 -28 -66t-66 -28q-40 0 -67.5 27.5t-27.5 66.5
t28 67t67 28q38 0 66 -28.5t28 -66.5zM696 1716q0 -38 -28 -66t-66 -28t-66 28t-28 66t28 66t66 28t66 -28t28 -66zM899 1513q0 -38 -28 -66t-66 -28q-39 0 -66.5 27.5t-27.5 66.5t27.5 67t66.5 28q38 0 66 -28.5t28 -66.5zM1102 1311q0 -38 -28 -66t-66 -28
q-40 0 -67.5 27.5t-27.5 66.5t27.5 66.5t67.5 27.5q38 0 66 -28t28 -66zM494 1716q0 -38 -28.5 -66t-66.5 -28t-66 28t-28 66t28 66t66 28t66.5 -28t28.5 -66zM899 1311q0 -38 -28 -66t-66 -28q-39 0 -66.5 27.5t-27.5 66.5t27.5 66.5t66.5 27.5q38 0 66 -28t28 -66z
M291 1716q0 -38 -28 -66t-66 -28t-66.5 28t-28.5 66t28.5 66t66.5 28t66 -28t28 -66zM494 1513q0 -38 -28.5 -66t-66.5 -28t-66 28t-28 66t28 66.5t66 28.5t66.5 -28.5t28.5 -66.5zM696 1311q0 -38 -28 -66t-66 -28t-66 28t-28 66t28 66t66 28t66 -28t28 -66zM291 1513
q0 -38 -28 -66t-66 -28t-66.5 28t-28.5 66t28.5 66.5t66.5 28.5t66 -28.5t28 -66.5zM494 1311q0 -38 -28.5 -66t-66.5 -28t-66 28t-28 66t28 66t66 28t66.5 -28t28.5 -66zM291 1311q0 -38 -28 -66t-66 -28t-66.5 28t-28.5 66t28.5 66t66.5 28t66 -28t28 -66z" />
    <glyph glyph-name="plusminus" unicode="&#xb1;" 
d="M899 1311q0 -38 -28 -66t-66 -28t-66 28t-28 66t28 66t66 28t66 -28t28 -66zM1305 905q0 -38 -28.5 -66t-66.5 -28q-39 0 -66.5 27.5t-27.5 66.5t27.5 66.5t66.5 27.5q38 0 66.5 -28t28.5 -66zM696 1311q0 -38 -28 -66t-66 -28t-66 28t-28 66t28 66t66 28t66 -28t28 -66z
M899 1108q0 -38 -28 -66t-66 -28t-66 28t-28 66t28 66t66 28t66 -28t28 -66zM1102 905q0 -38 -28 -66t-66 -28q-40 0 -67.5 27.5t-27.5 66.5t27.5 66.5t67.5 27.5q38 0 66 -28t28 -66zM696 1108q0 -38 -28 -66t-66 -28t-66 28t-28 66t28 66t66 28t66 -28t28 -66zM899 905
q0 -38 -28 -66t-66 -28q-39 0 -66.5 27.5t-27.5 66.5t27.5 66.5t66.5 27.5q38 0 66 -28t28 -66zM696 905q0 -38 -28 -66t-66 -28t-66 28t-28 66t28 66t66 28t66 -28t28 -66zM899 702q0 -38 -28 -66t-66 -28t-66 28t-28 66t28 66.5t66 28.5t66 -28.5t28 -66.5zM494 905
q0 -38 -28.5 -66t-66.5 -28t-66 28t-28 66t28 66t66 28t66.5 -28t28.5 -66zM696 702q0 -38 -28 -66t-66 -28t-66 28t-28 66t28 66.5t66 28.5t66 -28.5t28 -66.5zM899 500q0 -38 -28 -66t-66 -28t-66 28t-28 66t28 66t66 28t66 -28t28 -66zM1305 94q0 -38 -28.5 -66
t-66.5 -28q-39 0 -66.5 27.5t-27.5 66.5t27.5 66.5t66.5 27.5q38 0 66.5 -28t28.5 -66zM291 905q0 -38 -28 -66t-66 -28t-66.5 28t-28.5 66t28.5 66t66.5 28t66 -28t28 -66zM696 500q0 -38 -28 -66t-66 -28t-66 28t-28 66t28 66t66 28t66 -28t28 -66zM1102 94q0 -38 -28 -66
t-66 -28q-40 0 -67.5 28t-27.5 66t27.5 66t67.5 28q38 0 66 -28t28 -66zM899 94q0 -38 -28 -66t-66 -28q-39 0 -66.5 27.5t-27.5 66.5t27.5 66.5t66.5 27.5q38 0 66 -28t28 -66zM696 94q0 -38 -28 -66t-66 -28t-66 28t-28 66t28 66t66 28t66 -28t28 -66zM494 94
q0 -38 -28.5 -66t-66.5 -28t-66 28t-28 66t28 66t66 28t66.5 -28t28.5 -66zM291 94q0 -38 -28 -66t-66 -28t-66.5 28t-28.5 66t28.5 66t66.5 28t66 -28t28 -66z" />
    <glyph glyph-name="acute" unicode="&#xb4;" horiz-adv-x="1204" 
d="M899 1311q0 -38 -28 -66t-66 -28q-39 0 -66.5 27.5t-27.5 66.5t27.5 66.5t66.5 27.5q38 0 66 -28t28 -66zM696 1311q0 -38 -28 -66t-66 -28q-39 0 -66.5 27.5t-27.5 66.5t27.5 66.5t66.5 27.5q38 0 66 -28t28 -66zM696 1108q0 -38 -28 -66t-66 -28t-66 28t-28 66t28 66
t66 28t66 -28t28 -66zM494 1108q0 -38 -28.5 -66t-66.5 -28t-66 28t-28 66t28 66t66 28t66.5 -28t28.5 -66z" />
    <glyph glyph-name="mu" unicode="&#xb5;" 
d="M1102 1311q0 -38 -28 -66t-66 -28q-40 0 -67.5 27.5t-27.5 66.5t27.5 66.5t67.5 27.5q38 0 66 -28t28 -66zM899 1311q0 -38 -28 -66t-66 -28q-39 0 -66.5 27.5t-27.5 66.5t27.5 66.5t66.5 27.5q38 0 66 -28t28 -66zM1102 1108q0 -38 -28 -66t-66 -28q-40 0 -67.5 28
t-27.5 66t27.5 66t67.5 28q38 0 66 -28t28 -66zM899 1108q0 -38 -28 -66t-66 -28q-39 0 -66.5 27.5t-27.5 66.5t27.5 66.5t66.5 27.5q38 0 66 -28t28 -66zM1102 905q0 -38 -28 -66t-66 -28q-40 0 -67.5 27.5t-27.5 66.5t27.5 66.5t67.5 27.5q38 0 66 -28t28 -66zM494 1311
q0 -38 -28.5 -66t-66.5 -28t-66 28t-28 66t28 66t66 28t66.5 -28t28.5 -66zM899 905q0 -38 -28 -66t-66 -28q-39 0 -66.5 27.5t-27.5 66.5t27.5 66.5t66.5 27.5q38 0 66 -28t28 -66zM1102 702q0 -38 -28 -66t-66 -28q-40 0 -67.5 28t-27.5 66q0 39 28 67t67 28
q38 0 66 -28.5t28 -66.5zM1305 500q0 -38 -28.5 -66t-66.5 -28q-39 0 -66.5 27.5t-27.5 66.5t27.5 66.5t66.5 27.5q38 0 66.5 -28t28.5 -66zM291 1311q0 -38 -28 -66t-66 -28t-66.5 28t-28.5 66t28.5 66t66.5 28t66 -28t28 -66zM494 1108q0 -38 -28.5 -66t-66.5 -28t-66 28
t-28 66t28 66t66 28t66.5 -28t28.5 -66zM899 702q0 -38 -28 -66t-66 -28q-39 0 -66.5 27.5t-27.5 66.5t27.5 67t66.5 28q38 0 66 -28.5t28 -66.5zM1102 500q0 -38 -28 -66t-66 -28q-40 0 -67.5 28t-27.5 66t27.5 66t67.5 28q38 0 66 -28t28 -66zM291 1108q0 -38 -28 -66
t-66 -28t-66.5 28t-28.5 66t28.5 66t66.5 28t66 -28t28 -66zM494 905q0 -38 -28.5 -66t-66.5 -28t-66 28t-28 66t28 66t66 28t66.5 -28t28.5 -66zM899 500q0 -38 -28 -66t-66 -28t-66 28t-28 66t28 66t66 28t66 -28t28 -66zM291 905q0 -38 -28 -66t-66 -28t-66.5 28
t-28.5 66t28.5 66t66.5 28t66 -28t28 -66zM494 702q0 -38 -28.5 -66t-66.5 -28t-66 28t-28 66t28 66.5t66 28.5t66.5 -28.5t28.5 -66.5zM696 500q0 -38 -28 -66t-66 -28t-66 28t-28 66t28 66t66 28t66 -28t28 -66zM291 702q0 -38 -28 -66t-66 -28t-66.5 28t-28.5 66
t28.5 66.5t66.5 28.5t66 -28.5t28 -66.5zM494 500q0 -38 -28.5 -66t-66.5 -28t-66 28t-28 66t28 66t66 28t66.5 -28t28.5 -66zM291 500q0 -38 -28 -66t-66 -28t-66.5 28t-28.5 66t28.5 66t66.5 28t66 -28t28 -66zM494 297q0 -38 -28.5 -66t-66.5 -28t-66 28t-28 66t28 66
t66 28t66.5 -28t28.5 -66zM291 297q0 -38 -28 -66t-66 -28t-66.5 28t-28.5 66t28.5 66t66.5 28t66 -28t28 -66zM494 94q0 -38 -28.5 -66t-66.5 -28t-66 28t-28 66t28 66t66 28t66.5 -28t28.5 -66zM291 94q0 -38 -28 -66t-66 -28t-66.5 28t-28.5 66t28.5 66t66.5 28t66 -28
t28 -66z" />
    </font>
</defs>
</svg>
